<svg version="1.1" xmlns="http://www.w3.org/2000/svg" viewBox="0 0 94 32"><path opacity="0.2" fill="#000" d="M7.508 11.418l-7.508 6.903v8.903c0 2.638 2.138 4.776 4.776 4.776h81.91c3.957 0 7.164-3.207 7.164-7.164v-18.862c-0.342-0.188-0.84-0.251-1.051-0.266-1.646-0.115-2.59 0.978-3.904 1.991l-0.016 0.013c-0.389 0.3-1.36 1.049-3.137 1.049-1.802 0-3.053-0.708-3.454-1.062l-6.006-5.575c-0.801-0.708-2.553-2.124-4.505-2.124s-3.504 1.416-4.204 2.124l-27.78 23.764c-0.45 0.442-1.832 1.328-3.754 1.328s-3.304-0.885-3.754-1.328l-16.067-15.134c-0.551-0.531-2.162-1.593-4.204-1.593s-3.854 1.505-4.505 2.257z"></path></svg>
