<svg aria-hidden="true" style="position:absolute;width:0;height:0" xmlns="http://www.w3.org/2000/svg" overflow="hidden"><defs><symbol id="account" viewBox="0 0 33 32"><path fill="currentColor" d="M4.667 6.667v18.667a2.666 2.666 0 0 0 2.667 2.667h18.667c1.467 0 2.667-1.2 2.667-2.667V6.667C28.668 5.2 27.468 4 26.001 4H7.334c-1.48 0-2.667 1.2-2.667 2.667zm16 5.333c0 2.213-1.787 4-4 4s-4-1.787-4-4 1.787-4 4-4 4 1.787 4 4zm-12 10.667c0-2.667 5.333-4.133 8-4.133s8 1.467 8 4.133V24h-16v-1.333z"/></symbol><symbol id="check" viewBox="0 0 58 32"><path fill="none" stroke-width="2.909" stroke="#000" d="m2.909 2.909 26.182 26.182L55.273 2.909"/></symbol><symbol id="date" viewBox="0 0 32 32"><path fill="var(--color-primary)" d="M12 14.667H9.333v2.667H12v-2.667zm5.333 0h-2.667v2.667h2.667v-2.667zm5.334 0H20v2.667h2.667v-2.667zm2.666-9.334H24V2.666h-2.667v2.667H10.666V2.666H7.999v2.667H6.666c-1.48 0-2.653 1.2-2.653 2.667L4 26.667a2.666 2.666 0 0 0 2.667 2.667h18.667c1.467 0 2.667-1.2 2.667-2.667V8c0-1.467-1.2-2.667-2.667-2.667zm0 21.334H6.666V12h18.667v14.667z"/></symbol><symbol id="ellipse" viewBox="0 0 36 32"><path fill="currentColor" d="M34.939 18.684c-2.079 8.601-10.374 12.929-18.7 13.308-9.727 0-16.236-8.347-16.236-17.511 0-8.502 9.916-9.177 17.323-12.39C31.078-3.743 39.24 3.285 34.939 18.684z"/></symbol><symbol id="email" viewBox="0 0 33 32"><path fill="currentColor" d="M27.333 5.333H6A2.663 2.663 0 0 0 3.347 8l-.013 16c0 1.467 1.2 2.667 2.667 2.667h21.333c1.467 0 2.667-1.2 2.667-2.667V8c0-1.467-1.2-2.667-2.667-2.667zm0 5.334-10.667 6.667-10.667-6.667V8l10.667 6.667L27.333 8v2.667z"/></symbol><symbol id="exit" viewBox="0 0 32 32"><path fill="currentColor" d="M20.051 23.237h2.499v4.997a3.752 3.752 0 0 1-3.748 3.748H3.748A3.752 3.752 0 0 1 0 28.234V3.748A3.752 3.752 0 0 1 3.748 0h15.054a3.752 3.752 0 0 1 3.748 3.748v4.997h-2.499V3.748a1.25 1.25 0 0 0-1.249-1.249H3.748a1.25 1.25 0 0 0-1.249 1.249v24.486a1.25 1.25 0 0 0 1.249 1.249h15.054a1.25 1.25 0 0 0 1.249-1.249v-4.997zm6.06-13.135-1.767 1.767 2.873 2.874H11.056v2.499h16.161l-2.873 2.873 1.767 1.767L32 15.993l-5.889-5.89z"/></symbol><symbol id="finance" viewBox="0 0 32 32"><path fill="currentColor" d="M6.545 2.182a4.364 4.364 0 0 0-4.364 4.364v18.909a4.364 4.364 0 0 0 4.364 4.364h18.909a4.364 4.364 0 0 0 4.364-4.364V6.546a4.364 4.364 0 0 0-4.364-4.364H6.545zm7.093 11.344c0 .86.661 1.412 2.715 1.946s4.253 1.412 4.253 3.982c0 1.855-1.403 2.878-3.167 3.212v1.946h-2.715v-1.964c-1.737-.371-3.222-1.484-3.33-3.466h1.991c.1 1.068.833 1.9 2.697 1.9 2 0 2.443-.995 2.443-1.62 0-.842-.452-1.638-2.715-2.181-2.525-.606-4.253-1.647-4.253-3.737 0-1.747 1.412-2.887 3.167-3.267V8.322h2.715v1.982c1.891.462 2.841 1.891 2.905 3.448h-2c-.054-1.131-.651-1.9-2.262-1.9-1.529 0-2.443.688-2.443 1.674z"/></symbol><symbol id="footer" viewBox="0 0 94 32"><path opacity=".2" fill="currentColor" d="M7.508 11.418 0 18.321v8.903A4.776 4.776 0 0 0 4.776 32h81.91a7.163 7.163 0 0 0 7.164-7.164V5.974c-.342-.188-.84-.251-1.051-.266-1.646-.115-2.59.978-3.904 1.991l-.016.013c-.389.3-1.36 1.049-3.137 1.049-1.802 0-3.053-.708-3.454-1.062l-6.006-5.575C75.481 1.416 73.729 0 71.777 0s-3.504 1.416-4.204 2.124l-27.78 23.764c-.45.442-1.832 1.328-3.754 1.328s-3.304-.885-3.754-1.328L16.218 10.754c-.551-.531-2.162-1.593-4.204-1.593s-3.854 1.505-4.505 2.257z"/></symbol><symbol id="header" viewBox="0 0 210 32"><path fill="currentColor" opacity=".2" d="M0 16C0 7.163 7.163 0 16 0h177.6c8.837 0 16 7.163 16 16v16H0V16z"/></symbol><symbol id="home" viewBox="0 0 32 32"><path fill="currentColor" d="M6.545 2.182a4.364 4.364 0 0 0-4.364 4.364v18.909a4.364 4.364 0 0 0 4.364 4.364h18.909a4.364 4.364 0 0 0 4.364-4.364V6.546a4.364 4.364 0 0 0-4.364-4.364H6.545zm7.225 15.534v5.961H8.8v-7.948H5.818l9.939-8.941 9.939 8.941h-2.982v7.948h-4.97v-5.961h-3.976z"/></symbol><symbol id="lock" viewBox="0 0 33 32"><path fill="currentColor" d="M24.667 10.667h-1.333V8c0-3.68-2.987-6.667-6.667-6.667S10 4.32 10 8v2.667H8.667A2.675 2.675 0 0 0 6 13.334v13.333c0 1.467 1.2 2.667 2.667 2.667h16c1.467 0 2.667-1.2 2.667-2.667V13.334c0-1.467-1.2-2.667-2.667-2.667zm-8 12C15.2 22.667 14 21.467 14 20s1.2-2.667 2.667-2.667c1.467 0 2.667 1.2 2.667 2.667s-1.2 2.667-2.667 2.667zm4.133-12h-8.267V8c0-2.28 1.853-4.133 4.133-4.133S20.799 5.72 20.799 8v2.667z"/></symbol><symbol id="minus-btn" viewBox="0 0 320 32"><path fill="none" stroke="currentColor" stroke-width="32" d="M0 16h320"/></symbol><symbol id="oval" viewBox="0 0 64 32"><path fill="none" stroke="#e0e0e0" stroke-width=".8" d="M16 .4h32C56.616.4 63.6 7.384 63.6 16S56.616 31.6 48 31.6H16C7.384 31.6.4 24.616.4 16S7.384.4 16 .4z"/></symbol><symbol id="plus-btn" viewBox="0 0 32 32"><path fill="none" stroke="#fff" stroke-width="3.2" d="M16 0v32M0 16h32"/></symbol><symbol id="close" viewBox="0 0 32 32"><path stroke="currentColor" stroke-width="1.778" d="m1.778 1.778 28.444 28.444m-28.444 0L30.222 1.778"/></symbol><symbol id="timeline" viewBox="0 0 32 32"><path fill="currentColor" d="M6.545 2.182h18.909a4.364 4.364 0 0 1 4.364 4.364v18.909a4.364 4.364 0 0 1-4.364 4.364H6.545a4.364 4.364 0 0 1-4.364-4.364V6.546a4.364 4.364 0 0 1 4.364-4.364zm17.091 12.04c.933 0 1.697-.8 1.697-1.778s-.764-1.778-1.697-1.778-1.697.8-1.697 1.778c0 .16.017.311.059.453l-3.012 3.164c-.136-.044-.288-.062-.441-.062s-.305.018-.441.062l-2.164-2.267c.042-.142.059-.302.059-.462 0-.978-.764-1.778-1.697-1.778s-1.697.8-1.697 1.778c0 .16.017.32.059.462l-3.869 4.044a1.396 1.396 0 0 0-.433-.062c-.933 0-1.697.8-1.697 1.778s.764 1.778 1.697 1.778 1.697-.8 1.697-1.778c0-.16-.017-.311-.059-.453l3.861-4.053c.136.044.288.062.441.062s.305-.018.441-.062l2.164 2.267a1.653 1.653 0 0 0-.059.462c0 .978.764 1.778 1.697 1.778s1.697-.8 1.697-1.778c0-.16-.017-.32-.059-.462l3.021-3.156c.136.044.28.062.433.062z"/></symbol><symbol id="wallet" viewBox="0 0 32 32"><path fill="var(--color-secondary)" d="m3.755 7.619 16.211-4.537-.859-1.779C18.545.146 17.175-.331 16.047.245L1.534 7.62h2.219zm21.058-4.571a2.05 2.05 0 0 0-.586.087L9.215 7.619h18.431l-.693-2.779c-.266-1.083-1.163-1.793-2.14-1.793z"/><path fill="var(--color-primary)" d="M28.36 8.573H1.801A1.799 1.799 0 0 0 0 10.355v19.862A1.79 1.79 0 0 0 1.797 32h26.559a1.79 1.79 0 0 0 1.797-1.783v-4.973H19.491c-1.685 0-3.054-1.358-3.054-3.03V18.25c0-.82.331-1.565.866-2.111a3.03 3.03 0 0 1 2.185-.916h10.666v-4.867a1.785 1.785 0 0 0-1.793-1.783z"/><path fill="var(--color-primary)" d="M31.414 16.926a1.804 1.804 0 0 0-1.211-.467H19.491a1.79 1.79 0 0 0-1.797 1.783v3.968a1.79 1.79 0 0 0 1.797 1.783h10.712c.205 0 .399-.036.582-.096.237-.078.449-.207.629-.371.359-.324.586-.795.586-1.316v-3.968c0-.52-.226-.991-.586-1.316zm-8.171 3.655a.895.895 0 0 1-.898.891h-.596a.895.895 0 0 1-.898-.891v-.592c0-.285.133-.538.345-.699a.911.911 0 0 1 .553-.193h.596c.496 0 .898.399.898.891v.592z"/></symbol><symbol id="bg-top" viewBox="0 0 31 32"><path fill="currentColor" d="M46.129 22.271c-7.358 10.303-20.68 11.612-31.934 7.663C1.285 24.733-2.89 10.176 2.01-1.986c4.546-11.283 18.067-6.878 29.615-7.181 21.37-.39 28.445 13.301 14.503 31.439z"/></symbol><symbol id="bg-bottom" viewBox="0 0 49 32"><path fill="currentColor" d="M42.271 35.955C34.663 48.897 19.065 51.841 5.359 48.36c-15.794-4.787-22.254-21.542-17.744-36.422C-8.201-1.866 8.231 1.917 21.84.346c25.199-2.705 34.993 12.723 20.432 35.609z"/></symbol><symbol id="login" viewBox="0 0 436 420"><path d="m412.4 7.6.2 80.5c0 4.5-3.6 8.2-8.1 8.2l-127.7.3c-4.5 0-8.2-3.6-8.2-8.1L268.4 8c0-4.2 3.4-7.6 7.6-7.6L404.8 0c4.2 0 7.6 3.4 7.6 7.6Z" fill="var(--color-primary)"/><path d="M391.8 76.8c0 4.1-3.3 7.5-7.5 7.5-4.1 0-7.5-3.3-7.5-7.5 0-4.1 3.3-7.5 7.5-7.5s7.5 3.3 7.5 7.5Z" fill="#A6A6A6"/><path d="M401.1 76.8c0 4.1-3.3 7.5-7.5 7.5-4.1 0-7.5-3.3-7.5-7.5 0-4.1 3.3-7.5 7.5-7.5 4.1 0 7.5 3.3 7.5 7.5Zm-97.7-44h-18.6c-2.3 0-4.2-1.9-4.2-4.2V18.3c0-2.3 1.9-4.2 4.2-4.2h18.6c2.3 0 4.2 1.9 4.2 4.2v10.3c0 2.3-1.9 4.2-4.2 4.2Z" fill="#FFC727"/><path d="M395.8 24.1h-12.2c-2.8 0-5.1-2.3-5.1-5.1s2.3-5.1 5.1-5.1h12.2c2.8 0 5.1 2.3 5.1 5.1s-2.3 5.1-5.1 5.1Z" fill="#fff"/><path d="m279.7 49.9-1.1.7h-.1c-.1 0-.2-.1-.2-.1-.1-.1 0-.3.1-.4l1.5-.9c.1-.1.3 0 .4.1v7.4c0 .1-.1.3-.3.3-.1 0-.3-.1-.3-.3v-6.8Zm2.4 6.5 3.7-3.3c.4-.4.7-.9.7-1.5 0-.5-.2-1-.5-1.3-.4-.4-.9-.7-1.5-.7-.5 0-1 .2-1.4.5l-.4.3c-.1.1-.3.1-.4 0-.1-.1-.1-.3 0-.4l.4-.4c.5-.4 1.1-.7 1.7-.7.7 0 1.4.3 1.9.8s.7 1.1.7 1.7c0 .7-.3 1.4-.8 1.9l-3.1 2.8h3.7c.1 0 .3.1.3.3 0 .1-.1.3-.3.3h-4.4c-.1 0-.2 0-.2-.1-.2.1-.2-.1-.1-.2Zm11.4-6.9-2 2.1c.5.1 1 .3 1.3.7.5.5.8 1.2.8 1.9a2.732 2.732 0 0 1-2.7 2.7c-.7 0-1.4-.3-1.9-.8-.1-.1-.1-.3 0-.4.1-.1.3-.1.4 0 .4.4.9.6 1.5.6.5 0 1.1-.2 1.5-.6.4-.4.6-1 .6-1.5s-.2-1.1-.6-1.5c-.4-.4-.9-.6-1.5-.6-.1 0-.2 0-.2-.1-.1-.1-.1-.3 0-.4l1.9-2h-3c-.2 0-.3-.1-.3-.3 0-.2.1-.3.3-.3h3.7c.2 0 .3.1.3.3 0 0-.1.1-.1.2Zm6.6 5.7h-4.2c-.1 0-.1 0-.2-.1s-.1-.3 0-.4l4.5-5.7c.1-.1.3-.1.4 0l.1.1v5.4h.5c.2 0 .3.1.3.3 0 .1-.1.3-.3.3h-.5v1.3c0 .1-.1.3-.3.3-.1 0-.3-.1-.3-.3v-1.2Zm0-.5v-4.6l-3.7 4.6h3.7Zm9.8 1.3c-.1-.1-.1-.3 0-.4.1-.1.3-.1.4 0 .4.4.9.6 1.5.6.5 0 1.1-.2 1.5-.6.4-.4.6-.9.6-1.5 0-.5-.2-1.1-.6-1.5-.4-.4-.9-.6-1.5-.6-.5 0-1.1.2-1.5.6-.1.1-.3.1-.4 0l-.1-.1v-.2l.4-3.2c0-.1 0-.2.1-.2 0 0 .1-.1.2-.1h3.7c.2 0 .3.1.3.3 0 .2-.1.3-.3.3h-3.4l-.3 2.3c.4-.2.9-.4 1.3-.4.7 0 1.4.2 1.9.8.5.5.8 1.2.8 1.9s-.2 1.4-.8 1.9c-.5.5-1.2.8-1.9.8-.7.1-1.4-.1-1.9-.7Zm7.4-5.3c.5-1 1.4-1.7 2.7-1.7.1 0 .3.1.3.3 0 .2-.1.3-.3.3-1.1 0-1.8.6-2.3 1.4-.3.5-.4 1-.6 1.6.5-.5 1.2-.9 1.9-.9 1.4 0 2.6 1.2 2.6 2.6 0 1.4-1.1 2.6-2.6 2.6-1.4 0-2.5-1.1-2.6-2.5v-.5c.2-1.2.4-2.3.9-3.2Zm-.1 3.6v.2c.1 1 1 1.8 2 1.8 1.1 0 2.1-.9 2.1-2s-.9-2-2.1-2c-1.1-.1-2 .8-2 2Zm7.5 2.1 2.9-6.9h-3.8c-.1 0-.3-.1-.3-.3 0-.1.1-.3.3-.3h4.3c.1 0 .1.1.1.2v.2l-3 7.2c0 .1-.1.2-.2.2h-.1c-.2 0-.3-.2-.2-.3Zm7.7-7.5c.9 0 1.6.7 1.6 1.6 0 .5-.3 1-.7 1.3.9.4 1.6 1.3 1.6 2.3 0 1.4-1.1 2.5-2.5 2.5s-2.5-1.1-2.5-2.5c0-1.1.6-2 1.6-2.4-.4-.3-.7-.8-.7-1.3 0-.7.7-1.5 1.6-1.5Zm0 7.3c1.1 0 2-.9 2-2s-.9-2-2-2-2 .9-2 2 .9 2 2 2Zm0-4.5c.6 0 1.1-.5 1.1-1.1 0-.6-.5-1.1-1.1-1.1-.6 0-1.1.5-1.1 1.1 0 .6.5 1 1.1 1.1Zm13.9-2.8c1.3 0 2.4 1 2.6 2.3v.8c0 1-.2 2.2-.7 3.1-.5.9-1.5 1.7-2.7 1.7-.2 0-.3-.1-.3-.3 0-.2.1-.3.3-.3 1.1 0 1.8-.6 2.3-1.4.3-.5.5-1 .6-1.6-.5.5-1.2.9-1.9.9-1.4 0-2.6-1.1-2.6-2.6-.2-1.5 1-2.6 2.4-2.6Zm2.1 2.6c0-1.1-.9-2-2.1-2-1.1 0-2 .9-2 2s.9 2 2 2c1.2 0 2.1-.9 2.1-2Zm2.5 1.3c0-1.1.3-2 .7-2.7.5-.7 1.2-1.2 2-1.2s1.5.5 2 1.2.8 1.7.8 2.7c0 1.1-.3 2-.8 2.7-.5.7-1.2 1.2-2 1.2s-1.5-.5-2-1.2c-.4-.7-.7-1.7-.7-2.7Zm.6 0c0 1 .3 1.8.7 2.4.4.6.9.9 1.5.9s1.1-.3 1.5-.9c.4-.6.7-1.5.7-2.4 0-1-.3-1.8-.7-2.4-.4-.6-.9-.9-1.5-.9s-1.1.3-1.5.9c-.5.6-.7 1.4-.7 2.4Zm8.5-3.2-1.1.7h-.1c-.1 0-.2-.1-.2-.1-.1-.1 0-.3.1-.4l1.5-.9c.1-.1.3 0 .4.1v7.4c0 .1-.1.3-.3.3-.1 0-.3-.1-.3-.3v-6.8Zm2.4 6.6 3.7-3.3c.4-.4.7-.9.7-1.5 0-.5-.2-1-.5-1.3-.4-.4-.9-.7-1.5-.7-.5 0-1 .2-1.4.5l-.4.3c-.1.1-.3.1-.4 0-.1-.1-.1-.3 0-.4l.4-.4c.5-.4 1.1-.7 1.7-.7.7 0 1.4.3 1.9.8s.7 1.1.7 1.7c0 .7-.3 1.4-.8 1.9l-3.1 2.8h3.7c.1 0 .3.1.3.3 0 .1-.1.3-.3.3h-4.4c-.1 0-.2 0-.2-.1-.2.1-.2-.1-.1-.2Zm18.1-6.9-2 2.1c.5.1 1 .3 1.3.7.5.5.8 1.2.8 1.9a2.732 2.732 0 0 1-2.7 2.7c-.7 0-1.4-.3-1.9-.8-.1-.1-.1-.3 0-.4.1-.1.3-.1.4 0 .4.4.9.6 1.5.6.5 0 1.1-.2 1.5-.6.4-.4.6-1 .6-1.5s-.2-1.1-.6-1.5c-.4-.4-.9-.6-1.5-.6-.1 0-.2 0-.2-.1-.1-.1-.1-.3 0-.4l1.9-2h-3c-.2 0-.3-.1-.3-.3 0-.2.1-.3.3-.3h3.7c.2 0 .3.1.3.3 0 0 0 .1-.1.2 0-.1 0 0 0 0Zm6.6 5.7h-4.2c-.1 0-.1 0-.2-.1s-.1-.3 0-.4l4.5-5.7c.1-.1.3-.1.4 0l.1.1v5.4h.5c.2 0 .3.1.3.3 0 .1-.1.3-.3.3h-.5v1.3c0 .1-.1.3-.3.3-.1 0-.3-.1-.3-.3V55Zm0-.5v-4.6l-3.7 4.6h3.7Zm3.1 1.3c-.1-.1-.1-.3 0-.4.1-.1.3-.1.4 0 .4.4.9.6 1.5.6.5 0 1.1-.2 1.5-.6.4-.4.6-.9.6-1.5 0-.5-.2-1.1-.6-1.5-.4-.4-.9-.6-1.5-.6-.5 0-1.1.2-1.5.6-.1.1-.3.1-.4 0l-.1-.1v-.2l.4-3.2c0-.1 0-.2.1-.2 0 0 .1-.1.2-.1h3.7c.2 0 .3.1.3.3 0 .2-.1.3-.3.3h-3.4l-.3 2.3c.4-.2.9-.4 1.3-.4.7 0 1.4.2 1.9.8.5.5.8 1.2.8 1.9s-.2 1.4-.8 1.9c-.5.5-1.2.8-1.9.8-.7.1-1.4-.1-1.9-.7Zm7.4-5.3c.5-1 1.4-1.7 2.7-1.7.1 0 .3.1.3.3 0 .2-.1.3-.3.3-1.1 0-1.8.6-2.3 1.4-.3.5-.4 1-.6 1.6.5-.5 1.2-.9 1.9-.9 1.4 0 2.6 1.2 2.6 2.6 0 1.4-1.1 2.6-2.6 2.6-1.4 0-2.5-1.1-2.6-2.5v-.5c.2-1.2.4-2.3.9-3.2Zm-.1 3.6v.2c.1 1 1 1.8 2 1.8 1.1 0 2.1-.9 2.1-2s-.9-2-2.1-2c-1.1-.1-2 .8-2 2Z" fill="#F8F8F8"/><path d="m349.097 70.212-68.4.177.009 3.4 68.4-.177-.009-3.4Zm-20 7.426-48.4.125.008 3.4 48.4-.125-.008-3.4Zm44.6-63.782-34.1.088.009 3.4 34.1-.088-.009-3.4Z" fill="#A6A6A6"/><path d="M415.2 171.1h-33.9c-11.046 0-20 8.954-20 20V225c0 11.046 8.954 20 20 20h33.9c11.046 0 20-8.954 20-20v-33.9c0-11.046-8.954-20-20-20Z" fill="var(--color-secondary)"/><path d="M399.5 183c1.4 0 2.5 1.1 2.5 2.5v1.3c3.4.4 6.4 1.5 9.1 3.2.9.5 1.8 1.4 1.8 2.8 0 1.8-1.5 3.2-3.3 3.2-.6 0-1.2-.2-1.8-.5-2-1.2-4-2.1-6-2.6v11.2c8.9 2.2 12.7 5.8 12.7 12 0 6.4-5 10.7-12.4 11.4v3.5c0 1.4-1.1 2.5-2.5 2.5s-2.6-1.1-2.6-2.5v-3.6c-4.4-.5-8.4-2-12-4.6-1-.6-1.6-1.6-1.6-2.8 0-1.8 1.4-3.2 3.2-3.2.7 0 1.4.2 1.9.6 2.7 2 5.4 3.3 8.6 3.9v-11.5c-8.5-2.2-12.5-5.4-12.5-12 0-6.3 5-10.6 12.3-11.2v-1.2c0-1.3 1.2-2.4 2.6-2.4Zm-2.4 19.9v-10.3c-3.7.4-5.6 2.3-5.6 4.9 0 2.4 1.2 3.9 5.6 5.4Zm4.7 8.1v10.6c3.7-.4 5.8-2.3 5.8-5.1-.1-2.5-1.3-4.1-5.8-5.5Z" fill="#fff"/><path d="M73.3 108.5H39.4c-11.046 0-20 8.954-20 20v33.9c0 11.046 8.954 20 20 20h33.9c11.046 0 20-8.954 20-20v-33.9c0-11.046-8.954-20-20-20Z" fill="var(--color-secondary)"/><path d="M72.7 160.1H38.2l-8.5-30.6h48.5l1.8-7.1h5.5v2h-3.9l-8.9 35.7Zm-32.9-2h31.4l6.6-26.6H32.5l7.3 26.6Z" fill="#fff"/><path d="m43.1 166.2-1.9-.8 3.1-7.3h23.5l2.5 7.4-1.9.6-2.1-6H45.7l-2.6 6.1Zm34.2-29.7h-44v2h44v-2Zm-2.404 7.414-39.8.175.009 2 39.8-.175-.009-2ZM73.3 151.7H37.2v2h36.1v-2Z" fill="#fff"/><path d="M56.7 130.7h-2v28.5h2v-28.5Zm-7.747-.135-1.993.16 2.286 28.509 1.993-.16-2.285-28.509Zm-8.591-.114-1.967.362 5.246 28.521 1.967-.361-5.246-28.522Zm22.004.138-2.292 28.509 1.994.16 2.291-28.508-1.993-.161Zm8.615-.176-5.24 28.521 1.967.362 5.24-28.522-1.967-.361ZM42.2 170.1c-2.4 0-4.3-1.9-4.3-4.3s1.9-4.3 4.3-4.3 4.3 1.9 4.3 4.3-2 4.3-4.3 4.3Zm0-6.6c-1.3 0-2.3 1-2.3 2.3 0 1.3 1 2.3 2.3 2.3 1.3 0 2.3-1 2.3-2.3 0-1.3-1.1-2.3-2.3-2.3Zm27.1 6.6c-2.4 0-4.3-1.9-4.3-4.3s1.9-4.3 4.3-4.3 4.3 1.9 4.3 4.3-1.9 4.3-4.3 4.3Zm0-6.6c-1.3 0-2.3 1-2.3 2.3 0 1.3 1 2.3 2.3 2.3 1.3 0 2.3-1 2.3-2.3 0-1.3-1.1-2.3-2.3-2.3Z" fill="#fff"/><path d="M242.5 419.5c101.289 0 183.4-10.879 183.4-24.3 0-13.42-82.111-24.3-183.4-24.3S59.1 381.78 59.1 395.2c0 13.421 82.111 24.3 183.4 24.3Z" fill="var(--color-primary)"/><path d="M54.4 392.7c29.382 0 53.2-4.567 53.2-10.2 0-5.633-23.818-10.2-53.2-10.2-29.381 0-53.2 4.567-53.2 10.2 0 5.633 23.819 10.2 53.2 10.2Z" fill="var(--color-primary)"/><path d="M260 21.3H99.6c-9 0-16.2 7.4-16.2 16.5V368c0 9.1 7.3 16.5 16.2 16.5H260c9 0 16.2-7.4 16.2-16.5V37.8c0-9.1-7.2-16.5-16.2-16.5Zm6.1 336.5c0 8.7-6.5 15.7-14.5 15.7H108.1c-8 0-14.6-7-14.6-15.7V50.4c0-17.7 6.5-18.6 14.6-18.6h28.7c1.7 0 3 1.9 3 4.3v1c0 5.5 3 5.5 6.7 5.5H213c3.7 0 6.7 0 6.7-5.5v-1c0-2.4 1.3-4.3 3-4.3h28.7c8 0 14.5 2.3 14.5 18.6v307.4h.2Z" fill="#263238"/><path d="M266.1 53.4v304.4c0 8.7-6.5 15.7-14.5 15.7H108.1c-8 0-14.6-7-14.6-15.7V53.4c0-17.7 6.5-21.6 14.6-21.6h28.7c1.7 0 3 1.9 3 4.3v1c0 5.5 3 5.5 6.7 5.5H213c3.7 0 6.7 0 6.7-5.5v-1c0-2.4 1.3-4.3 3-4.3h28.7c8.2 0 14.7 5.4 14.7 21.6Z" fill="#fff"/><path d="M188.9 35.7h-18.1c-.6 0-1.1-.5-1.1-1.1 0-.6.5-1.1 1.1-1.1h18.1c.6 0 1.1.5 1.1 1.1 0 .6-.5 1.1-1.1 1.1Z" fill="#fff"/><path d="M189 202.6h-20.9v2.7H189v-2.7Z" fill="#C7C7C7"/><path d="M140.4 74h-28a8 8 0 0 0-8 8v28a8 8 0 0 0 8 8h28a8 8 0 0 0 8-8V82a8 8 0 0 0-8-8Z" fill="#FFD8D0"/><path d="m131.1 101.7-5.8-1.9s-3 2.3-5-1.6c0 0-4.5 1.3-6-3.4 0 0-5.5-1.7-3.9-4.9 1.6-3.1 6 .2 6 .2s4.4-.4 5.9 4.1c0 0 4.2 0 4.2 3.9l4.6 3.6Z" fill="#263238"/><path d="M113 91.1c1.6.8 3.1 1.6 4.6 2.5 1.5.8 3.1 1.7 4.6 2.6l4.5 2.7c1.5.9 3 1.8 4.4 2.9l-1.1-.8-1.1-.7-2.3-1.3-4.5-2.6-4.5-2.6c-1.6-.9-3.1-1.8-4.6-2.7Z" fill="#fff"/><path d="m131.4 101.5.1-6.1s3.1-2.1.1-5.2c0 0 2.7-3.8-1.3-6.7 0 0 .2-5.8-3.3-5.3s-1.8 5.7-1.8 5.7-1.8 4 2 7c0 0-1.4 4 2.3 5.2l1.9 5.4Z" fill="#263238"/><path d="M127.3 80.9c.4 1.7.7 3.4 1 5.1l1 5.2 1 5.2.5 2.6.3 1.3.3 1.3c-.5-1.7-.9-3.4-1.3-5.1-.4-1.7-.7-3.4-1.1-5.1-.3-1.7-.7-3.4-1-5.2-.2-1.8-.4-3.6-.7-5.3Z" fill="#fff"/><path d="m131.8 102.4-5.7-5.9s-4.8 1.2-5.2-4.5c0 0-6.2-.8-5.4-7.3 0 0-5.8-5-2.2-8 3.6-2.9 7.2 3.4 7.2 3.4s5.5 1.9 5 8.1c0 0 5.1 2.2 3.1 6.9l3.2 7.3Z" fill="#455A64"/><path d="M117 79.9c1.4 1.7 2.8 3.5 4.1 5.4.3.5.7.9 1 1.4l1 1.4c.3.5.6.9.9 1.4.3.5.6.9.9 1.4.6.9 1.2 1.9 1.8 2.8l.9 1.4.4.7.4.7c1.2 1.9 2.2 3.9 3.3 5.9l-.4-.7-.4-.7-.4-.7-.4-.7-.9-1.4-.9-1.4-3.6-5.7c-.6-.9-1.2-1.9-1.9-2.8l-.9-1.4-1-1.4c-.6-.9-1.3-1.8-1.9-2.8-.7-1-1.4-1.9-2-2.8Z" fill="#fff"/><path d="M140.9 102.3c.1.1.2.3.3.4 2.8 4.4-.9 7.8-1 9.4-.1 1.6 1.1 2.6.4 3.2-.7.5-1.3-1-2.9-1.4-1.2-.3-4.4 1.1-7.2-.4-.2-.1-.5-.3-.7-.4-.5-.3-.9-.7-1.3-1.3-.1-.1-.2-.3-.3-.4l-.2-.2c-1.2-1.8-1.7-3.5-1.6-5 0-.3.1-.7.1-1 .4-2 1.6-3.6 3.3-4.8 2.7-1.9 6.3-2.4 9.2.1.2.2.4.3.6.5.4.4.7.8 1.1 1.2.1 0 .2 0 .2.1Z" fill="#fff"/><path d="m133.8 110.2.4.6-3.7 2.7c-.2-.1-.5-.3-.7-.4l4-2.9Zm-3.1-.9.4.6-2.6 1.8c-.1-.1-.2-.3-.3-.4l-.2-.2 2.7-1.8Zm10.2-7c.1.1.2.3.3.4l-2.6 1.8-.4-.6 2.6-1.8c0 .1.1.1.1.2Zm-1.2-1.4-1.8 1.3-.4-.6 1.7-1.2.5.5Zm-11.1 2.7.4.6-2.6 1.8c0-.3.1-.7.1-1l2.1-1.4Z" fill="#DBDBDB"/><path d="M118.3 121.6c.1 0 .2.1.2.2v.3c.6 0 1 .2 1.4.6.1.1.1.1.1.2s-.1.2-.2.2c0 0-.1 0-.1-.1-.4-.3-.8-.5-1.2-.5v2.2c1.2.3 1.7.7 1.7 1.5s-.7 1.4-1.7 1.5v.6c0 .1-.1.2-.2.2s-.2-.1-.2-.2v-.6c-.7-.1-1.3-.3-1.8-.8-.1 0-.1-.1-.1-.2s.1-.2.2-.2.1 0 .1.1c.4.4.9.7 1.6.7V125c-1.2-.3-1.7-.7-1.7-1.5s.7-1.4 1.7-1.4v-.3c.1-.2.1-.2.2-.2Zm-.1 3v-2.2c-.8 0-1.3.5-1.3 1.1 0 .5.2.8 1.3 1.1Zm.3.5v2.2c.8 0 1.3-.5 1.3-1.1 0-.6-.2-.9-1.3-1.1Zm2.8 2.2 2.6-2.4c.3-.3.5-.7.5-1.1 0-.3-.1-.7-.4-1-.3-.3-.7-.5-1.1-.5-.4 0-.7.1-1 .4l-.3.2c-.1.1-.2.1-.3 0-.1-.1-.1-.2 0-.3l.3-.3c.4-.3.8-.5 1.2-.5.5 0 1 .2 1.3.6.3.4.5.8.5 1.2 0 .5-.2 1-.6 1.4l-2.2 2h2.6c.1 0 .2.1.2.2s-.1.2-.2.2h-3.1c-.1 0-.1 0-.1-.1 0 .2 0 .1.1 0Zm5.3-.5c.2 0 .4.2.4.4s-.2.4-.4.4-.4-.2-.4-.4.2-.4.4-.4Zm1.4.3c-.1-.1-.1-.2 0-.3.1-.1.2-.1.3 0 .3.3.7.4 1.1.4.4 0 .8-.1 1.1-.4.3-.3.4-.7.4-1.1 0-.4-.1-.8-.4-1.1-.3-.3-.7-.4-1.1-.4-.4 0-.8.1-1.1.4-.1.1-.2.1-.3 0v-.2l.3-2.3c0-.1 0-.1.1-.1h2.7c.1 0 .2.1.2.2s-.1.2-.2.2h-2.4l-.2 1.7c.3-.2.6-.3 1-.3.5 0 1 .2 1.3.6.4.4.6.8.6 1.3s-.2 1-.6 1.3c-.4.4-.9.6-1.3.6-.7 0-1.2-.1-1.5-.5Zm4.8-2.3c0-.8.2-1.4.5-2 .3-.5.8-.8 1.4-.8.6 0 1.1.3 1.4.8.3.5.5 1.2.5 2s-.2 1.4-.5 2c-.3.5-.8.8-1.4.8-.6 0-1.1-.3-1.4-.8-.4-.5-.5-1.2-.5-2Zm.3 0c0 .7.2 1.3.5 1.7.3.4.7.7 1.1.7.4 0 .8-.2 1.1-.7.3-.4.5-1 .5-1.7s-.2-1.3-.5-1.7c-.3-.4-.7-.7-1.1-.7-.4 0-.8.2-1.1.7-.3.4-.5 1.1-.5 1.7Z" fill="#A6A6A6"/><path d="M192.4 74h-28a8 8 0 0 0-8 8v28a8 8 0 0 0 8 8h28a8 8 0 0 0 8-8V82a8 8 0 0 0-8-8Z" fill="#FFD8D0"/><path d="M186.1 101.9c5.6 5.7 11.2 11.6 11.2 11.6-.3 1.5-2 1.9-2 1.9s-5.8-5.9-11.3-11.4l-.6-.6-.4-.4-1.2-1.2-.4-.4c-.8-.8-1.6-1.6-2.3-2.4l-.4-.4c-2.3-2.3-4-4-4.5-4.6-2.5-2.6-14.8-7.9-14.8-7.9s-1-.7.3-2.4c0 0 4.8 2.3 9.2 4.5l-10.4-6.6s-.1-1 .9-1.8l5.9 3.9-5.3-5.1s.1-.8 1.6-1.5l9.2 9.5-6.5-8.6s.7-.9 1.6-1.2c0 0 4 6.1 9.7 13.6l-5.9-10.1s.5-.7 1.6-.8c0 0 4.7 11.1 9.6 16.8.1.1.2.3.4.4.2.2.4.4.5.6l1.8 1.8.4.4 1.2 1.2.4.4c.1.4.3.6.5.8Z" fill="#fff"/><path d="M171.2 79.8s4.7 11.1 9.6 16.8l-2.1 2c-2.3-2.3-4-4-4.5-4.6-2.5-2.6-14.8-7.9-14.8-7.9s-1-.7.3-2.4c0 0 4.8 2.3 9.2 4.5l-10.4-6.6s-.1-1 .9-1.8l5.9 3.9-5.3-5.1s.1-.8 1.6-1.5l9.2 9.5-6.5-8.6s.7-.9 1.6-1.2c0 0 4 6.1 9.7 13.6l-5.9-10.1c-.1.3.3-.4 1.5-.5Zm12.3 19.6-2.1 2c-.8-.8-1.6-1.6-2.3-2.4l2.1-2c.2.2.4.4.5.6l1.8 1.8Zm1.6 1.5-2.1 2-1.2-1.2 2.1-2c.4.5.8.8 1.2 1.2Zm1 1-2.1 2-.6-.6 2.1-2 .6.6Z" fill="#455A64"/><path d="M170.8 121.6c.1 0 .2.1.2.2v.3c.6 0 1 .2 1.4.6.1.1.1.1.1.2s-.1.2-.2.2c0 0-.1 0-.1-.1-.4-.3-.8-.5-1.2-.5v2.2c1.2.3 1.7.7 1.7 1.5s-.7 1.4-1.7 1.5v.6c0 .1-.1.2-.2.2s-.2-.1-.2-.2v-.6c-.7-.1-1.3-.3-1.8-.8-.1 0-.1-.1-.1-.2s.1-.2.2-.2.1 0 .1.1c.4.4.9.7 1.6.7V125c-1.2-.3-1.7-.7-1.7-1.5s.7-1.4 1.7-1.4v-.3c0-.2 0-.2.2-.2Zm-.2 3v-2.2c-.8 0-1.3.5-1.3 1.1 0 .5.2.8 1.3 1.1Zm.3.5v2.2c.8 0 1.3-.5 1.3-1.1 0-.6-.2-.9-1.3-1.1Zm3.7-2.5-.8.5h-.1c-.1 0-.1 0-.2-.1s0-.2.1-.3l1.1-.7c.1 0 .2 0 .3.1v5.2c0 .1-.1.2-.2.2s-.2-.1-.2-.2v-4.7Zm2.4 4.2c.2 0 .4.2.4.4s-.2.4-.4.4-.4-.2-.4-.4.2-.4.4-.4Zm1.1-2c0-.8.2-1.4.5-2 .3-.5.8-.8 1.4-.8.6 0 1.1.3 1.4.8.3.5.5 1.2.5 2s-.2 1.4-.5 2c-.3.5-.8.8-1.4.8-.6 0-1.1-.3-1.4-.8-.3-.5-.5-1.2-.5-2Zm.4 0c0 .7.2 1.3.5 1.7.3.4.7.7 1.1.7.4 0 .8-.2 1.1-.7.3-.4.5-1 .5-1.7s-.2-1.3-.5-1.7c-.3-.4-.7-.7-1.1-.7-.4 0-.8.2-1.1.7-.3.4-.5 1.1-.5 1.7Zm5.3 0c0-.8.2-1.4.5-2 .3-.5.8-.8 1.4-.8.6 0 1.1.3 1.4.8.3.5.5 1.2.5 2s-.2 1.4-.5 2c-.3.5-.8.8-1.4.8-.6 0-1.1-.3-1.4-.8-.3-.5-.5-1.2-.5-2Zm.4 0c0 .7.2 1.3.5 1.7.3.4.7.7 1.1.7.4 0 .8-.2 1.1-.7.3-.4.5-1 .5-1.7s-.2-1.3-.5-1.7c-.3-.4-.7-.7-1.1-.7-.4 0-.8.2-1.1.7-.3.4-.5 1.1-.5 1.7Z" fill="#A6A6A6"/><path d="M244.3 74h-28a8 8 0 0 0-8 8v28a8 8 0 0 0 8 8h28a8 8 0 0 0 8-8V82a8 8 0 0 0-8-8Z" fill="#FFD8D0"/><path d="M217.2 101.3c3.4 11.2 14 9.8 17 8.9 3-.9 12.5-5.6 9.1-16.9-3.4-11.2-14.7-8.6-16.7-8-2.3.7-12.8 4.8-9.4 16Z" fill="#fff"/><path d="M227.6 86.9s.5 4.2 7.9 1.7c-.1 0-5.1-5.4-7.9-1.7Z" fill="#455A64"/><path d="M228.3 88.6s3.5.2 2.5-6.1c0 0-5 3.3-2.5 6.1Z" fill="#455A64"/><path d="M228 87.5s-1.2 3.3-6.6-.2c0 0 5.1-3.3 6.6.2Z" fill="#455A64"/><path d="M227.8 86.7s-3.2 2.7 3 7.5c0-.1 1.6-7.2-3-7.5Z" fill="#455A64"/><path d="M227.4 87.3s-4.7-1.3-4.1 6.7c.1 0 7.2-2.5 4.1-6.7Z" fill="#455A64"/><path d="M228.2 88.3s.6-4.2-2.9-7.1c0 0-2 0-2.5 2.1 0 0 4 2.2 4.3 5.9l.9-.6" fill="#263238"/><path d="M222.8 121.6c.1 0 .2.1.2.2v.3c.6 0 1 .2 1.4.6.1.1.1.1.1.2s-.1.2-.2.2c0 0-.1 0-.1-.1-.4-.3-.8-.5-1.2-.5v2.2c1.2.3 1.7.7 1.7 1.5s-.7 1.4-1.7 1.5v.6c0 .1-.1.2-.2.2s-.2-.1-.2-.2v-.6c-.7-.1-1.3-.3-1.8-.8-.1 0-.1-.1-.1-.2s.1-.2.2-.2.1 0 .1.1c.4.4.9.7 1.6.7V125c-1.2-.3-1.7-.7-1.7-1.5s.7-1.4 1.7-1.4v-.3c0-.2.1-.2.2-.2Zm-.2 3v-2.2c-.8 0-1.3.5-1.3 1.1.1.5.3.8 1.3 1.1Zm.4.5v2.2c.8 0 1.3-.5 1.3-1.1 0-.6-.3-.9-1.3-1.1Zm3.7-2.5-.8.5h-.1c-.1 0-.1 0-.2-.1s0-.2.1-.3l1.1-.7c.1 0 .2 0 .3.1v5.2c0 .1-.1.2-.2.2s-.2-.1-.2-.2v-4.7Zm2.3 4.2c.2 0 .4.2.4.4s-.2.4-.4.4-.4-.2-.4-.4.2-.4.4-.4Zm1.4.3c-.1-.1-.1-.2 0-.3.1-.1.2-.1.3 0 .3.3.7.4 1.1.4.4 0 .8-.1 1.1-.4.3-.3.4-.7.4-1.1 0-.4-.1-.8-.4-1.1-.3-.3-.7-.4-1.1-.4-.4 0-.8.1-1.1.4-.1.1-.2.1-.3 0v-.2l.3-2.3c0-.1 0-.1.1-.1h2.7c.1 0 .2.1.2.2s-.1.2-.2.2H231l-.2 1.7c.3-.2.6-.3 1-.3.5 0 1 .2 1.3.6.4.4.6.8.6 1.3s-.2 1-.6 1.3c-.4.4-.9.6-1.3.6-.6 0-1-.1-1.4-.5Zm4.8-2.3c0-.8.2-1.4.5-2 .3-.5.8-.8 1.4-.8.6 0 1.1.3 1.4.8.3.5.5 1.2.5 2s-.2 1.4-.5 2c-.3.5-.8.8-1.4.8-.6 0-1.1-.3-1.4-.8-.3-.5-.5-1.2-.5-2Zm.4 0c0 .7.2 1.3.5 1.7.3.4.7.7 1.1.7.4 0 .8-.2 1.1-.7.3-.4.5-1 .5-1.7s-.2-1.3-.5-1.7c-.3-.4-.7-.7-1.1-.7-.4 0-.8.2-1.1.7-.3.4-.5 1.1-.5 1.7Z" fill="#A6A6A6"/><path d="M140.4 138.2h-28a8 8 0 0 0-8 8v28a8 8 0 0 0 8 8h28a8 8 0 0 0 8-8v-28a8 8 0 0 0-8-8Z" fill="#FFD8D0"/><path d="M138.6 156.4v21.7c0 1.3-2.7 2.1-11.8 2.1-9.1 0-11.7-.8-11.7-2.1v-21.7c0-5.8 6.4-9.5 6.4-10.7v-4.4h10.7v4.4c0 1.2 6.4 4.9 6.4 10.7Z" fill="#fff"/><path d="M132.9 139.4h-12v3.7h12v-3.7Zm5.7 22.8h-23.5v11.7h23.5v-11.7Z" fill="#37474F"/><path d="M117.9 186.1c.1 0 .2.1.2.2v.3c.6 0 1 .2 1.4.6.1.1.1.1.1.2s-.1.2-.2.2c0 0-.1 0-.1-.1-.4-.3-.8-.5-1.2-.5v2.2c1.2.3 1.7.7 1.7 1.5s-.7 1.4-1.7 1.5v.6c0 .1-.1.2-.2.2s-.2-.1-.2-.2v-.6c-.7-.1-1.3-.3-1.8-.8-.1 0-.1-.1-.1-.2s.1-.2.2-.2.1 0 .1.1c.4.4.9.7 1.6.7v-2.3c-1.2-.3-1.7-.7-1.7-1.5s.7-1.4 1.7-1.4v-.3c0-.1.1-.2.2-.2Zm-.1 3v-2.2c-.8 0-1.3.5-1.3 1.1 0 .5.2.9 1.3 1.1Zm.3.5v2.2c.8 0 1.3-.5 1.3-1.1 0-.5-.3-.9-1.3-1.1Zm6.1-2.7-1.4 1.5c.4.1.7.2 1 .5.4.4.6.9.6 1.3 0 .5-.2 1-.6 1.3-.4.4-.9.6-1.3.6-.5 0-1-.2-1.3-.6-.1-.1-.1-.2 0-.3.1-.1.2-.1.3 0 .3.3.7.4 1.1.4.4 0 .8-.1 1.1-.4.3-.3.4-.7.4-1.1 0-.4-.1-.8-.4-1.1-.3-.3-.7-.4-1.1-.4-.1 0-.1 0-.2-.1s-.1-.2 0-.3l1.4-1.4h-2.1c-.1 0-.2-.1-.2-.2s.1-.2.2-.2h2.6c.1 0 .2.1.2.2l-.3.3c.1 0 .1 0 0 0Zm2.2 4.5c.2 0 .4.2.4.4s-.2.4-.4.4-.4-.2-.4-.4c0-.3.1-.4.4-.4Zm1.1-2c0-.8.2-1.4.5-2 .3-.5.8-.8 1.4-.8.6 0 1.1.3 1.4.8.3.5.5 1.2.5 2s-.2 1.4-.5 2c-.3.5-.8.8-1.4.8-.6 0-1.1-.3-1.4-.8-.3-.6-.5-1.3-.5-2Zm.4 0c0 .7.2 1.3.5 1.7.3.4.7.7 1.1.7.4 0 .8-.2 1.1-.7.3-.4.5-1 .5-1.7s-.2-1.3-.5-1.7c-.3-.4-.7-.7-1.1-.7-.4 0-.8.2-1.1.7-.3.4-.5 1-.5 1.7Zm5.3 0c0-.8.2-1.4.5-2 .3-.5.8-.8 1.4-.8.6 0 1.1.3 1.4.8.3.5.5 1.2.5 2s-.2 1.4-.5 2c-.3.5-.8.8-1.4.8-.6 0-1.1-.3-1.4-.8-.3-.6-.5-1.3-.5-2Zm.4 0c0 .7.2 1.3.5 1.7.3.4.7.7 1.1.7.4 0 .8-.2 1.1-.7.3-.4.5-1 .5-1.7s-.2-1.3-.5-1.7c-.3-.4-.7-.7-1.1-.7-.4 0-.8.2-1.1.7-.3.4-.5 1-.5 1.7Z" fill="#A6A6A6"/><path d="M192.4 138.2h-28a8 8 0 0 0-8 8v28a8 8 0 0 0 8 8h28a8 8 0 0 0 8-8v-28a8 8 0 0 0-8-8Z" fill="#FFD8D0"/><path d="M187.7 147.7h-18.3v32.5h18.3v-32.5Z" fill="#fff"/><path d="M187.7 147.7h-18.3v32.5h18.3v-32.5Z" fill="#fff"/><path d="M187.7 159.7h-18.3v13.7h18.3v-13.7Z" fill="#455A64"/><path d="M187.7 147.7h-18.3l2.3-4.5h13.8l2.2 4.5Z" fill="#fff"/><path d="M187.7 147.7h-18.3l2.3-4.5h13.8l2.2 4.5Z" fill="#DBDBDB"/><path d="M185.4 139.4h-13.8v3.8h13.8v-3.8Z" fill="#fff"/><path d="M170.1 186.1c.1 0 .2.1.2.2v.3c.6 0 1 .2 1.4.6.1.1.1.1.1.2s-.1.2-.2.2c0 0-.1 0-.1-.1-.4-.3-.8-.5-1.2-.5v2.2c1.2.3 1.7.7 1.7 1.5s-.7 1.4-1.7 1.5v.6c0 .1-.1.2-.2.2s-.2-.1-.2-.2v-.6c-.7-.1-1.3-.3-1.8-.8-.1 0-.1-.1-.1-.2s.1-.2.2-.2.1 0 .1.1c.4.4.9.7 1.6.7v-2.3c-1.2-.3-1.7-.7-1.7-1.5s.7-1.4 1.7-1.4v-.3c0-.1.1-.2.2-.2Zm-.2 3v-2.2c-.8 0-1.3.5-1.3 1.1 0 .5.3.9 1.3 1.1Zm.3.5v2.2c.8 0 1.3-.5 1.3-1.1.1-.5-.2-.9-1.3-1.1Zm2.8 2.2 2.6-2.4c.3-.3.5-.7.5-1.1 0-.3-.1-.7-.4-1-.3-.3-.7-.5-1.1-.5-.4 0-.7.1-1 .4l-.3.2c-.1.1-.2.1-.3 0-.1-.1-.1-.2 0-.3l.3-.3c.4-.3.8-.5 1.2-.5.5 0 1 .2 1.3.6.3.4.5.8.5 1.2 0 .5-.2 1-.6 1.4l-2.2 2h2.6c.1 0 .2.1.2.2s-.1.2-.2.2H173c-.1 0-.1 0-.1-.1 0 .2 0 .1.1 0Zm5.3-.4c.2 0 .4.2.4.4s-.2.4-.4.4-.4-.2-.4-.4c0-.3.2-.4.4-.4Zm1.4.2c-.1-.1-.1-.2 0-.3.1-.1.2-.1.3 0 .3.3.7.4 1.1.4.4 0 .8-.1 1.1-.4.3-.3.4-.7.4-1.1 0-.4-.1-.8-.4-1.1-.3-.3-.7-.4-1.1-.4-.4 0-.8.1-1.1.4-.1.1-.2.1-.3 0v-.2l.3-2.3c0-.1 0-.1.1-.1h2.7c.1 0 .2.1.2.2s-.1.2-.2.2h-2.4l-.2 1.7c.3-.2.6-.3 1-.3.5 0 1 .2 1.3.6.4.4.6.8.6 1.3s-.2 1-.6 1.3c-.4.4-.9.6-1.3.6-.7.1-1.2-.1-1.5-.5Zm4.8-2.2c0-.8.2-1.4.5-2 .3-.5.8-.8 1.4-.8.6 0 1.1.3 1.4.8.3.5.5 1.2.5 2s-.2 1.4-.5 2c-.3.5-.8.8-1.4.8-.6 0-1.1-.3-1.4-.8-.3-.6-.5-1.3-.5-2Zm.4 0c0 .7.2 1.3.5 1.7.3.4.7.7 1.1.7.4 0 .8-.2 1.1-.7.3-.4.5-1 .5-1.7s-.2-1.3-.5-1.7c-.3-.4-.7-.7-1.1-.7-.4 0-.8.2-1.1.7-.3.4-.5 1-.5 1.7Z" fill="#A6A6A6"/><path d="M244.3 138.2h-28a8 8 0 0 0-8 8v28a8 8 0 0 0 8 8h28a8 8 0 0 0 8-8v-28a8 8 0 0 0-8-8Z" fill="#FFD8D0"/><path d="M238.8 156.4v21.7c0 1.3-1.9 2.1-8.5 2.1-6.5 0-8.5-.8-8.5-2.1v-21.7c0-5.8 4.6-9.5 4.6-10.7v-4.4h7.7v4.4c.1 1.2 4.7 4.9 4.7 10.7Z" fill="#fff"/><path d="M234.6 139.4H226v3.7h8.6v-3.7Z" fill="#455A64"/><path d="M236.3 163.8h-12.1v8.4h12.1v-8.4Z" fill="#DBDBDB"/><path d="M221.5 186.1c.1 0 .2.1.2.2v.3c.6 0 1 .2 1.4.6.1.1.1.1.1.2s-.1.2-.2.2c0 0-.1 0-.1-.1-.4-.3-.8-.5-1.2-.5v2.2c1.2.3 1.7.7 1.7 1.5s-.7 1.4-1.7 1.5v.6c0 .1-.1.2-.2.2s-.2-.1-.2-.2v-.6c-.7-.1-1.3-.3-1.8-.8-.1 0-.1-.1-.1-.2s.1-.2.2-.2.1 0 .1.1c.4.4.9.7 1.6.7v-2.3c-1.2-.3-1.7-.7-1.7-1.5s.7-1.4 1.7-1.4v-.3c0-.1.1-.2.2-.2Zm-.2 3v-2.2c-.8 0-1.3.5-1.3 1.1 0 .5.3.9 1.3 1.1Zm.3.5v2.2c.8 0 1.3-.5 1.3-1.1.1-.5-.2-.9-1.3-1.1Zm2.8 2.2 2.6-2.4c.3-.3.5-.7.5-1.1 0-.3-.1-.7-.4-1-.3-.3-.7-.5-1.1-.5-.4 0-.7.1-1 .4l-.3.2c-.1.1-.2.1-.3 0-.1-.1-.1-.2 0-.3l.3-.3c.4-.3.8-.5 1.2-.5.5 0 1 .2 1.3.6.3.4.5.8.5 1.2 0 .5-.2 1-.6 1.4l-2.2 2h2.6c.1 0 .2.1.2.2s-.1.2-.2.2h-3.1c-.1 0-.1 0-.1-.1 0 .2 0 .1.1 0Zm5.3-.4c.2 0 .4.2.4.4s-.2.4-.4.4-.4-.2-.4-.4c0-.3.2-.4.4-.4Zm1.2-2c0-.8.2-1.4.5-2 .3-.5.8-.8 1.4-.8.6 0 1.1.3 1.4.8.3.5.5 1.2.5 2s-.2 1.4-.5 2c-.3.5-.8.8-1.4.8-.6 0-1.1-.3-1.4-.8-.3-.6-.5-1.3-.5-2Zm.4 0c0 .7.2 1.3.5 1.7.3.4.7.7 1.1.7.4 0 .8-.2 1.1-.7.3-.4.5-1 .5-1.7s-.2-1.3-.5-1.7c-.3-.4-.7-.7-1.1-.7-.4 0-.8.2-1.1.7-.4.4-.5 1-.5 1.7Zm5.2 0c0-.8.2-1.4.5-2 .3-.5.8-.8 1.4-.8.6 0 1.1.3 1.4.8.3.5.5 1.2.5 2s-.2 1.4-.5 2c-.3.5-.8.8-1.4.8-.6 0-1.1-.3-1.4-.8-.3-.6-.5-1.3-.5-2Zm.4 0c0 .7.2 1.3.5 1.7.3.4.7.7 1.1.7.4 0 .8-.2 1.1-.7.3-.4.5-1 .5-1.7s-.2-1.3-.5-1.7c-.3-.4-.7-.7-1.1-.7-.4 0-.8.2-1.1.7-.3.4-.5 1-.5 1.7Z" fill="#A6A6A6"/><path d="M140.4 220.5h-28a8 8 0 0 0-8 8v28a8 8 0 0 0 8 8h28a8 8 0 0 0 8-8v-28a8 8 0 0 0-8-8Z" fill="#FFD8D0"/><path d="M116.2 243.2c0 7.7 3.1 19.8 3.5 19.8h12.9c.4 0 4.8-10.3 4.8-20.7 0-10.8-7.5-12.7-7.5-13.4v-4.3h-7.6v4.2c0 .8-6.1 4.8-6.1 14.4Zm14.5-10.8c3.7 0 6.7 10.1 4 11.1-3.8 1.4-7.4-11.1-4-11.1Z" fill="#fff"/><path d="M127.1 232.4c.2-2.6-5.5-2-7.9 6.5-1.8 6.4.2 19.7 6.6 19.7 7.6 0 8.1-11.2 7.6-11.7-.4-.5-7.2-2.9-6.3-14.5Z" fill="#EBEBEB"/><path d="M120.8 227h10.7l-.7-4.7h-9.3l-.7 4.7Z" fill="#455A64"/><path d="M117.9 270c.1 0 .2.1.2.2v.3c.6 0 1 .2 1.4.6.1.1.1.1.1.2s-.1.2-.2.2c0 0-.1 0-.1-.1-.4-.3-.8-.5-1.2-.5v2.2c1.2.3 1.7.7 1.7 1.5s-.7 1.4-1.7 1.5v.6c0 .1-.1.2-.2.2s-.2-.1-.2-.2v-.6c-.7-.1-1.3-.3-1.8-.8-.1 0-.1-.1-.1-.2s.1-.2.2-.2.1 0 .1.1c.4.4.9.7 1.6.7v-2.3c-1.2-.3-1.7-.7-1.7-1.5s.7-1.4 1.7-1.4v-.3c.1-.1.1-.2.2-.2Zm-.1 3.1v-2.2c-.8 0-1.3.5-1.3 1.1 0 .5.2.8 1.3 1.1Zm.3.5v2.2c.8 0 1.3-.5 1.3-1.1 0-.6-.2-.9-1.3-1.1Zm2.9 2c-.1-.1-.1-.2 0-.3.1-.1.2-.1.3 0 .3.3.7.4 1.1.4.4 0 .8-.1 1.1-.4.3-.3.4-.7.4-1.1 0-.4-.1-.8-.4-1.1-.3-.3-.7-.4-1.1-.4-.4 0-.8.1-1.1.4-.1.1-.2.1-.3 0v-.2l.3-2.3c0-.1 0-.1.1-.1h2.7c.1 0 .2.1.2.2s-.1.2-.2.2h-2.4l-.2 1.7c.3-.2.6-.3 1-.3.5 0 1 .2 1.3.6.4.4.6.8.6 1.3s-.2 1-.6 1.3c-.4.4-.9.6-1.3.6-.6 0-1.1-.1-1.5-.5Zm5.3-.3c.2 0 .4.2.4.4s-.2.4-.4.4-.4-.2-.4-.4.2-.4.4-.4Zm1.2-2c0-.8.2-1.4.5-2 .3-.5.8-.8 1.4-.8.6 0 1.1.3 1.4.8.3.5.5 1.2.5 2s-.2 1.4-.5 2c-.3.5-.8.8-1.4.8-.6 0-1.1-.3-1.4-.8-.3-.5-.5-1.2-.5-2Zm.4 0c0 .7.2 1.3.5 1.7.3.4.7.7 1.1.7.4 0 .8-.2 1.1-.7.3-.4.5-1 .5-1.7s-.2-1.3-.5-1.7c-.3-.4-.7-.7-1.1-.7-.4 0-.8.2-1.1.7-.3.4-.5 1.1-.5 1.7Zm5.3 0c0-.8.2-1.4.5-2 .3-.5.8-.8 1.4-.8.6 0 1.1.3 1.4.8.3.5.5 1.2.5 2s-.2 1.4-.5 2c-.3.5-.8.8-1.4.8-.6 0-1.1-.3-1.4-.8-.4-.5-.5-1.2-.5-2Zm.3 0c0 .7.2 1.3.5 1.7.3.4.7.7 1.1.7.4 0 .8-.2 1.1-.7.3-.4.5-1 .5-1.7s-.2-1.3-.5-1.7c-.3-.4-.7-.7-1.1-.7-.4 0-.8.2-1.1.7-.3.4-.5 1.1-.5 1.7Z" fill="#A6A6A6"/><path d="M192.4 220.5h-28a8 8 0 0 0-8 8v28a8 8 0 0 0 8 8h28a8 8 0 0 0 8-8v-28a8 8 0 0 0-8-8Z" fill="#FFD8D0"/><path d="M191.1 256.4h-25.3c-2.5 0-4.6-2-4.6-4.6v-15.3c0-2.5 2-4.6 4.6-4.6h25.3c2.5 0 4.6 2 4.6 4.6v15.3c0 2.5-2.1 4.6-4.6 4.6Z" fill="#fff"/><path d="M191.8 228.9h-26.6v3.1h26.6v-3.1Zm4 9h-34.6v12.6h34.6v-12.6Z" fill="#455A64"/><path d="M189 244.1c0 2.9-4.7 5.3-10.5 5.3S168 247 168 244.1s4.7-5.3 10.5-5.3 10.5 2.4 10.5 5.3Z" fill="#fff"/><path d="M169.8 270c.1 0 .2.1.2.2v.3c.6 0 1 .2 1.4.6.1.1.1.1.1.2s-.1.2-.2.2c0 0-.1 0-.1-.1-.4-.3-.8-.5-1.2-.5v2.2c1.2.3 1.7.7 1.7 1.5s-.7 1.4-1.7 1.5v.6c0 .1-.1.2-.2.2s-.2-.1-.2-.2v-.6c-.7-.1-1.3-.3-1.8-.8-.1 0-.1-.1-.1-.2s.1-.2.2-.2.1 0 .1.1c.4.4.9.7 1.6.7v-2.3c-1.2-.3-1.7-.7-1.7-1.5s.7-1.4 1.7-1.4v-.3c0-.1.1-.2.2-.2Zm-.2 3.1v-2.2c-.8 0-1.3.5-1.3 1.1 0 .5.3.8 1.3 1.1Zm.4.5v2.2c.8 0 1.3-.5 1.3-1.1 0-.6-.3-.9-1.3-1.1Zm5.9 1.4h-3.1c-.1-.1-.1-.2 0-.3l3.2-4c.1-.1.2-.1.3 0 0 0 0 .1.1.1v3.8h.4c.1 0 .2.1.2.2s-.1.2-.2.2h-.4v1c0 .1-.1.2-.2.2s-.2-.1-.2-.2v-1h-.1Zm0-.4v-3.3l-2.6 3.3h2.6Zm2.7.7c.2 0 .4.2.4.4s-.2.4-.4.4-.4-.2-.4-.4.2-.4.4-.4Zm1.4.3c-.1-.1-.1-.2 0-.3.1-.1.2-.1.3 0 .3.3.7.4 1.1.4.4 0 .8-.1 1.1-.4.3-.3.4-.7.4-1.1 0-.4-.1-.8-.4-1.1-.3-.3-.7-.4-1.1-.4-.4 0-.8.1-1.1.4-.1.1-.2.1-.3 0v-.2l.3-2.3c0-.1 0-.1.1-.1h2.7c.1 0 .2.1.2.2s-.1.2-.2.2h-2.4l-.2 1.7c.3-.2.6-.3 1-.3.5 0 1 .2 1.3.6.4.4.6.8.6 1.3s-.2 1-.6 1.3c-.4.4-.9.6-1.3.6-.7 0-1.2-.1-1.5-.5Zm4.8-2.3c0-.8.2-1.4.5-2 .3-.5.8-.8 1.4-.8.6 0 1.1.3 1.4.8.3.5.5 1.2.5 2s-.2 1.4-.5 2c-.3.5-.8.8-1.4.8-.6 0-1.1-.3-1.4-.8-.3-.5-.5-1.2-.5-2Zm.4 0c0 .7.2 1.3.5 1.7.3.4.7.7 1.1.7.4 0 .8-.2 1.1-.7.3-.4.5-1 .5-1.7s-.2-1.3-.5-1.7c-.3-.4-.7-.7-1.1-.7-.4 0-.8.2-1.1.7-.3.4-.5 1.1-.5 1.7Z" fill="#A6A6A6"/><path d="M244.3 220.5h-28a8 8 0 0 0-8 8v28a8 8 0 0 0 8 8h28a8 8 0 0 0 8-8v-28a8 8 0 0 0-8-8Z" fill="#FFD8D0"/><path d="M240.7 248.3V260h-20.9v-11.7c0-4.1.9-14.8 10.4-14.8 9.6 0 10.5 10.7 10.5 14.8Z" fill="#fff"/><path d="M241.3 261.6h-22.1c-.6 0-1.1-.5-1.1-1.1 0-.6.5-1.1 1.1-1.1h22.1c.6 0 1.1.5 1.1 1.1 0 .6-.5 1.1-1.1 1.1Zm-7.7-30.5H227v5h6.6v-5Z" fill="#fff"/><path d="M234.3 228.7h-8.1v3.3h8.1v-3.3Z" fill="#455A64"/><path d="M231.8 225.5h-3v3.8h3v-3.8Z" fill="#455A64"/><path d="M227.2 224.1c-.8.6-1.1 1.8.1 2.5 1 .6 6.3-.7 6.9-.7.6.1 1.9.7 2.1.7.2 0 .8-.3.7-.6 0-.3-1.8-1.6-3.2-1.9-1.4-.3-5.5-.8-6.6 0Z" fill="#455A64"/><path d="M221.7 270c.1 0 .2.1.2.2v.3c.6 0 1 .2 1.4.6.1.1.1.1.1.2s-.1.2-.2.2c0 0-.1 0-.1-.1-.4-.3-.8-.5-1.2-.5v2.2c1.2.3 1.7.7 1.7 1.5s-.7 1.4-1.7 1.5v.6c0 .1-.1.2-.2.2s-.2-.1-.2-.2v-.6c-.7-.1-1.3-.3-1.8-.8-.1 0-.1-.1-.1-.2s.1-.2.2-.2.1 0 .1.1c.4.4.9.7 1.6.7v-2.3c-1.2-.3-1.7-.7-1.7-1.5s.7-1.4 1.7-1.4v-.3c0-.1.1-.2.2-.2Zm-.2 3.1v-2.2c-.8 0-1.3.5-1.3 1.1.1.5.3.8 1.3 1.1Zm.4.5v2.2c.8 0 1.3-.5 1.3-1.1 0-.6-.3-.9-1.3-1.1Zm6.1-2.7-1.4 1.5c.4.1.7.2 1 .5.4.4.6.9.6 1.3 0 .5-.2 1-.6 1.3-.4.4-.9.6-1.3.6-.5 0-1-.2-1.3-.6-.1-.1-.1-.2 0-.3.1-.1.2-.1.3 0 .3.3.7.4 1.1.4.4 0 .8-.1 1.1-.4.3-.3.4-.7.4-1.1 0-.4-.1-.8-.4-1.1-.3-.3-.7-.4-1.1-.4-.1 0-.1 0-.2-.1s-.1-.2 0-.3l1.4-1.4h-2.1c-.1 0-.2-.1-.2-.2s.1-.2.2-.2h2.6c.1 0 .2.1.2.2l-.3.3c.1 0 0 0 0 0Zm2.1 4.4c.2 0 .4.2.4.4s-.2.4-.4.4-.4-.2-.4-.4.2-.4.4-.4Zm1.4.3c-.1-.1-.1-.2 0-.3.1-.1.2-.1.3 0 .3.3.7.4 1.1.4.4 0 .8-.1 1.1-.4.3-.3.4-.7.4-1.1 0-.4-.1-.8-.4-1.1-.3-.3-.7-.4-1.1-.4-.4 0-.8.1-1.1.4-.1.1-.2.1-.3 0v-.2l.3-2.3c0-.1 0-.1.1-.1h2.7c.1 0 .2.1.2.2s-.1.2-.2.2h-2.4l-.2 1.7c.3-.2.6-.3 1-.3.5 0 1 .2 1.3.6.4.4.6.8.6 1.3s-.2 1-.6 1.3c-.4.4-.9.6-1.3.6-.7 0-1.1-.1-1.5-.5Zm4.8-2.3c0-.8.2-1.4.5-2 .3-.5.8-.8 1.4-.8.6 0 1.1.3 1.4.8.3.5.5 1.2.5 2s-.2 1.4-.5 2c-.3.5-.8.8-1.4.8-.6 0-1.1-.3-1.4-.8-.3-.5-.5-1.2-.5-2Zm.4 0c0 .7.2 1.3.5 1.7.3.4.7.7 1.1.7.4 0 .8-.2 1.1-.7.3-.4.5-1 .5-1.7s-.2-1.3-.5-1.7c-.3-.4-.7-.7-1.1-.7-.4 0-.8.2-1.1.7-.3.4-.5 1.1-.5 1.7Z" fill="#A6A6A6"/><path d="M216.5 315.9h-75.9c-5.523 0-10 4.477-10 10v5.9c0 5.523 4.477 10 10 10h75.9c5.523 0 10-4.477 10-10v-5.9c0-5.523-4.477-10-10-10Z" fill="#263238"/><path d="M145.4 330.6h-2.8l-.6 1.5c-.1.3-.3.4-.6.4h-.2c-.3-.1-.5-.5-.4-.8l2.5-6.7c.1-.3.4-.4.6-.4.3 0 .5.1.6.4l2.5 6.7c.1.3 0 .7-.4.8h-.2c-.3 0-.5-.1-.6-.4l-.4-1.5Zm-.5-1.2-.9-2.4-.9 2.4h1.8Zm3.8 2.5v-6.7c0-.4.3-.6.6-.6h1.3c2.2 0 4 1.8 4 4s-1.8 4-4 4h-1.3c-.4-.1-.6-.4-.6-.7Zm1.2-.7h.7c1.5 0 2.7-1.2 2.7-2.7 0-1.5-1.2-2.7-2.7-2.7h-.7v5.4Zm6.6.7v-6.7c0-.4.3-.6.6-.6h1.3c2.2 0 4 1.8 4 4s-1.8 4-4 4h-1.3c-.3-.1-.6-.4-.6-.7Zm1.3-.7h.7c1.5 0 2.7-1.2 2.7-2.7 0-1.5-1.2-2.7-2.7-2.7h-.7v5.4Zm15.2-5.4h-1.8v6.1c0 .4-.3.6-.6.6s-.6-.3-.6-.6v-6.1h-1.8c-.4 0-.6-.3-.6-.6 0-.4.3-.6.6-.6h4.9c.3 0 .6.3.6.6-.1.3-.4.6-.7.6Zm8.2-.3c.7.8 1.1 1.8 1.1 2.9 0 1.1-.4 2.1-1.1 2.9-.7.7-1.7 1.2-2.7 1.2-1.1 0-2.1-.5-2.8-1.2-.7-.7-1.1-1.8-1.1-2.9 0-1.1.4-2.1 1.1-2.9.7-.8 1.7-1.2 2.8-1.2 1 0 2 .5 2.7 1.2Zm-.2 2.9c0-.8-.3-1.5-.8-2s-1.1-.8-1.8-.8-1.4.3-1.8.8c-.5.5-.8 1.2-.8 2s.3 1.5.8 2 1.1.8 1.8.8 1.3-.3 1.8-.8.8-1.2.8-2Zm6.6 0c0-2.3 1.9-4.1 4.2-4.1 1 0 1.9.3 2.6.9.3.2.3.6.1.9-.2.3-.6.3-.9.1-.5-.4-1.1-.6-1.8-.6-.8 0-1.5.3-2 .8s-.8 1.2-.8 2 .3 1.5.8 2 1.3.8 2 .8 1.3-.2 1.8-.6c.3-.2.7-.1.9.1.2.3.2.7-.1.9-.7.6-1.6.9-2.6.9-2.3 0-4.2-1.8-4.2-4.1Zm13 2.2h-2.8l-.6 1.5c-.1.3-.3.4-.6.4h-.2c-.3-.1-.5-.5-.4-.8l2.5-6.7c.1-.3.4-.4.6-.4.3 0 .5.1.6.4l2.5 6.7c.1.3 0 .7-.4.8h-.2c-.3 0-.5-.1-.6-.4l-.4-1.5Zm-.4-1.2-.9-2.4-.9 2.4h1.8Zm9 2.1c.1.3-.1.7-.4.8h-.3c-.1 0-.3 0-.4-.1-.1-.1-.3-.2-.4-.4-.2-.3-.2-.7-.2-1.4 0-.2-.1-.4-.1-.5l-.3-.3c-.2-.2-.5-.3-.6-.3H205v2.5c0 .3-.3.6-.6.6-.4 0-.6-.3-.6-.6v-6.7c0-.4.3-.6.6-.6h2c1.4 0 2.4 1.1 2.4 2.4 0 .8-.3 1.4-.9 1.9l.4.4c.2.3.4.8.4 1.2v.7c.3.1.4.3.5.4Zm-1.6-4.5c0-.7-.5-1.2-1.2-1.2H205v2.3h1.4c.7 0 1.2-.5 1.2-1.1Zm8.1-1.2h-1.8v6.1c0 .4-.3.6-.6.6s-.6-.3-.6-.6v-6.1h-1.8c-.4 0-.6-.3-.6-.6 0-.4.3-.6.6-.6h4.9c.3 0 .6.3.6.6-.1.3-.4.6-.7.6Z" fill="#fff"/><path d="M289 403.2c2.2.7 64.2-.1 66.5-1.6.9-.6 1.3-9.6 1.5-20.6v-.3c0-2.3.1-4.6.1-6.9v-1c.1-15.8-.2-32.2-.2-32.2l-41.5.4 1.2 31.9v1.3l.3 6.6v.7s-23.6 10.9-26 12.9c-2.3 1.8-4.1 8.1-1.9 8.8Z" fill="#F7A9A0"/><path d="M289 403.2c2.2.7 64.2-.1 66.5-1.6.9-.6 1.3-9.6 1.5-20.6v-.3c0-2.3.1-4.6.1-6.9v-1l-40.4.1v1.3l.3 6.6v.7s-23.6 10.9-26 12.9c-2.4 1.8-4.2 8.1-2 8.8Z" fill="#EBEBEB"/><path d="M289 403.2c1.3.4 25.4.3 44.2-.2 11.7-.3 21.5-.8 22.4-1.4.9-.6 1.3-9.4 1.5-20.1v-.9l-40 .1v.7s-23.6 10.9-26 12.9c-2.5 1.9-4.3 8.2-2.1 8.9Z" fill="#FFC727"/><path d="M289.6 400.8c10.5-.4 52.6-1 63-.6.1 0 .1.1 0 .1-10.4.6-52.5.9-63 .7-.2-.1-.2-.2 0-.2Zm22.9-19.9c4.1-.8 9.1-.3 12.3 2.6.1.1 0 .3-.2.2-4.1-1.2-7.9-2-12.1-2.4-.3.1-.3-.4 0-.4Zm-2.9 1.8c4.1-.8 9.1-.3 12.3 2.6.1.1 0 .3-.2.2-4.1-1.2-7.9-2-12.1-2.4-.3.1-.3-.3 0-.4Zm-3 1.8c4.1-.8 9.1-.3 12.3 2.6.1.1 0 .3-.2.2-4.1-1.2-7.9-2-12.1-2.4-.2.1-.3-.3 0-.4Z" fill="#263238"/><path d="M309 377.8c2.9 2.2 6.7 3.1 10.2 4.3.4.1.6-.2.6-.5.1 0 .1-.1.1-.1-1.2-3.4-3.6-7-6.5-9.3-1.7-1.4-4.8-2.4-6.3-.1-1.5 2 .2 4.4 1.9 5.7Zm-1.1-3.3c-.8-4.5 4.1-2.2 5.3-1.1.8.7 1.5 1.5 2.2 2.3 1.4 1.7 2.6 3.6 3.9 5.4-1.6-.7-3.3-1.3-5-1.9-2-.7-6-2.2-6.4-4.7Z" fill="#263238"/><path d="M333.5 375c-1-2.6-4.2-2.3-6.2-1.3-3.3 1.6-6.5 4.5-8.4 7.6 0 .1 0 .1.1.2-.1.3.1.7.5.7 3.6-.4 7.5-.4 10.9-1.9 1.9-.9 4.1-2.9 3.1-5.3Zm-8.7 5.4c-1.8.2-3.5.4-5.3.7 1.6-1.5 3.2-3 5-4.3.9-.6 1.8-1.3 2.7-1.8 1.5-.8 6.7-1.9 4.9 2.3-1 2.3-5.2 2.8-7.3 3.1Zm-30 12.1c2.5-.1 4.9 1 6.3 2.5 1.3 1.4 2.5 3.4 2.4 5.6 0 .1-.1.1-.1 0-.7-4.1-4.4-7.6-8.6-7.9-.1-.1-.1-.2 0-.2Zm55.2-1.8c4.7-.1 4.8 7.3.1 7.3-4.8 0-4.9-7.3-.1-7.3Z" fill="#263238"/><path d="M333.1 402.9c11.7-.3 21.5-.8 22.4-1.4.9-.6 1.3-9.4 1.5-20.1-4.8 4.3-16.8 15-23.9 21.5Z" fill="#263238"/><path d="M369.6 161.9s-9.3 104.8-10.8 112.8c-.4 1.8-.6 11.7-.7 24.5-.3 27.8-.1 77.9-.1 77.9h-43.7s1.3-86.8 3.2-102.8c1.9-16 14.3-112.4 14.3-112.4h37.8Z" fill="#455A64"/><path d="M316.2 369.4c6.8-.1 4.9-.2 11.7-.3 3.3 0 25.3-.2 28.4.3.1 0 .1.1 0 .1-3.1.5-25.1.3-28.4.3-6.8-.1-4.9-.1-11.7-.3-.1.1-.1-.1 0-.1Zm33.5-49.6c0-6.3.1-12.7.1-19 0-6.1 0-12.3.3-18.4.6-12.4 3.1-24.6 4.9-36.9 1.8-12.3 3.3-24.6 4.6-37 1.5-13.9 2.9-27.7 4.3-41.6 0-.1.2-.1.1 0-2.1 24.7-4.4 49.5-7.8 74.1-.9 6.1-1.8 12.2-2.8 18.3-1 6.2-2 12.3-2.5 18.6-.5 6.1-.6 12.2-.6 18.4-.1 6.3-.1 12.7-.2 19-.1 14.1-.3 35.7-.4 49.8 0 .3-.4.3-.4 0 .2-12.6.3-32.7.4-45.3Z" fill="#263238"/><path d="M378.9 161.9s-18.5 104.8-20 112.8c-.4 1.8-.6 11.7-.7 24.5l-20.8-137.3h41.5Z" fill="#263238"/><path d="M339.7 406.9c2.2.5 64-4.6 66.3-6.3.9-.6.6-9.7 0-20.6v-.3c-.1-2.3-.3-4.6-.4-6.9 0-.3 0-.6-.1-1-1-15.8-2.4-32.1-2.4-32.1l-41.4 3.4 3.5 31.7.1 1.3.7 6.6.1.7s-22.8 12.6-25 14.7c-2.2 1.9-3.6 8.2-1.4 8.8Z" fill="#F7A9A0"/><path d="M339.7 406.9c2.2.5 64-4.6 66.3-6.3.9-.6.6-9.7 0-20.6v-.3c-.1-2.3-.3-4.6-.4-6.9 0-.3 0-.6-.1-1l-40.3 3 .1 1.3.7 6.6.1.7s-22.8 12.6-25 14.7c-2.2 1.9-3.6 8.2-1.4 8.8Z" fill="#EBEBEB"/><path d="M339.7 406.9c2.2.5 64-4.6 66.3-6.3.9-.6.6-9.7 0-20.6v-.3l-39.9 2.9.1.7s-22.8 12.6-25 14.7c-2.3 2-3.7 8.3-1.5 8.9Z" fill="#FFC727"/><path d="M340.2 404.4c10.4-1.1 52.4-4.7 62.8-5 .1 0 .1.1 0 .1-10.3 1.3-52.4 4.6-62.8 5.1-.2 0-.2-.2 0-.2Zm21.5-21.4c4-1.1 9.1-.9 12.5 1.8.1.1 0 .3-.2.3-4.2-.9-8-1.4-12.3-1.5-.3-.1-.3-.6 0-.6Z" fill="#263238"/><path d="M358.8 385c4-1.1 9.1-.9 12.5 1.8.1.1 0 .3-.2.3-4.2-.9-8-1.4-12.3-1.5-.2-.1-.2-.5 0-.6Z" fill="#263238"/><path d="M356 387c4-1.1 9.1-.9 12.5 1.8.1.1 0 .3-.2.3-4.2-.9-8-1.4-12.3-1.5-.2-.1-.3-.5 0-.6Zm1.9-6.8c3.1 2 6.9 2.6 10.4 3.6.4.1.6-.3.6-.6.1 0 .1-.1.1-.2-1.4-3.3-4.1-6.8-7.1-8.9-1.8-1.3-4.9-2-6.3.3-1.4 2.3.5 4.6 2.3 5.8Zm-1.3-3.3c-1.1-4.4 3.9-2.5 5.2-1.5.8.6 1.6 1.4 2.4 2.2 1.6 1.6 2.9 3.4 4.3 5.1-1.7-.6-3.4-1-5.1-1.5-2.1-.6-6.2-1.8-6.8-4.3Z" fill="#263238"/><path d="M382.2 375.6c-1.2-2.5-4.3-2-6.3-.9-3.1 1.8-6.2 5-7.9 8.2 0 .1 0 .1.1.2 0 .3.2.7.5.6 3.6-.7 7.5-.9 10.7-2.6 1.9-1 4-3.1 2.9-5.5Zm-8.4 6c-1.7.4-3.5.6-5.2 1.1 1.5-1.6 3-3.2 4.7-4.7.8-.7 1.7-1.4 2.6-1.9 1.4-.9 6.6-2.4 5.1 1.9-.9 2.4-5.1 3.2-7.2 3.6Zm-30 14.5c2.5-.4 5 .6 6.5 1.9 1.4 1.3 2.7 3.2 2.9 5.3 0 .1-.1.1-.1 0-1-4-5.1-7.2-9.2-7.1-.1.1-.1-.1-.1-.1Zm54.8-6.6c4.7-.5 5.4 6.8.7 7.3s-5.4-6.8-.7-7.3Z" fill="#263238"/><path d="m364.3 379.4 43.7-1.9s-11.9-95.8-12.1-101.7c-.6-15.3-10.7-114-10.7-114h-53.3s3.4 22.8 9.1 37.2c0 0 4.4 1.4 11.2 5.1 0 0 5 65.3 5.2 73.4.2 16.2 6.9 101.9 6.9 101.9Z" fill="#455A64"/><path d="M365.5 371.4c6.8-.4 4.8-.4 11.7-.8 3.3-.2 25.2-1.3 28.4-.9.1 0 .1.1 0 .1-3.1.6-25 1.4-28.4 1.5-6.8.2-4.9.1-11.7.2-.2.1-.2-.1 0-.1Zm15.7-203.7c2 24.9 4 49.7 6.3 74.5 2.3 24.9 5 49.8 8.2 74.6 1.8 13.9 3.8 33.4 6 47.2 0 .1-.1.1-.1 0-4.4-24.5-7.6-55-10.4-79.8-2.8-24.8-5-49.6-7-74.4-1.1-14-2.2-28.1-3.2-42.2-.1-.1.2-.1.2.1ZM339 198.1c4.5 1.6 8.9 3.8 13.1 6.1.2.1.1.3-.1.3-4.4-1.9-8.9-3.7-13.2-5.8-.4-.2-.2-.7.2-.6Zm-1.4-30.2c0-.2.3-.2.3 0 0 5.2.3 9.8.7 14.7.2 2.3 2 14.8 6 13.9.7-.2 1-.8 1.1-1.8.1-1.2-.3-2.7-.5-3.8-.4-2.6-.8-5.3-1-7.9-.4-4.9-.4-9.9.2-14.8 0-.2.3-.1.3 0 0 6.8.2 13.7 1.2 20.5.5 3.3 2.1 8.2-1.3 8.7-3.5.5-5.7-7.7-6.1-10-1.4-6.4-1.4-13.2-.9-19.5Z" fill="#263238"/><path d="M344.4 196.8c.4.8.6 1.7.9 2.6.2.7.4 1.4.4 2.1 0 .1-.2.2-.3.1-.5-.6-.7-1.4-.9-2.1l-.9-2.4c-.2-.5.6-.8.8-.3Z" fill="#263238"/><path d="m167.6 381.8-.2-2 105.5-5.4-7.8-47 2-.3 8.2 49.2-107.7 5.5Z" fill="#C7C7C7"/><path d="M180.284 395.071c4.785-3.743 5.63-10.656 1.887-15.44-3.743-4.785-10.656-5.63-15.441-1.887s-5.629 10.656-1.886 15.441c3.743 4.784 10.656 5.629 15.44 1.886Z" fill="#37474F"/><path d="M168.5 386.4c0 2.8 2.2 5 5 5s5-2.2 5-5-2.2-5-5-5c-2.7-.1-5 2.2-5 5Z" fill="#EBEBEB"/><path d="M260.63 397.105c5.911-1.402 9.566-7.33 8.164-13.242-1.402-5.911-7.331-9.566-13.242-8.164-5.911 1.402-9.566 7.331-8.164 13.242 1.402 5.911 7.331 9.566 13.242 8.164Z" fill="#37474F"/><path d="M253 386.4c0 2.8 2.2 5 5 5s5-2.2 5-5-2.2-5-5-5c-2.7-.1-5 2.2-5 5Z" fill="#EBEBEB"/><path d="m186.4 394-.1-2 105.5-5.4-10.3-61.7 2-.3 10.6 63.8-107.7 5.6Z" fill="#C7C7C7"/><path d="M199.409 406.967c4.675-3.879 5.321-10.813 1.442-15.489-3.879-4.675-10.814-5.321-15.489-1.442-4.676 3.879-5.321 10.814-1.442 15.489 3.879 4.676 10.813 5.321 15.489 1.442Z" fill="#37474F"/><path d="M187.4 398.5c0 2.8 2.2 5 5 5s5-2.2 5-5-2.2-5-5-5-5 2.3-5 5Z" fill="#EBEBEB"/><path d="M287.046 402.796c2.341-5.606-.306-12.048-5.912-14.389-5.606-2.341-12.048.306-14.389 5.912-2.341 5.606.306 12.049 5.912 14.389 5.606 2.341 12.049-.306 14.389-5.912Z" fill="#37474F"/><path d="M271.9 398.5c0 2.8 2.2 5 5 5s5-2.2 5-5-2.2-5-5-5c-2.7 0-5 2.3-5 5Z" fill="#EBEBEB"/><path d="m163.8 321.1-15.4-70.2 105-17 1.1 73.4-.9.1-89.8 13.7Zm-13-68.6 14.6 66.4 87.1-13.3-1-69.3-100.7 16.2Z" fill="#A6A6A6"/><path d="m175.189 247.561-1.976.309 10.815 69.16 1.976-.309-10.815-69.16Zm28.152-4.449-1.988.219 7.705 69.878 1.988-.219-7.705-69.878Zm27.445-4.015-1.998.086 3.042 70.436 1.998-.086-3.042-70.436Z" fill="#A6A6A6"/><path d="m253.328 256.161-98.794 17.892.357 1.968 98.793-17.892-.356-1.968Zm-.016 26.575-93.767 13.926.294 1.978 93.767-13.926-.294-1.978Z" fill="#A6A6A6"/><path d="m297.2 324.4-44.7-17.3v-73.3l68.3 19.8-23.6 70.8Zm-42.8-18.7 41.5 16 22.2-66.8-63.8-18.5v69.3h.1Z" fill="#DBDBDB"/><path d="m253.813 256.195-.715 1.868 57.715 22.1.715-1.868-57.715-22.1Zm-.041 26.619-.756 1.852 49.443 20.169.756-1.852-49.443-20.169Z" fill="#DBDBDB"/><path d="m275.207 241.497-9.312 69.986 1.983.263 9.312-69.985-1.983-.264Zm22.131 6.393-15.664 69.56 1.951.44 15.665-69.561-1.952-.439Zm-27.83-69.781-17.025 56.803 1.916.574 17.025-56.803-1.916-.574Zm67.511 13.495-18.662 62.263 1.916.575 18.661-62.264-1.915-.574Z" fill="#DBDBDB"/><path d="m266.373 175.302-.806 3.918 76.597 15.765.806-3.918-76.597-15.765Z" fill="#263238"/><path d="m221.8 258.3 18.9 8.7 31.1-6.2-18.6-5.3-31.4 2.8Z" fill="#FFC727"/><path opacity=".1" d="m221.8 258.3 18.9 8.7 31.1-6.2-18.6-5.3-31.4 2.8Z"/><path d="M254.6 261c.2 8 2.1 46.3-5.3 47-2.6.3-5-5.7-6.8-14.6-.2-.9-.4-1.8-.5-2.7-.6-3.3-1.1-7-1.6-10.8l-.3-2.7c-.4-3.5-.7-7.2-.9-10.9 0-.9-.1-1.8-.1-2.7 0-.8-.1-1.5-.1-2.3-.1-2.5-.1-5-.1-7.4v-2.7c.1-5 .3-9.7.6-14.1.1-.9.1-1.7.2-2.5 1.1-11.2 3.2-19.3 6.1-20.1 6.2-1.6 8.2 26.6 8.8 46.5Z" fill="#E6A36E"/><path d="M249.7 288.7c-.1.1-.2.1-.3.2l-.1.1c-2.6.9-4.9 2.4-6.8 4.6-.2-.9-.4-1.8-.5-2.7 2.3-1.9 5.1-3 7.5-2.6h.2c.1 0 .2.2 0 .4Zm-.9-11.5c-.1 0-.2.1-.3.1l-.1.1c-2.7.1-5.4.9-7.7 2.5-.1.1-.2.1-.3.2l-.3-2.7c2.8-1.5 6.1-1.8 8.6-.7l.1.1h.1s.1.3-.1.4Zm-.6-11.7h-.5c-2.7-.5-5.4-.4-8 .7l-.6.3c0-.9-.1-1.8-.1-2.7 3.1-1 6.7-.6 9.1 1.1 0 0 .1 0 .1.1 0 0 .1 0 .1.1.1.1.2.4-.1.4Zm-.4-12.3h-.5c-2.7-.5-5.4-.4-8 .7-.2.1-.3.1-.4.2v-2.7c3-.9 6.5-.5 8.8 1.2 0 0 .1 0 .1.1 0 0 .1 0 .1.1.1.1.1.4-.1.4Zm0-14.5c-.1 0-.2 0-.3-.1h-.2c-2.5-1.1-5.2-1.6-7.8-1.3.1-.9.1-1.7.2-2.5 3 0 6.2 1.2 8.1 3.3v.1l.1.1c.1.2.1.5-.1.4Z" fill="#CC8A58"/><path d="M266.3 265.8c-1.1 7.9-5.7 45.7-13.1 44.7-2.6-.3-4-6.7-4.3-15.8 0-.9-.1-1.8-.1-2.7 0-3.4 0-7.1.2-10.9 0-.9.1-1.8.2-2.7.2-3.5.6-7.2 1-10.8.1-.9.2-1.8.3-2.6.1-.7.2-1.5.3-2.2.3-2.4.7-4.9 1.1-7.3.2-.9.3-1.8.5-2.6.9-4.8 1.9-9.4 3-13.6l.6-2.4c2.9-10.7 6.4-18.1 9.4-18.2 6.5-.4 3.7 27.6.9 47.1Z" fill="#EDAA76"/><path d="M257 291.7c-.1.1-.2.1-.3.1l-.1.1c-2.7.3-5.2 1.2-7.5 2.9 0-.9-.1-1.8-.1-2.7 2.6-1.3 5.5-1.7 7.9-.8 0 0 .1 0 .1.1h.1c0-.1.1.2-.1.3Zm1-11.5h-.5c-2.7-.5-5.4-.4-8 .6-.1 0-.2.1-.3.1 0-.9.1-1.8.2-2.7 3-.8 6.3-.3 8.6 1.3l.1.1s.1 0 .1.1c0 .2 0 .5-.2.5Zm1.4-11.5c-.1 0-.2 0-.3-.1h-.2c-2.6-1.1-5.3-1.6-8-1.2-.2 0-.4.1-.6.1.1-.9.2-1.8.3-2.6 3.2-.2 6.7 1 8.8 3.3v.1l.1.1c.1 0 .1.3-.1.3Zm1.6-12.1c-.1 0-.2 0-.3-.1h-.2c-2.6-1.1-5.3-1.6-8-1.2-.2 0-.3.1-.5.1.2-.9.3-1.8.5-2.6 3.1-.2 6.5 1.1 8.5 3.3v.1l.1.1c.1.1.1.3-.1.3Zm2.4-14.1c-.1 0-.2-.1-.3-.2-.1 0-.1 0-.2-.1-2.3-1.7-4.8-2.8-7.5-3.1l.6-2.4c3 .7 5.9 2.6 7.4 5.1v.1s0 .1.1.1c.2.3.2.5-.1.5Z" fill="#CC8A58"/><path d="M221.8 258.3s1.2 38.2.8 39.7c-.4 1.5-2.7 19.4-2.5 19.9.2.5 18.2 10.8 18.8 10.2.6-.6 1.7-26.4 1.7-29.6 0-3.2.2-31.6.2-31.6l-19-8.6Z" fill="#FFC727"/><path d="m240.7 267-1.9 61.1s29.2-8.6 29.4-9.1c.3-.5 1.7-17.8 1.3-20.5-.4-2.7 2.2-37.7 2.2-37.7l-31 6.2Z" fill="#FFC727"/><path opacity=".1" d="m240.7 267-1.9 61.1s29.2-8.6 29.4-9.1c.3-.5 1.7-17.8 1.3-20.5-.4-2.7 2.2-37.7 2.2-37.7l-31 6.2Z"/><path d="m200.2 336.4-36.4-15.2-.1-.5-15.4-70.1 45.2 18.5 6.7 67.3Zm-34.7-16.7 32.3 13.5-6.2-62.8-40.6-16.6 14.5 65.9Z" fill="#DBDBDB"/><path d="m163.501 256.936-1.97.346 11.788 67.072 1.97-.347-11.788-67.071Zm14.873 6.359-1.98.282 9.412 66.132 1.98-.282-9.412-66.132Z" fill="#DBDBDB"/><path d="m160.905 302.351-.66 1.888 36.627 12.804.66-1.888-36.627-12.804Zm-5.874-27.878-.737 1.86 39.973 15.845.737-1.859-39.973-15.846Z" fill="#DBDBDB"/><path d="m200.1 336.3-8.7-67.4 129.3-15.4-23.6 70.9-.6.1-96.4 11.8Zm-6.4-65.7 8.2 63.5 93.8-11.5 22.2-66.7-124.2 14.7Z" fill="#EBEBEB"/><path d="m222.353 266.232-1.992.174 5.682 65.151 1.992-.174-5.682-65.151Zm32.559-4.11-3.826 66.287 1.997.115 3.825-66.287-1.996-.115Zm33.029-4.006-12.732 67.406 1.965.372 12.733-67.407-1.966-.371Z" fill="#EBEBEB"/><path d="m311.527 276.807-116.959 13.158.224 1.988 116.958-13.159-.223-1.987Zm-8.624 26.179-105.826 11.065.208 1.99 105.826-11.066-.208-1.989Z" fill="#EBEBEB"/><path d="M345.1 108.4c-5.4 8.4-25.2 39-37.6 39-7.5 0-32.8-12.7-38.3-17-6.5-5 11-20.8 15.5-18.9 5.6 2.3 20.7 11.2 24.3 11.2 3.2 0 12.3-10.2 29.5-21.4 8.8-5.9 11.3-.2 6.6 7.1Z" fill="#F7A9A0"/><path d="M269.8 130.8c-2.3-1.1-12.6-7.2-15.1-9.5s-9.1-9.6-7.6-11.7c1.5-2.1 3.7-.1 3.7-.1s-2.3-3.5-.5-5.5c1.8-2 5 1.2 5 1.2s-2.1-3.8-.2-5.6c1.9-1.8 4.6 1.9 4.6 1.9s-2.1-3.4.1-4.2c2.7-1 5.9 5.6 8.8 8 .7.5 14.3 9.9 14.3 9.9l-13.1 15.6Z" fill="#F7A9A0"/><path d="M259.5 101.3c2.4 4.9 4.2 6.6 8.8 9.4.1.1 0 .2-.1.1-4.7-2.4-7.3-4.2-8.9-9.4-.1-.3.1-.4.2-.1Zm-4.4 3.6c2.9 4.8 4.9 6.7 9.4 10 .1 0 0 .2-.1.1-4.7-2.9-7.3-4.7-9.6-10 0-.2.2-.3.3-.1Zm-4 4.8c3.1 4.5 5.3 6.6 10.1 9.3.1.1 0 .2-.1.2-5.2-2.2-7.8-4.9-10.1-9.4-.2-.3-.1-.4.1-.1Z" fill="#263238"/><path d="M249.7 110.8c3.4 11.2 14 9.8 17 8.9 3-.9 12.5-5.6 9.1-16.9-3.4-11.2-14.7-8.6-16.7-8-2.3.7-12.9 4.8-9.4 16Z" fill="#FFC727"/><path d="M260 96.3s.5 4.2 7.9 1.7c0 0-5-5.3-7.9-1.7Z" fill="#455A64"/><path d="M260.7 98.1s3.5.2 2.5-6.1c0 0-5 3.2-2.5 6.1Z" fill="#455A64"/><path d="M260.5 96.9s-1.2 3.3-6.6-.2c0 0 5-3.2 6.6.2Z" fill="#455A64"/><path d="M260.2 96.1s-3.2 2.7 3 7.5c0 0 1.6-7.1-3-7.5Z" fill="#455A64"/><path d="M259.9 96.7s-4.7-1.3-4.1 6.7c0 0 7.2-2.5 4.1-6.7Z" fill="#455A64"/><path d="M260.7 97.7s.6-4.2-2.9-7.1c0 0-2 0-2.5 2.1 0 0 4 2.2 4.3 5.9l.9-.6" fill="#455A64"/><path d="M287.9 114.8s-1.9-6.5-3.4-9.2c-1.5-2.7-10.6-10.6-12.4-8.7-2.4 2.4 2 8 4.5 10.5 0 0-5.5 5.6-3.2 10.3 2.2 4.8 14.5-2.9 14.5-2.9Z" fill="#F7A9A0"/><path d="M271.6 97.8c-.6 3.8 2.9 6.8 5.2 9.4.2.2.1.4-.1.5-2.1 2.5-4.4 6.6-3.5 10 0 .1-.1.1-.1.1-1.4-3.5.5-7.7 3-10.3-2.4-2.7-5.8-5.9-4.5-9.7Z" fill="#263238"/><path d="m317 114.2 16.7 14.9s9.5-11.4 13.4-22.4c3.9-11-5.5-9.6-12.1-5.2-6.7 4.4-18 12.7-18 12.7Z" fill="#FFC727"/><path d="M335.6 125.5c-7.3-5.8-12.8-11.9-14.1-13.1-.1-.1 0-.1.1-.1 1.2 1.2 8.6 7.5 14.1 13.1l-.1.1Z" fill="#263238"/><path d="M347.1 106.7c-3.9 10.9-13.4 22.4-13.4 22.4l-7.7-6.9c5.1-7.1 13.3-18.4 17.4-23.9 3.7-.2 6.1 1.9 3.7 8.4Z" fill="#263238"/><path d="M326 176c1 1 62.5.4 62.8 0 .8-1.1-8.6-40.8-15.7-55.8-9.1-19.3-13.9-20.9-16.7-22-3.7-1.4-13.2-.8-14.8-.1-1.8.8-6.3 9.8-8.4 17-4.2 14.4-8.1 60-7.2 60.9Z" fill="#FFC727"/><path d="M365.6 116.1c-.3 18.9-1.1 41.3-6.4 47.6-7.9 9.6-27.8 19.4-35.9 21.2-3.4.8-12.9-24.8-9.2-25.6 7.7-1.6 25.4-8.9 27-10.5 1.5-1.5 7.7-19.9 12.6-34.1 5.9-17.1 12.1-9.5 11.9 1.4Z" fill="#F7A9A0"/><path d="M318.3 158.3s-10.2 2.6-16.8 4.6c-3.7 1.1-9.8 3.6-12.1 5.7-3.5 3.1-16.1 18.2-12.5 21.3 3.3 2.8 12.4-11.5 12.4-11.5s-10.5 13.7-6 16.4c4.6 2.7 12.7-14.9 12.7-14.9s-10.5 14.3-5.4 16.3c3.9 1.5 12.2-14 12.2-14s-8.9 12.4-5 14.1c4.3 1.9 12.9-11.9 12.9-11.9 10.7 2.8 17-.3 21.1-3 1.1-.7-13.5-23.1-13.5-23.1Z" fill="#F7A9A0"/><path d="M292.6 173.5c-1.3 1.6-2.6 3.1-3.8 4.8-1.2 1.7-2.2 3.4-3.2 5.2-2.4 4.3-3.3 7.4-3.2 7.3 1.7-4.4 5.7-10.4 6.9-12.1 1.2-1.8 2.2-3.5 3.3-5.2.1 0 0-.1 0 0Zm6.1 4c-2.2 1.8-6.9 8.3-8.7 12.7-.1.2 0 .2.1 0 1.5-2.1 7.2-10.6 8.6-12.7.1 0 .1 0 0 0Zm5.9 2.6c-2.6 2.5-4.7 6-6.4 10-.1.2.1.2.2 0 2.1-3.4 3.7-6 6.4-9.9 0-.1-.1-.2-.2-.1Z" fill="#263238"/><path d="m345.1 132.5 22.1 3.3s1.7-14.8-1-26.1-9.8-5-13 2.3c-3.2 7.4-8.1 20.5-8.1 20.5Z" fill="#FFC727"/><path d="M366.6 131.5c-9.3-.6-17.3-2.6-19-2.8-.1 0-.1-.1 0-.1 1.7.3 11.3 1.3 19 2.8.1 0 0 .1 0 .1Z" fill="#263238"/><path d="M348.3 124.9c1-2.5 2.5-6.1 3.3-8.6 0 0 0-.1-.1 0-.6 1.3-1.2 2.7-1.8 4.1 0-.1 0-.2.1-.2.1-.8.3-1.5.3-2.3-.2.8-.4 1.5-.6 2.3l-.3 1.5c-.3.7-1.1 2.5-1.3 3.2-.5 1.2-3.2 7.9-3.1 7.9.2 0 2.3.3 2.7.3.1 0 .1-.2 0-.2-.4 0-2.1-.3-2.3-.3.5-1.3 1-2.5 1.6-3.8l1.5-3.9Zm20.3-3.7c-.2.7-.3 1.3-.4 2 0 .2-.1.5-.1.7-.1-1.7-.2-3.3-.4-5h-.1c.2 2.8.1 5.6 0 8.3 0 1.4-.1 2.7-.2 4.1 0 .7-.1 1.4-.1 2.1 0 .8-.1 2.3-.1 2.3-.4-.1-1.7-.2-2.1-.3-.1 0-.1.1 0 .1.4.1 2.4.4 2.4.4 0-.7.2-1.6.3-2.3.1-.7.1-1.3.2-2 .1-1.4.2-2.9.2-4.3v-2.4c.1-.6.3-1.2.4-1.8.1-.7.2-1.4.3-2-.1 0-.3 0-.3.1Z" fill="#263238"/><path d="M343.4 108c3.4 1 9.7-3.9 12.3-8.1.2-.3-.1-3.4-.2-7.2-.1-2.3-.1-4.9 0-7.3 0-.5-15 2.7-15 2.7s1.2 5 .9 9.1c0 .3-.1.7-.2 1v.2c-.4 1.8-1.1 8.6 2.2 9.6Z" fill="#F7A9A0"/><path d="M354.6 85.4c-.9 3.9-4 13.4-11.9 13.1-.6 0-1.1-.1-1.5-.2v-.2c.1-.3.1-.6.2-1 .3-4.1-.9-9.1-.9-9.1s10.8-2.2 14.1-2.6Z" fill="#263238"/><path d="M356.3 66.5c2 5.1.4 20.5-3 24.1-5 5.3-13.8 6.5-18.5.3-4.5-6-2.1-25.9 1.8-29.3 5.8-5 16.8-2.7 19.7 4.9Z" fill="#F7A9A0"/><path d="M342.6 76.9c0-.1.1 0 0 0-.1 1.1 0 2.3.9 2.8v.1c-1.2-.4-1.2-2-.9-2.9Z" fill="#263238"/><path d="M343.6 75.9c1.7 0 1.5 3.4-.1 3.4-1.5-.1-1.3-3.4.1-3.4Zm-6.8.7c0-.1-.1 0 0 0-.1 1.1-.3 2.3-1.3 2.6v.1c1.2-.2 1.4-1.7 1.3-2.7Z" fill="#263238"/><path d="M335.9 75.4c-1.7-.2-2 3.1-.4 3.3 1.5.3 1.8-3.1.4-3.3Zm9.1-1c-.4-.1-.8-.3-1.3-.5s-.9-.3-1.2-.8c-.2-.2-.1-.7.2-.9.5-.4 1.2-.3 1.8-.1.6.2 1.1.6 1.4 1.2.4.7-.3 1.3-.9 1.1Zm-10.3-.7c.5 0 .9-.2 1.4-.3.5-.1.9-.1 1.3-.5.2-.2.2-.6 0-.9-.4-.5-1.1-.5-1.7-.4-.7.1-1.2.4-1.6.9-.5.5 0 1.2.6 1.2Zm9.1 12.9c-.3.2-.5.5-.9.6-.4 0-.8-.2-1.1-.3 0 0-.1 0 0 .1.2.4.8.7 1.3.6.4-.1.6-.5.7-1 .1 0 0 0 0 0Zm-.9-3.1c-.6.9-1.5 1.3-2.4 1.4-.4.1-.9 0-1.3 0h-.4c-.1 0-.2-.1-.2-.2v-.2c0-.8.2-2 .2-2-.3.1-1.8.7-1.8.3.4-3.4.9-7.3 2-10.6 0-.1.2-.1.2 0-.3 3.3-1.1 6.6-1.4 9.9.5-.2 1.3-.4 1.7-.4.1 0-.3 2.3-.3 2.7 1.2.1 2.2-.2 3.7-.9-.1-.2 0-.1 0 0Z" fill="#263238"/><path d="M339.6 84.5s.7 1 1.6 1.4c.3.1.7.2 1.1.1.8-.2.9-.9.8-1.6-.1-.5-.3-1-.3-1s-1.2 1.1-3.2 1.1Z" fill="#263238"/><path d="M341.2 85.9c.3.1.7.2 1.1.1.8-.2.9-.9.8-1.6-.8.1-1.7.6-1.9 1.5Z" fill="#FF6596"/><path d="M334.7 67.6c5.1 3.5 12-1.8 12-1.8 1.6 4 5.6 3.5 5.6 3.5s1 8.6 3.3 8.6c3.5 0 4.5-11.8 3.4-14.1-1.1-2.3-4-2.9-4-2.9s-.2-1.8-2.3-3.4c-2.4-1.8-10.5.6-10.5.6s-.6-1.5-2.1-2.8c-1-.8-2.3-.7-3.1.3.4.6.7 1.3.8 2.1.4 2.5-1.7 2.5-1.6.2 0-1 .3-1.8.8-2.4-1-1.5-2.7-2-3.7-1.2-1.7 1.6-2.8 10.4 1.4 13.3Z" fill="#263238"/><path d="M354.1 79.1s3.1-5.1 5.4-4c2.3 1.1.1 8.3-2.4 9.5-2.6 1.1-3.6-1.2-3.6-1.2l.6-4.3Z" fill="#F7A9A0"/><path d="M358.8 77.1c.1 0 .1.1 0 0-1.8.9-2.6 2.7-3.2 4.5.5-.7 1.2-1.1 2.2-.5v.1c-.8-.1-1.3 0-1.8.7-.3.4-.5 1-.8 1.5-.1.2-.4.1-.3-.1-.2-2.4 1.4-5.8 3.9-6.2Z" fill="#263238"/><path d="M54.2 315.6c.4-9.7.2-19.4-.4-29-1.3-19.9-4.6-39.7-9.1-59.2-2.5-10.9-5.7-21.7-8.9-32.5-.1-.3-.6-.2-.5.1 10.1 37.9 18.3 77 17.8 116.4-.2 11-1.4 21.9-2.5 32.8 0 .3.5.4.5.1 2-9.3 2.7-19.1 3.1-28.7Z" fill="#FFC727"/><path d="M35.3 195s-15.2 38.7-11.8 47.8c3.4 9.1 10.5 11 10.5 11s-9.3 13.3-2.8 25.8c6.5 12.5 21 11.9 22 26.1-.2 0 .6-59.2-17.9-110.7Z" fill="#FFC727"/><path d="M51.4 281.3v-.2c-2.1-26.3-6.8-52.5-14.8-77.8 0-.1-.1-.1-.1 0 3 11.3 5.7 22.7 8 34.1-2-2-4.6-3.2-7.3-4.1-.1 0-.1.1 0 .1 2.8 1.2 5.5 2.6 7.5 5 .4 2.2.9 4.5 1.3 6.7-3.4-3.8-8.1-5.7-12.9-7.5-.1 0-.1.1 0 .1 4.9 2 9.8 4.6 13.2 8.8 1.2 6.4 2.2 12.9 3.1 19.3-2.5-2.6-5.6-4.4-9.1-5.2-.1 0-.2.1-.1.2 3.6 1 6.7 3.1 9.2 5.9h.1c.3 2.3.6 4.6.9 6.8-1.9-1.6-4-2.9-6.4-3.8-.1 0-.1.1 0 .1 2.4 1 4.5 2.5 6.4 4.2h.1c.3 2.2.5 4.3.7 6.5-3.5-4.2-7.8-7.3-12.9-9.2-.1 0-.2.1-.1.2 5 2.2 9.4 5.6 12.7 9.8.1.1.2.1.3.1.3 3.3.6 6.7.9 10 0 0 .1.1.1 0-.3-3.3-.5-6.7-.8-10.1Z" fill="#263238"/><path d="M39.1 229.5c-2.6-1.8-6-2.6-9.2-2.9-.1 0-.1.1 0 .1 3.3.5 6 1.7 9.1 3 .1.1.2-.1.1-.2Zm1.9 41c-2.1-1.3-4.5-2-6.9-2.4-.1 0-.1.1 0 .1 2.4.4 4.6 1.3 6.8 2.4.1.1.2-.1.1-.1Z" fill="#263238"/><path d="M94.3 243.5c-6.4 4.5-12.5 9.6-17.6 15.4-5.5 6.2-9.6 13.2-12.4 21-5.8 16-8.9 33.2-9.2 50.2-.2 9.5.7 18.9 2.7 28.2.1.3.6.2.5-.1-2.5-16.3-2.4-33 .3-49.3 2.6-16 6.7-33.4 16.9-46.4 5.5-7.1 12.4-12.7 19.3-18.4.3-.4-.2-.9-.5-.6Z" fill="#FFC727"/><path d="M57.3 318.6s5.2-8.8 12.9-16.4c7.6-7.6 14.1-13 15-18.1 1-5-7.6-8.8-7.6-8.8s10.6 1.9 13.4-2.5c2.9-4.4 4.3-30.1 4.3-30.1s-19.2 13.7-28.1 32.9c-9 19.2-9.9 43-9.9 43Z" fill="#FFC727"/><path d="M88.6 249.2c-8.1 7.9-16.2 16.4-21 26.8-1.6 3.6-3 7.3-4.2 11.1-.2.8-.5 1.5-.7 2.3v.1c-2.4 7.8-4 15.8-5.5 23.7 0 .1.1.1.1 0 .8-4 1.7-8 2.8-12.1h.1c1.6-.7 3.3-1.1 5-1.3.1 0 .1-.2 0-.2-1.7.1-3.4.4-5 .9.9-3.6 1.9-7.3 3.1-10.8 3.7-.9 7.6-1.4 11.4-1.5v-.1c-3.8-.2-7.5.2-11.2 1l.6-1.8c2.5-.6 5-1 7.6-1.3v-.1c-2.5.1-5 .3-7.4.9 1-3.1 2.2-6.1 3.4-9.1 1-2.5 2.3-4.8 3.6-7 2.1-.5 4-.9 6.1-1.1.1 0 .1-.1 0-.1-1.9-.1-3.9 0-5.7.6 1-1.6 2.1-3.2 3.2-4.8 4.3-1 8.7-1.8 13.1-1 .1 0 .1-.1 0-.1-4.2-1.1-8.4-.5-12.5.4.5-.6.9-1.2 1.4-1.8 2.6-.8 5.3-1.2 8-1.3.1 0 .1-.1 0-.1-2.5-.2-5.1 0-7.5.7 3.6-4.4 7.5-8.6 11.4-12.7.2-.3 0-.4-.2-.2Z" fill="#263238"/><path d="M88.4 266.7c-1.3-.1-2.5-.3-3.8-.1-.2 0-.1.3 0 .3 1.3 0 2.5-.1 3.8 0 .1 0 .1-.2 0-.2Zm-13.8 24.9c-2 0-4 .5-5.9 1.2v.1c2-.5 3.9-.7 5.9-1 .2 0 .2-.3 0-.3Zm-4.2-8.6c-.8 0-1.7.1-2.5.2-.1 0-.1.1 0 .1.8 0 1.7 0 2.5-.1.2 0 .2-.2 0-.2Z" fill="#263238"/><path d="M1 270.7c6.2 2.1 12.3 4.9 17.8 8.4 5.9 3.7 10.8 8.5 14.9 14.1 8.4 11.6 14.9 24.8 19.1 38.5 2.3 7.7 3.8 15.5 4.3 23.5 0 .3-.4.3-.4 0-1.8-13.8-5.7-27.3-11.6-39.9-5.8-12.3-13.2-25.5-24.4-33.7-6.1-4.5-13-7.4-19.9-10.4-.4-.1-.2-.6.2-.5Z" fill="#FFC727"/><path d="M48.3 322.9S42 317 34.1 312.6c-7.9-4.4-14.4-7.3-16.4-11.2-2-3.9 4.2-8.9 4.2-8.9s-8.1 4-11.5 1.1C7.1 290.7 0 270.3 0 270.3s18.7 6.7 30.4 20.1c11.7 13.5 17.9 32.5 17.9 32.5Z" fill="#FFC727"/><path d="M47.3 318.7c-9.4-17.6-21.8-33.5-38.9-43.9 4.5 2.9 8.7 6.2 12.5 9.8-3.5-.1-7 .5-10.1 2.1-.1 0 0 .1.1.1 3.4-1.2 6.7-1.9 10.3-1.7h.1l1.8 1.8c-1.8.1-3.6.3-5.4.7v.1c1.9-.4 3.8-.5 5.7-.5 3.1 3.1 6.1 6.5 8.8 10-1.2-.2-2.6-.1-3.8.3-.1 0-.1.2 0 .1 1.4-.2 2.7-.1 4-.1.5.7 1 1.3 1.5 2-3.8-.2-7.6.1-11.4 1.1-.1 0 0 .1 0 .1 3.9-.8 7.7-1 11.7-.8.5.6.9 1.3 1.4 1.9-2.3-.1-4.5.2-6.8.8-.1 0-.1.2 0 .1 2.3-.5 4.6-.7 7-.5 2 2.8 3.9 5.6 5.8 8.5-1-.2-2-.1-3 .2-.1 0 0 .1 0 .1 1.1-.1 2.1 0 3.2.2 1.7 2.6 3.3 5.2 4.8 7.8.5.1.8-.1.7-.3Z" fill="#263238"/><path d="M32.8 304.1c-1.8-.2-3.7.1-5.4.7v.1c1.8-.3 3.6-.5 5.4-.6.1 0 .1-.2 0-.2Zm-16.4-21.4c-.8-.1-1.7 0-2.5.1-.1 0-.1.2 0 .1.8-.1 1.6-.1 2.5-.1.2.1.2-.1 0-.1Z" fill="#263238"/><path d="M72.4 381H30.2l6-44.1 1.5-11.3h27.2l1.5 11.3 6 44.1Z" fill="#455A64"/><path d="M66.4 336.9H36.2l1.5-11.3h27.2l1.5 11.3Z" fill="#263238"/><path d="M68.8 321.6H33.9v9.6h34.9v-9.6Z" fill="#455A64"/></symbol><symbol id="register" viewBox="0 0 486 420"><path d="M404.5 0h-33.9c-11.046 0-20 8.954-20 20v33.9c0 11.046 8.954 20 20 20h33.9c11.046 0 20-8.954 20-20V20c0-11.046-8.954-20-20-20Z" fill="var(--color-secondary)"/><path d="M388.7 11.9c1.4 0 2.5 1.1 2.5 2.5v1.3c3.4.4 6.4 1.5 9.1 3.2.9.5 1.8 1.4 1.8 2.8 0 1.8-1.5 3.2-3.3 3.2-.6 0-1.2-.2-1.8-.5-2-1.2-4-2.1-6-2.6V33c8.9 2.2 12.7 5.8 12.7 12 0 6.4-5 10.7-12.4 11.4v3.5c0 1.4-1.1 2.5-2.5 2.5s-2.6-1.1-2.6-2.5v-3.6c-4.4-.5-8.4-2-12-4.6-1-.6-1.6-1.6-1.6-2.8 0-1.8 1.4-3.2 3.2-3.2.7 0 1.4.2 1.9.6 2.7 2 5.4 3.3 8.6 3.9V38.8c-8.5-2.2-12.5-5.4-12.5-12 0-6.3 5-10.6 12.3-11.2v-1.2c.1-1.4 1.2-2.5 2.6-2.5Zm-2.3 19.9V21.4c-3.7.4-5.6 2.3-5.6 4.9 0 2.5 1.1 4 5.6 5.5Zm4.6 8.1v10.6c3.7-.4 5.8-2.3 5.8-5.1 0-2.5-1.3-4.1-5.8-5.5Z" fill="#fff"/><path d="M94 251.5c.5-12.5.3-25-.5-37.5-1.7-25.7-5.9-51.3-11.7-76.4-3.3-14.1-7.3-28-11.5-41.9-.1-.4-.8-.3-.7.1 13 48.9 23.6 99.4 22.9 150.2-.2 14.2-1.9 28.2-3.2 42.3 0 .4.6.5.7.1 2.7-11.8 3.5-24.5 4-36.9Z" fill="#FFD8D0"/><path d="M69.6 95.9s-19.7 50-15.3 61.7c4.4 11.7 13.5 14.2 13.5 14.2s-12 17.2-3.6 33.3c8.4 16.1 27.1 15.4 28.4 33.6-.1.1 1-76.3-23-142.8Z" fill="#FFD8D0"/><path d="M90.4 207.3v-.3c-2.8-34-8.8-67.8-19.1-100.5 0-.1-.2-.1-.2 0 3.9 14.6 7.4 29.3 10.3 44.1-2.6-2.6-5.9-4.1-9.4-5.2-.1 0-.1.1 0 .1 3.6 1.6 7.1 3.4 9.7 6.5.6 2.9 1.1 5.8 1.7 8.7-4.4-4.9-10.5-7.4-16.6-9.7-.1 0-.1.1 0 .1 6.4 2.6 12.7 5.9 17 11.4 1.5 8.3 2.8 16.6 4 25-3.2-3.4-7.2-5.6-11.7-6.7-.1 0-.2.2-.1.2 4.7 1.3 8.7 4 11.9 7.6l.1.1c.4 2.9.8 5.9 1.1 8.8-2.5-2.1-5.2-3.7-8.2-5-.1 0-.1.1 0 .1 3.1 1.3 5.8 3.2 8.2 5.5h.1c.3 2.8.7 5.6.9 8.4-4.5-5.4-10.1-9.4-16.7-11.9-.1 0-.2.1-.1.2 6.4 2.8 12.1 7.2 16.4 12.7.1.1.3.2.4.1.4 4.3.8 8.6 1.1 12.9 0 .1.1.1.1 0-.2-4.4-.5-8.8-.9-13.2Z" fill="#263238"/><path d="M74.6 140.4c-3.4-2.3-7.8-3.3-11.8-3.7-.1 0-.1.1 0 .2 4.2.6 7.8 2.2 11.7 3.8.1.1.2-.2.1-.3Zm2.4 52.9c-2.7-1.6-5.8-2.5-8.9-3-.1 0-.1.1 0 .2 3.1.6 5.9 1.7 8.8 3.1.1 0 .2-.2.1-.3Z" fill="#263238"/><path d="M145.8 158.4c-8.2 5.8-16.1 12.4-22.8 19.9-7.1 8-12.3 17-16 27.1-7.4 20.6-11.5 42.9-11.9 64.8-.2 12.3.9 24.4 3.5 36.4.1.4.7.3.7-.1-3.2-21.1-3.1-42.6.4-63.7 3.4-20.7 8.7-43.1 21.8-59.9 7.2-9.1 16.1-16.3 24.9-23.8.5-.4-.1-1-.6-.7Z" fill="#FFD8D0"/><path d="M98 255.3s6.8-11.4 16.6-21.2c9.8-9.8 18.1-16.8 19.4-23.3 1.3-6.5-9.9-11.3-9.9-11.3s13.6 2.4 17.4-3.3c3.7-5.7 5.5-38.8 5.5-38.8s-24.8 17.7-36.3 42.5C99.2 224.7 98 255.3 98 255.3Z" fill="#FFD8D0"/><path d="M138.5 165.9c-10.4 10.2-20.9 21.2-27.1 34.6-2.1 4.6-3.9 9.4-5.5 14.3-.3 1-.6 2-.9 2.9 0 0 0 .1-.1.2-3 10-5.2 20.4-7 30.6 0 .1.1.1.1 0 1.1-5.2 2.2-10.4 3.6-15.6h.1c2.1-.9 4.2-1.4 6.5-1.7.1 0 .1-.3 0-.3-2.2.1-4.3.5-6.4 1.2 1.2-4.7 2.5-9.4 4-14 4.8-1.2 9.8-1.8 14.7-1.9.1 0 .1-.1 0-.1-5-.2-9.6.2-14.5 1.2.3-.8.5-1.6.8-2.4 3.2-.7 6.5-1.4 9.8-1.7.1 0 .1-.1 0-.1-3.2.1-6.4.4-9.6 1.2 1.3-4 2.8-7.9 4.4-11.8 1.3-3.2 2.9-6.2 4.7-9.1 2.6-.6 5.2-1.2 7.9-1.4.1 0 .1-.1 0-.1-2.5-.2-5 0-7.4.7 1.3-2.1 2.7-4.2 4.1-6.2 5.6-1.2 11.2-2.4 16.9-1.3.1 0 .1-.1 0-.2-5.4-1.4-10.8-.6-16.2.5.6-.8 1.2-1.6 1.8-2.3 3.4-1.1 6.8-1.6 10.4-1.6.1 0 .1-.1 0-.1-3.3-.3-6.5 0-9.7.9 4.6-5.7 9.7-11.1 14.7-16.4.3-.1.1-.3-.1 0Z" fill="#263238"/><path d="M138.2 188.4c-1.6-.2-3.3-.4-4.9-.2-.2 0-.2.3 0 .4 1.6 0 3.3-.1 4.9 0 .1 0 .1-.2 0-.2Zm-17.8 32.2c-2.6 0-5.2.7-7.6 1.5-.1 0 0 .1 0 .1 2.5-.6 5.1-.8 7.6-1.3.2 0 .2-.3 0-.3Zm-5.4-11.1c-1.1-.1-2.2.1-3.2.3-.1 0-.1.2 0 .2 1.1 0 2.2 0 3.3-.2.1 0 .1-.3-.1-.3Z" fill="#263238"/><path d="M25.4 193.6c8 2.8 15.9 6.3 23 10.8 7.6 4.8 13.9 10.9 19.2 18.2 10.8 14.9 19.2 32.1 24.6 49.7 3 9.9 4.9 20 5.6 30.3 0 .4-.5.4-.6.1-2.3-17.8-7.4-35.2-15-51.5-7.5-15.9-17-32.9-31.5-43.5-7.9-5.7-16.8-9.5-25.6-13.5-.5-.1-.2-.8.3-.6Z" fill="#FFD8D0"/><path d="M86.4 261s-8.1-7.6-18.3-13.3c-10.2-5.7-18.6-9.4-21.1-14.4s5.4-11.4 5.4-11.4-10.5 5.1-14.8 1.4c-4.3-3.8-13.4-30.1-13.4-30.1s24.1 8.6 39.2 26c15 17.2 23 41.8 23 41.8Z" fill="#FFD8D0"/><path d="M85.2 255.5c-12.1-22.7-28.2-43.2-50.3-56.7 5.8 3.7 11.2 8 16.2 12.6-4.5-.1-9 .6-13 2.7-.1 0 0 .2.1.1 4.4-1.5 8.7-2.5 13.4-2.3.1 0 .1 0 .2-.1.8.7 1.6 1.5 2.3 2.3-2.3.1-4.7.4-6.9.9-.1 0 0 .1 0 .1 2.5-.5 4.8-.6 7.3-.6 4 4.1 7.8 8.4 11.4 12.9-1.6-.2-3.3-.1-4.9.4-.1 0-.1.2 0 .2 1.8-.2 3.4-.2 5.2-.1.7.8 1.3 1.7 2 2.5-5-.3-9.8.2-14.7 1.4-.1 0-.1.1 0 .1 5-1 10-1.3 15.1-1 .6.8 1.2 1.7 1.8 2.5-3-.1-5.8.3-8.7 1-.1 0-.1.2 0 .2 3-.7 6-.8 9-.7 2.6 3.6 5.1 7.2 7.5 10.9-1.3-.3-2.6-.1-3.8.2-.1 0 0 .1 0 .1 1.4-.2 2.7 0 4.1.2 2.2 3.3 4.2 6.7 6.2 10.1.2.6.6.4.5.1Z" fill="#263238"/><path d="M66.4 236.7c-2.4-.2-4.8.2-7 .9-.1 0 0 .1 0 .1 2.3-.4 4.6-.6 7-.7.1 0 .1-.3 0-.3Zm-21.1-27.6c-1.1-.1-2.2 0-3.2.2-.1 0-.1.2 0 .2 1.1-.1 2.1-.1 3.2-.1.2 0 .2-.3 0-.3Z" fill="#263238"/><path d="M117.6 336.3H63.1l7.7-56.9 2-14.6h35l2 14.6 7.8 56.9Z" fill="#455A64"/><path d="M109.8 279.4h-39l2-14.6h35l2 14.6Z" fill="#263238"/><path d="M112.8 259.7h-45v12.4h45v-12.4Z" fill="#455A64"/><path d="M115 50.8H88.5V62H115V50.8Zm-14.8 14.1H73.7v11.2h26.5V64.9Z" fill="#EBEBEB"/><path d="M235.7 412.6c109.352 0 198-12.76 198-28.5s-88.648-28.5-198-28.5-198 12.76-198 28.5 88.648 28.5 198 28.5Z" fill="var(--color-primary)"/><path d="M326.2 22.7v322c0 9.5-7.6 17.2-16.9 17.2H142.8c-9.3 0-16.9-7.7-16.9-17.2v-322c0-9.5 7.6-17.2 16.9-17.2h166.6c9.2.1 16.8 7.8 16.8 17.2Z" fill="#263238"/><path d="M315.7 38.9v295.3c0 9-6.8 16.3-15.1 16.3h-149c-8.4 0-15.1-7.3-15.1-16.3V38.9c0-18.4 6.8-22.5 15.1-22.5h29.8c1.7 0 3.1 2 3.1 4.4v1.1c0 5.7 3.1 5.8 7 5.8h69c3.9 0 7 0 7-5.8v-1.1c0-2.4 1.4-4.4 3.1-4.4h29.9c8.4.1 15.2 5.7 15.2 22.5Z" fill="#fff"/><path d="M235.5 20.5h-18.8c-.6 0-1.2-.5-1.2-1.2 0-.6.5-1.2 1.2-1.2h18.8c.6 0 1.2.5 1.2 1.2-.1.7-.6 1.2-1.2 1.2Z" fill="#fff"/><path d="m297.3 147.8.2 79.9c0 4.5-3.6 8.1-8.1 8.1l-126.7.3c-4.5 0-8.1-3.6-8.1-8.1l-.2-79.9c0-4.2 3.3-7.5 7.5-7.5l127.8-.3c4.2 0 7.6 3.4 7.6 7.5Z" fill="var(--color-primary)"/><path d="M276.827 217.563a7.4 7.4 0 1 0-14.652-2.086 7.4 7.4 0 0 0 14.652 2.086Z" fill="#37474F"/><path d="M286.1 216.5c0 4.1-3.3 7.4-7.4 7.5-4.1 0-7.4-3.3-7.5-7.4 0-4.1 3.3-7.4 7.4-7.5 4.1 0 7.5 3.3 7.5 7.4Zm-97-43.6h-18.4c-2.3 0-4.2-1.9-4.2-4.2v-10.1c0-2.3 1.9-4.2 4.2-4.2h18.4c2.3 0 4.2 1.9 4.2 4.2v10.1c0 2.3-1.9 4.1-4.2 4.2Z" fill="#FFC727"/><path d="M280.8 164.2h-12.1c-2.8 0-5.1-2.3-5.1-5.1s2.3-5.1 5.1-5.1h12.1c2.8 0 5.1 2.3 5.1 5.1 0 2.9-2.2 5.1-5.1 5.1Z" fill="#fff"/><path d="m165.6 189.8-1.1.6h-.1c-.1 0-.2-.1-.2-.1-.1-.1 0-.3.1-.4l1.5-.9c.1-.1.3 0 .4.1v7.3c0 .1-.1.3-.3.3-.1 0-.3-.1-.3-.3v-6.6Zm2.4 6.5 3.6-3.3c.4-.4.7-.9.7-1.5 0-.5-.2-1-.5-1.3-.4-.4-.9-.7-1.5-.7-.5 0-1 .2-1.4.5l-.4.3c-.1.1-.3.1-.4 0-.1-.1-.1-.3 0-.4l.4-.4c.5-.4 1.1-.7 1.7-.7.7 0 1.4.3 1.9.8s.7 1.1.7 1.7c0 .7-.3 1.4-.8 1.9l-3.1 2.8h3.7c.1 0 .3.1.3.3 0 .1-.1.3-.3.3h-4.3c-.1 0-.2 0-.2-.1-.2.1-.2-.1-.1-.2Zm11.3-6.8-2 2.1c.5.1 1 .3 1.3.7.5.5.8 1.2.8 1.9a2.732 2.732 0 0 1-2.7 2.7c-.7 0-1.3-.3-1.9-.8-.1-.1-.1-.3 0-.4.1-.1.3-.1.4 0 .4.4.9.6 1.5.6.5 0 1.1-.2 1.5-.6.4-.4.6-.9.6-1.5 0-.5-.2-1.1-.6-1.5-.4-.4-.9-.6-1.5-.6-.1 0-.2 0-.2-.1-.1-.1-.1-.3 0-.4l1.9-2h-3c-.2 0-.3-.1-.3-.3 0-.2.1-.3.3-.3h3.6c.2 0 .3.1.3.3.1 0 0 .1 0 .2 0-.1 0 0 0 0Zm6.5 5.7h-4.2c-.1 0-.1 0-.2-.1s-.1-.3 0-.4l4.5-5.6c.1-.1.3-.1.4 0l.1.1v5.3h.5c.2 0 .3.1.3.3 0 .1-.1.3-.3.3h-.5v1.3c0 .1-.1.3-.3.3-.1 0-.3-.1-.3-.3v-1.2Zm0-.6V190l-3.7 4.6h3.7Zm9.8 1.4c-.1-.1-.1-.3 0-.4.1-.1.3-.1.4 0 .4.4.9.6 1.5.6.5 0 1.1-.2 1.5-.6.4-.4.6-.9.6-1.5 0-.5-.2-1.1-.6-1.5-.4-.4-.9-.6-1.5-.6-.5 0-1.1.2-1.5.6-.1.1-.3.1-.4 0l-.1-.1v-.2l.4-3.1c0-.1 0-.2.1-.2 0 0 .1-.1.2-.1h3.6c.2 0 .3.1.3.3 0 .2-.1.3-.3.3h-3.4l-.3 2.3c.4-.2.9-.4 1.3-.4.7 0 1.3.2 1.9.8.5.5.8 1.2.8 1.9s-.2 1.4-.8 1.9c-.5.5-1.2.8-1.9.8-.6-.1-1.3-.3-1.8-.8Zm7.4-5.4c.5-.9 1.4-1.6 2.7-1.7.1 0 .3.1.3.3 0 .2-.1.3-.3.3-1.1 0-1.8.6-2.3 1.4-.3.5-.4 1-.6 1.6.5-.5 1.2-.9 1.9-.9 1.4 0 2.6 1.1 2.6 2.6 0 1.4-1.1 2.6-2.6 2.6-1.4 0-2.5-1.1-2.6-2.5v-.5c.1-1.1.3-2.2.9-3.2Zm-.2 3.6v.2c.1 1 1 1.8 2 1.8 1.1 0 2-.9 2-2s-.9-2-2.1-2c-1-.1-1.9.8-1.9 2Zm7.4 2.1 2.9-6.8h-3.8c-.1 0-.3-.1-.3-.3 0-.1.1-.3.3-.3h4.3c.1 0 .1.1.1.2v.2l-3 7.2c0 .1-.1.2-.2.2h-.1c-.2-.1-.2-.3-.2-.4Zm7.7-7.4c.9 0 1.6.7 1.6 1.6 0 .5-.3 1-.7 1.3.9.4 1.6 1.3 1.6 2.3 0 1.4-1.1 2.5-2.5 2.5s-2.5-1.1-2.5-2.5c0-1 .6-2 1.6-2.3-.4-.3-.6-.8-.6-1.3-.1-.9.6-1.6 1.5-1.6Zm0 7.2c1.1 0 2-.9 2-2s-.9-2-2-2-2 .9-2 2c0 1.2.9 2 2 2Zm0-4.5c.6 0 1.1-.5 1.1-1.1 0-.6-.5-1.1-1.1-1.1-.6 0-1.1.5-1.1 1.1 0 .6.5 1.1 1.1 1.1Zm13.8-2.7c1.3 0 2.4 1 2.6 2.3v.8c0 1-.2 2.2-.7 3.1-.5.9-1.4 1.6-2.7 1.7-.2 0-.3-.1-.3-.3 0-.2.1-.3.3-.3 1.1 0 1.8-.6 2.3-1.4.3-.5.5-1 .6-1.6-.5.5-1.2.9-1.9.9-1.4 0-2.6-1.1-2.6-2.6-.1-1.5 1-2.6 2.4-2.6Zm2.1 2.5c0-1.1-.9-2-2-2s-2 .9-2 2 .9 2 2 2 2-.9 2-2Zm2.5 1.3c0-1 .3-2 .7-2.7.5-.7 1.2-1.2 1.9-1.2.8 0 1.5.5 1.9 1.2.5.7.8 1.7.8 2.7 0 1-.3 2-.7 2.7-.5.7-1.2 1.2-1.9 1.2-.8 0-1.5-.5-1.9-1.2-.5-.7-.8-1.6-.8-2.7Zm.5 0c0 1 .3 1.8.7 2.4.4.6.9.9 1.5.9s1.1-.3 1.5-.9c.4-.6.7-1.5.7-2.4 0-1-.3-1.8-.7-2.4-.4-.6-.9-.9-1.5-.9s-1.1.3-1.5.9c-.4.6-.7 1.5-.7 2.4Zm8.5-3.1-1.1.6h-.1c-.1 0-.2-.1-.2-.1-.1-.1 0-.3.1-.4l1.5-.9c.1-.1.3 0 .4.1v7.3c0 .1-.1.3-.3.3-.1 0-.3-.1-.3-.3v-6.6Zm2.4 6.5 3.6-3.3c.4-.4.7-.9.7-1.5 0-.5-.2-1-.5-1.3-.4-.4-.9-.7-1.5-.7-.5 0-1 .2-1.4.5l-.4.3c-.1.1-.3.1-.4 0-.1-.1-.1-.3 0-.4l.4-.4c.5-.4 1.1-.7 1.7-.7.7 0 1.4.3 1.9.8s.7 1.1.7 1.7c0 .7-.3 1.4-.8 1.9l-3.1 2.8h3.7c.1 0 .3.1.3.3 0 .1-.1.3-.3.3H248c-.1 0-.2 0-.2-.1-.2.1-.2-.1-.1-.2Zm17.9-6.8-2 2.1c.5.1 1 .3 1.3.7.5.5.8 1.2.8 1.9a2.732 2.732 0 0 1-2.7 2.7c-.7 0-1.3-.3-1.9-.8-.1-.1-.1-.3 0-.4.1-.1.3-.1.4 0 .4.4.9.6 1.5.6.5 0 1.1-.2 1.5-.6.4-.4.6-.9.6-1.5 0-.5-.2-1.1-.6-1.5-.4-.4-.9-.6-1.5-.6-.1 0-.2 0-.2-.1-.1-.1-.1-.3 0-.4l1.9-2h-3c-.2 0-.3-.1-.3-.3 0-.2.1-.3.3-.3h3.6c.2 0 .3.1.3.3.1 0 .1 0 0 .2.1-.1.1-.1 0 0Zm6.6 5.6H268c-.1 0-.1 0-.2-.1s-.1-.3 0-.4l4.5-5.6c.1-.1.3-.1.4 0l.1.1v5.3h.5c.2 0 .3.1.3.3 0 .1-.1.3-.3.3h-.5v1.3c0 .1-.1.3-.3.3-.1 0-.3-.1-.3-.3v-1.2Zm0-.5v-4.6l-3.7 4.6h3.7Zm3.1 1.4c-.1-.1-.1-.3 0-.4.1-.1.3-.1.4 0 .4.4.9.6 1.5.6.5 0 1.1-.2 1.5-.6.4-.4.6-.9.6-1.5 0-.5-.2-1.1-.6-1.5-.4-.4-.9-.6-1.5-.6-.5 0-1.1.2-1.5.6-.1.1-.3.1-.4 0l-.1-.1v-.2l.4-3.1c0-.1 0-.2.1-.2 0 0 .1-.1.2-.1h3.6c.2 0 .3.1.3.3 0 .2-.1.3-.3.3h-3.4l-.3 2.3c.4-.2.9-.4 1.3-.4.7 0 1.3.2 1.9.8.5.5.8 1.2.8 1.9s-.2 1.4-.8 1.9c-.5.5-1.2.8-1.9.8-.6-.1-1.3-.3-1.8-.8Zm7.4-5.4c.5-.9 1.4-1.6 2.7-1.7.1 0 .3.1.3.3 0 .2-.1.3-.3.3-1.1 0-1.8.6-2.3 1.4-.3.5-.4 1-.6 1.6.5-.5 1.2-.9 1.9-.9 1.4 0 2.6 1.1 2.6 2.6 0 1.4-1.1 2.6-2.6 2.6-1.4 0-2.5-1.1-2.6-2.5v-.5c.1-1.1.3-2.3.9-3.2Zm-.2 3.6v.2c.1 1 1 1.8 2 1.8 1.1 0 2-.9 2-2s-.9-2-2.1-2c-1-.1-1.9.8-1.9 2Z" fill="#F8F8F8"/><path d="m234.496 210.012-67.9.177.009 3.3 67.9-.177-.009-3.3Zm-19.9 7.427-48 .124.009 3.3 48-.124-.009-3.3Zm44.301-63.282-33.8.087.008 3.3 33.8-.087-.008-3.3ZM155.5 124.4c0-.1.1-.3.3-.3h2c1.1 0 2.1.9 2.1 2.1 0 1.1-.9 2.1-2.1 2.1H156v2.9c0 .1-.1.3-.3.3-.1 0-.3-.1-.3-.3v-6.8h.1Zm2.3 3.5c.9 0 1.6-.7 1.6-1.6 0-.9-.7-1.6-1.6-1.6H156v3.2h1.8Zm8-1.3v4.6c0 .1-.1.3-.3.3-.1 0-.3-.1-.3-.3v-.8c-.4.6-1.1 1-1.9 1-1.3 0-2.4-1.2-2.4-2.6 0-1.4 1.1-2.6 2.4-2.6.8 0 1.5.4 1.9 1v-.8c0-.1.1-.3.3-.3.2.3.3.4.3.5Zm-.5 2.3c0-1.1-.9-2.1-1.9-2.1-1 0-1.9.9-1.9 2.1 0 1.1.9 2.1 1.9 2.1 1 0 1.9-.9 1.9-2.1Zm2.6-2.3c0-.1.1-.2.2-.2s.3.1.3.2v2.8c0 .9.7 1.6 1.6 1.6.9 0 1.6-.7 1.6-1.6v-2.9l.1-.1s.1 0 .1.1l.1.1v4.6c0 1.3-1.1 2.4-2.4 2.4-.4 0-.7-.1-1.1-.2-.1-.1-.2-.2-.1-.3.1-.1.2-.2.3-.1.3.1.5.2.8.2 1.1 0 1.9-.8 1.9-1.9v-.3c-.4.4-.9.7-1.6.7-1.1 0-2.1-.9-2.1-2.1v-3h.3Zm13.8 1.9c0-.9-.7-1.6-1.6-1.6-.9 0-1.6.7-1.6 1.6v2.8c0 .1-.1.1-.1.1h-.2v-2.8c0-.9-.7-1.6-1.6-1.6-.9 0-1.6.7-1.6 1.6v2.8c0 .1 0 .2-.1.2h-.1c-.1 0-.2-.1-.2-.2v-4.8c0-.1.1-.2.2-.2s.3.1.3.2v.5c.4-.4.9-.7 1.6-.7.8 0 1.5.4 1.8 1.1.4-.6 1.1-1.1 1.8-1.1 1.1 0 2.1.9 2.1 2.1v2.8c0 .1-.1.2-.3.2-.1 0-.2-.1-.2-.2v-2.8h-.2Zm2.3.5c0-1.4 1.1-2.6 2.5-2.6 1.3 0 2.4 1 2.5 2.4 0 .1-.1.2-.3.2h-4.2c.1 1.1.9 2 2 2 .7 0 1.3-.4 1.6-.9.1-.1.2-.1.3-.1.1.1.2.2.1.4-.4.7-1.2 1.2-2.1 1.2-1.3-.1-2.4-1.2-2.4-2.6Zm.5-.5h3.9c-.2-1-1-1.7-1.9-1.7-1 .1-1.8.8-2 1.7Zm9.9 0c0-.9-.7-1.6-1.6-1.6-.9 0-1.6.7-1.6 1.6v2.8s0 .1-.1.1c0 .1-.1.1-.2.1h-.1c-.1 0-.1-.1-.2-.1v-4.7c0-.1.1-.3.3-.3.1 0 .2.1.2.3v.5c.4-.4.9-.7 1.6-.7 1.1 0 2.1.9 2.1 2.1v2.8c0 .1-.1.3-.3.3-.1 0-.3-.1-.3-.3v-2.9h.2Zm4.5-1.9c0 .1-.1.3-.3.3h-.6v3.7c0 .3.3.4.4.4.1 0 .3.1.3.3 0 .1-.1.3-.3.3-.5 0-.9-.4-.9-.9V127h-.6c-.3 0-.3-.1-.3-.3 0-.1 0-.3.3-.3h.6v-1.9c0-.1.1-.3.3-.3.1 0 .3.1.3.3v1.9h.7s.1.1.1.2Zm12.8 1.9c0-.9-.7-1.6-1.6-1.6-.9 0-1.6.7-1.6 1.6v2.8c0 .1-.1.1-.1.1h-.2v-2.8c0-.9-.7-1.6-1.6-1.6-.9 0-1.6.7-1.6 1.6v2.8c0 .1 0 .2-.1.2h-.1c-.1 0-.2-.1-.2-.2v-4.8c0-.1.1-.2.2-.2s.3.1.3.2v.5c.4-.4.9-.7 1.6-.7.8 0 1.5.4 1.8 1.1.4-.6 1.1-1.1 1.8-1.1 1.1 0 2.1.9 2.1 2.1v2.8c0 .1-.1.2-.3.2-.1 0-.2-.1-.2-.2v-2.8h-.2Zm2.3.5c0-1.4 1.1-2.6 2.5-2.6 1.3 0 2.4 1 2.5 2.4 0 .1-.1.2-.3.2h-4.2c.1 1.1.9 2 2 2 .7 0 1.3-.4 1.6-.9.1-.1.2-.1.3-.1.1.1.2.2.1.4-.4.7-1.2 1.2-2.1 1.2-1.3-.1-2.4-1.2-2.4-2.6Zm.5-.5h3.9c-.2-1-1-1.7-1.9-1.7-1 .1-1.8.8-2 1.7Zm7.6-1.9c0 .1-.1.3-.3.3h-.7v3.7c0 .3.3.4.4.4.1 0 .3.1.3.3 0 .1-.1.3-.3.3-.5 0-.9-.4-.9-.9V127h-.6c-.3 0-.3-.1-.3-.3 0-.1 0-.3.3-.3h.6v-1.9c0-.1.1-.3.3-.3.1 0 .3.1.3.3v1.9h.7c.1 0 .2.1.2.2Zm5.9 1.8c0-.9-.7-1.5-1.6-1.5-.9 0-1.6.6-1.6 1.5v2.8c0 .1-.1.1-.2.1s-.1 0-.2-.1v-7c0-.1.1-.3.3-.3.1 0 .3.1.3.3v2.7c.4-.5 1-.8 1.6-.8 1.2 0 2.1.8 2.1 2v2.8c0 .1-.1.3-.3.3-.1 0-.2-.1-.2-.3v-2.5h-.2Zm4.9-2c1.3 0 2.4 1.2 2.4 2.6 0 1.4-1.1 2.6-2.4 2.6-1.3 0-2.4-1.2-2.4-2.6-.1-1.4 1-2.6 2.4-2.6Zm0 4.6c1 0 1.9-.9 1.9-2.1 0-1.1-.9-2.1-1.9-2.1-1 0-1.9.9-1.9 2.1-.1 1.2.8 2.1 1.9 2.1Zm8.4-.5c-.4.6-1.2 1-2 1-1.4 0-2.5-1.1-2.5-2.5s1.1-2.6 2.5-2.6c.8 0 1.5.4 2 1v-2.9c0-.1.1-.3.3-.3.1 0 .2.1.2.3v6.8c0 .1-.1.3-.2.3s-.3-.1-.3-.3v-.8Zm0-1.5v-.2c0-1.1-.9-2-2-2s-2 .9-2 2.1c0 1.1.9 2 2 2 1.1.1 2-.8 2-1.9Zm-83.9-53.5h-2.2c-.1 0-.3-.1-.3-.3 0-.1.1-.3.3-.3h4.9c.1 0 .3.1.3.3 0 .1-.1.3-.3.3h-2.2V82c0 .1-.1.3-.3.3-.1 0-.3-.1-.3-.3v-6.5h.1Zm5.5 1.7c1.3 0 2.4 1.2 2.4 2.6 0 1.4-1.1 2.6-2.4 2.6-1.3 0-2.4-1.2-2.4-2.6 0-1.4 1.1-2.6 2.4-2.6Zm0 4.6c1 0 1.9-.9 1.9-2.1 0-1.1-.9-2.1-1.9-2.1-1 0-1.9.9-1.9 2.1 0 1.2.9 2.1 1.9 2.1Zm6-4.3c0 .1-.1.3-.3.3h-.6v3.7c0 .3.3.4.4.4.1 0 .3.1.3.3 0 .1-.1.3-.3.3-.5 0-.9-.4-.9-.9v-3.7h-.6c-.3 0-.3-.1-.3-.3 0-.1 0-.3.3-.3h.6v-1.9c0-.1.1-.3.3-.3.1 0 .3.1.3.3v1.9h.7c-.1-.1.1.1.1.2Zm6.3 0v4.6c0 .1-.1.3-.3.3-.1 0-.3-.1-.3-.3v-.8c-.4.6-1.1 1-1.9 1-1.3 0-2.4-1.2-2.4-2.6 0-1.4 1.1-2.6 2.4-2.6.8 0 1.5.4 1.9 1v-.8c0-.1.1-.3.3-.3.2.2.3.3.3.5Zm-.5 2.3c0-1.1-.9-2.1-1.9-2.1-1 0-1.9.9-1.9 2.1 0 1.1.9 2.1 1.9 2.1 1.1-.1 1.9-1 1.9-2.1Zm2.9-4.5c0-.1.1-.3.3-.3.1 0 .3.1.3.3v6.8c0 .1-.1.3-.3.3-.1 0-.3-.1-.3-.3v-6.8Zm5.7 4.6v-2.4c0-.1.1-.3.3-.3.1 0 .3.1.3.3v.7c.4-.6 1.1-1 1.9-1 1.4 0 2.5 1.1 2.5 2.5s-1.1 2.5-2.5 2.5c-.8 0-1.5-.4-1.9-1v2.9c0 .1-.1.3-.3.3-.1 0-.3-.1-.3-.3v-4.2Zm.5-.1c0 1.1.9 2 1.9 2 1.1 0 2-.9 2-2s-.9-2-2-2c-1-.1-1.8.8-1.9 2Zm6.4-2.3c0-.1.1-.3.3-.3.1 0 .2.1.2.3v1.1s0-.1.1-.1c.4-.6 1.1-1.3 2-1.3.1 0 .3.1.3.3 0 .1-.1.3-.3.3-.7 0-1.1.4-1.5.8-.3.5-.5 1-.6 1.2v2.3c0 .1-.1.3-.2.3s-.3-.1-.3-.3v-4.6Zm4.6-1.7c0-.1.1-.3.3-.3.1 0 .3.1.3.3v.2c0 .1-.1.3-.3.3-.1 0-.3-.1-.3-.3v-.2Zm0 1.7c0-.1.1-.3.3-.3.1 0 .3.1.3.3v4.6c0 .1-.1.3-.3.3-.1 0-.3-.1-.3-.3v-4.6Zm2.5 2.3c0-1.4 1.2-2.5 2.6-2.5.6 0 1.2.2 1.6.6.1.1.1.2 0 .3-.1.1-.2.1-.3 0-.4-.3-.8-.5-1.3-.5-1.2 0-2.1.9-2.1 2.1 0 1.1.9 2.1 2.1 2.1.5 0 1-.2 1.3-.4.1-.1.3-.1.3 0 .1.1.1.3-.1.4-.4.3-1 .5-1.6.5-1.3-.1-2.5-1.2-2.5-2.6Zm5.9 0c0-1.4 1.1-2.6 2.5-2.6 1.3 0 2.4 1 2.5 2.4 0 .1-.1.2-.3.2h-4.2c.1 1.1.9 2 2 2 .7 0 1.3-.4 1.6-.9.1-.1.2-.1.3-.1.1.1.2.2.1.4-.4.7-1.2 1.2-2.1 1.2-1.3-.1-2.4-1.2-2.4-2.6Zm.5-.4h3.9c-.2-1-1-1.7-1.9-1.7-1 0-1.8.7-2 1.7Z" fill="#263238"/><path d="M161.5 89.1c.5 0 .9.4.9.9v.5c1.2.1 2.3.5 3.2 1.1.3.2.6.5.6 1 0 .6-.5 1.1-1.2 1.1-.2 0-.4-.1-.6-.2-.7-.4-1.4-.8-2.2-.9v4c3.2.8 4.5 2.1 4.5 4.3 0 2.3-1.8 3.8-4.5 4.1v1.3c0 .5-.4.9-.9.9s-.9-.4-.9-.9V105c-1.6-.2-3-.7-4.3-1.6-.4-.2-.6-.6-.6-1 0-.6.5-1.1 1.1-1.1.3 0 .5.1.7.2 1 .7 1.9 1.2 3.1 1.4v-4.1c-3.1-.8-4.5-1.9-4.5-4.3 0-2.2 1.8-3.8 4.4-4V90c.3-.5.7-.9 1.2-.9Zm-.9 7.1v-3.7c-1.3.1-2 .8-2 1.8 0 .9.4 1.4 2 1.9Zm1.7 2.9v3.8c1.3-.1 2.1-.8 2.1-1.8 0-.9-.5-1.5-2.1-2Zm16.5 1c0 2.7-2.2 5-5 5s-5-2.2-5-5c0-1.7.9-3.3 2.2-4.2-.4-.6-.7-1.3-.7-2.1 0-1.9 1.5-3.4 3.5-3.4 1.9 0 3.4 1.5 3.4 3.4 0 .8-.3 1.5-.7 2.1 1.4.9 2.3 2.4 2.3 4.2Zm-2.3 0c0-1.5-1.2-2.7-2.7-2.7-1.5 0-2.7 1.2-2.7 2.7 0 1.5 1.2 2.7 2.7 2.7 1.5 0 2.7-1.3 2.7-2.7Zm-3.9-6.3c0 .6.5 1.2 1.2 1.2.6 0 1.1-.5 1.1-1.2 0-.6-.5-1.1-1.1-1.1-.7 0-1.2.5-1.2 1.1Zm9.5 1.7c0-2.8 2.3-5.1 5.1-5.1 2.6 0 4.8 2 5 4.5v1.2c0 1.4-.2 2.9-.7 4.3-.5 1.4-1.4 2.7-2.7 3.6-.9.6-1.9.9-3.1 1-.6 0-1.2-.5-1.2-1.1 0-.6.5-1.1 1.1-1.2.8 0 1.4-.3 2-.6.5-.4 1-.8 1.3-1.5.1-.2.2-.4.3-.5-.6.3-1.3.4-2 .4-2.9 0-5.1-2.2-5.1-5Zm2.3 0c0 1.5 1.2 2.8 2.8 2.8 1.5 0 2.7-1.3 2.7-2.8 0-1.5-1.2-2.7-2.7-2.7-1.6-.1-2.8 1.1-2.8 2.7Zm11.1 11.4c1-.3 1.5-1 1.4-1.9-.6-.2-1.2-.7-1.2-1.4v-.2c0-.8.6-1.4 1.4-1.4.9 0 1.5.7 1.5 1.8v.2c0 1.4-.4 2.4-1 3.1-.6.5-1.4.9-2 .9-.4 0-.6-.3-.6-.6 0-.2.2-.4.5-.5Zm4.6-11.4c0-2.8 2.3-5.1 5.1-5.1 2.6 0 4.8 2 5 4.5v1.2c0 1.4-.2 2.9-.7 4.3-.5 1.4-1.4 2.7-2.7 3.6-.9.6-1.9.9-3.1 1-.6 0-1.2-.5-1.2-1.1 0-.6.5-1.1 1.1-1.2.8 0 1.4-.3 2-.6.5-.4 1-.8 1.3-1.5.1-.2.2-.4.3-.5-.6.3-1.3.4-2 .4-2.8 0-5.1-2.2-5.1-5Zm2.3 0c0 1.5 1.2 2.8 2.8 2.8 1.5 0 2.7-1.3 2.7-2.8 0-1.5-1.2-2.7-2.7-2.7-1.6-.1-2.8 1.1-2.8 2.7Zm11.1 0c0-2.8 2.3-5.1 5.1-5.1 2.6 0 4.8 2 5 4.5v1.2c0 1.4-.2 2.9-.7 4.3-.5 1.4-1.4 2.7-2.7 3.6-.9.6-1.9.9-3.1 1-.6 0-1.2-.5-1.2-1.1 0-.6.5-1.1 1.1-1.2.8 0 1.4-.3 2-.6.5-.4 1-.8 1.3-1.5.1-.2.2-.4.3-.5-.6.3-1.3.4-2 .4-2.8 0-5.1-2.2-5.1-5Zm2.3 0c0 1.5 1.2 2.8 2.8 2.8 1.5 0 2.7-1.3 2.7-2.8 0-1.5-1.2-2.7-2.7-2.7-1.6-.1-2.8 1.1-2.8 2.7Z" fill="var(--color-secondary)"/><path d="M190.9 47.4c0-.1.1-.3.3-.3h2c1.1 0 2.1.9 2.1 2.1 0 1.1-.9 2.1-2.1 2.1h-1.8v2.9c0 .1-.1.3-.3.3-.1 0-.3-.1-.3-.3v-6.8h.1Zm2.3 3.5c.9 0 1.6-.7 1.6-1.6 0-.9-.7-1.6-1.6-1.6h-1.8v3.2h1.8Zm7.9-1.3v4.6c0 .1-.1.3-.3.3-.1 0-.3-.1-.3-.3v-.8c-.4.6-1.1 1-1.9 1-1.3 0-2.4-1.2-2.4-2.6 0-1.4 1.1-2.6 2.4-2.6.8 0 1.5.4 1.9 1v-.8c0-.1.1-.3.3-.3.2.3.3.4.3.5Zm-.5 2.3c0-1.1-.9-2.1-1.9-2.1-1 0-1.9.9-1.9 2.1 0 1.1.9 2.1 1.9 2.1 1.1 0 1.9-.9 1.9-2.1Zm2.6-2.3c0-.1.1-.2.2-.2s.3.1.3.2v2.8c0 .9.7 1.6 1.6 1.6.9 0 1.6-.7 1.6-1.6v-2.9l.1-.1s.1 0 .1.1l.1.1v4.6c0 1.3-1.1 2.4-2.4 2.4-.4 0-.7-.1-1.1-.2-.1-.1-.2-.2-.1-.3.1-.1.2-.2.3-.1.3.1.5.2.8.2 1.1 0 1.9-.8 1.9-1.9V54c-.4.4-.9.7-1.6.7-1.1 0-2.1-.9-2.1-2.1v-3h.3Zm13.9 1.9c0-.9-.7-1.6-1.6-1.6-.9 0-1.6.7-1.6 1.6v2.8c0 .1-.1.1-.1.1h-.2v-2.8c0-.9-.7-1.6-1.6-1.6-.9 0-1.6.7-1.6 1.6v2.8c0 .1 0 .2-.1.2h-.1c-.1 0-.2-.1-.2-.2v-4.8c0-.1.1-.2.2-.2s.3.1.3.2v.5c.4-.4.9-.7 1.6-.7.8 0 1.5.4 1.8 1.1.4-.6 1.1-1.1 1.8-1.1 1.1 0 2.1.9 2.1 2.1v2.8c0 .1-.1.2-.3.2-.1 0-.2-.1-.2-.2v-2.8h-.2Zm2.2.4c0-1.4 1.1-2.6 2.5-2.6 1.3 0 2.4 1 2.5 2.4 0 .1-.1.2-.3.2h-4.2c.1 1.1.9 2 2 2 .7 0 1.3-.4 1.6-.9.1-.1.2-.1.3-.1.1.1.2.2.1.4-.4.7-1.2 1.2-2.1 1.2-1.3 0-2.4-1.2-2.4-2.6Zm.6-.4h3.9c-.2-1-1-1.7-1.9-1.7-1 .1-1.8.8-2 1.7Zm9.8 0c0-.9-.7-1.6-1.6-1.6-.9 0-1.6.7-1.6 1.6v2.8s0 .1-.1.1c0 .1-.1.1-.2.1h-.1c-.1 0-.1-.1-.2-.1v-4.7c0-.1.1-.3.3-.3.1 0 .2.1.2.3v.5c.4-.4.9-.7 1.6-.7 1.1 0 2.1.9 2.1 2.1v2.8c0 .1-.1.3-.3.3-.1 0-.2-.1-.2-.3v-2.9h.1Zm4.6-1.9c0 .1-.1.3-.3.3h-.7v3.7c0 .3.3.4.4.4.1 0 .3.1.3.3 0 .1-.1.3-.3.3-.5 0-.9-.4-.9-.9V50h-.6c-.2 0-.2-.1-.2-.3 0-.1 0-.3.2-.3h.6v-1.9c0-.1.1-.3.2-.3s.3.1.3.3v1.9h.7c.1 0 .3.1.3.2Zm5.9 4.9c-.2 0-.3-.1-.3-.3v-6.8c0-.1.1-.3.3-.3h1.3c2 0 3.7 1.6 3.7 3.7 0 2-1.6 3.6-3.7 3.6h-1.3v.1Zm1.3-.5c1.7 0 3.1-1.4 3.1-3.1 0-1.7-1.4-3.1-3.1-3.2h-1.1V54h1.1Zm9.1-4.4v4.6c0 .1-.1.3-.2.3s-.3-.1-.3-.3v-.8c-.4.6-1.1 1-1.9 1-1.3 0-2.4-1.2-2.4-2.6 0-1.4 1.1-2.6 2.4-2.6.8 0 1.5.4 1.9 1v-.8c0-.1.1-.3.3-.3.1.3.2.4.2.5Zm-.5 2.3c0-1.1-.9-2.1-1.9-2.1-1 0-1.9.9-1.9 2.1 0 1.1.9 2.1 1.9 2.1 1.1 0 1.9-.9 1.9-2.1Zm4.5-2.3c0 .1-.1.3-.3.3h-.7v3.7c0 .3.3.4.4.4.1 0 .3.1.3.3 0 .1-.1.3-.3.3-.5 0-.9-.4-.9-.9V50h-.6c-.2 0-.2-.1-.2-.3 0-.1 0-.3.2-.3h.6v-1.9c0-.1.1-.3.2-.3s.3.1.3.3v1.9h.7c.2 0 .3.1.3.2Zm6.4 0v4.6c0 .1-.1.3-.3.3-.1 0-.2-.1-.2-.3v-.8c-.4.6-1.1 1-1.9 1-1.3 0-2.4-1.2-2.4-2.6 0-1.4 1.1-2.6 2.4-2.6.8 0 1.5.4 1.9 1v-.8c0-.1.1-.3.2-.3.2.3.3.4.3.5Zm-.5 2.3c0-1.1-.9-2.1-1.9-2.1-1 0-1.9.9-1.9 2.1 0 1.1.9 2.1 1.9 2.1 1 0 1.9-.9 1.9-2.1Z" fill="#263238"/><path d="m160.1 53.8-3.5-3.2 3.5-3.2.7.7-2.6 2.5 2.6 2.5-.7.7Z" fill="var(--color-primary)"/><path d="M159.5 56.2c-3.1 0-5.6-2.5-5.6-5.6 0-3.1 2.5-5.6 5.6-5.6 3.1 0 5.6 2.5 5.6 5.6 0 3.1-2.5 5.6-5.6 5.6Zm0-10.2c-2.5 0-4.6 2-4.6 4.6 0 2.5 2 4.6 4.6 4.6 2.5 0 4.6-2 4.6-4.6 0-2.5-2.1-4.6-4.6-4.6Z" fill="var(--color-primary)"/><path d="M292.6 246.5c6.241 0 11.3-5.059 11.3-11.3 0-6.241-5.059-11.3-11.3-11.3-6.241 0-11.3 5.059-11.3 11.3 0 6.241 5.059 11.3 11.3 11.3Z" fill="#FFC727"/><path d="m289.3 242.4-4.2-6.5 1.8-1.2 2.6 4.2 8.3-10.4 1.6 1.3-10.1 12.6Z" fill="#fff"/><path d="M229.3 247c0 1.8-1.5 3.3-3.3 3.3-1.8 0-3.3-1.5-3.3-3.3 0-1.8 1.5-3.3 3.3-3.3 1.8 0 3.3 1.5 3.3 3.3Z" fill="var(--color-primary)"/><path d="M210.7 247c0 1.3-1.1 2.4-2.4 2.4-1.3 0-2.4-1.1-2.4-2.4 0-1.3 1.1-2.4 2.4-2.4 1.3 0 2.4 1.1 2.4 2.4Zm35.5 0c0 1.3-1.1 2.4-2.4 2.4-1.3 0-2.4-1.1-2.4-2.4 0-1.3 1.1-2.4 2.4-2.4 1.3 0 2.4 1.1 2.4 2.4Z" fill="#EBEBEB"/><path d="M155.2 270.2c.1-.1.2-.1.3 0 .5.4 1.5 1 2.4.9.6 0 1.2-.2 1.6-.5.4-.3.6-.7.6-1.1 0-.4-.2-.7-.6-1-.4-.3-1-.5-1.7-.6-.7-.1-1.3-.3-1.7-.6-.4-.3-.8-.7-.8-1.3 0-.6.3-1 .8-1.4.5-.3 1.1-.5 1.8-.5 1 0 1.7.5 2.3.8.1.1.1.2.1.3-.1.1-.2.1-.3.1-.6-.4-1.2-.8-2-.8-.6 0-1.1.2-1.5.4-.4.3-.6.6-.6 1s.2.6.5.9c.4.3.9.4 1.6.6.7.1 1.4.3 1.9.7.5.3.8.8.8 1.4 0 .6-.3 1.1-.8 1.5-.5.4-1.1.6-1.9.6-1.1 0-2.1-.6-2.7-1.1-.2 0-.2-.2-.1-.3Zm11.5-3.4v4.6c0 .1-.1.3-.3.3-.1 0-.3-.1-.3-.3v-.8c-.4.6-1.1 1-1.9 1-1.3 0-2.4-1.2-2.4-2.6 0-1.4 1.1-2.6 2.4-2.6.8 0 1.5.4 1.9 1v-.8c0-.1.1-.3.3-.3.1.2.3.3.3.5Zm-.5 2.3c0-1.1-.9-2.1-1.9-2.1-1 0-1.9.9-1.9 2.1 0 1.1.9 2.1 1.9 2.1 1-.1 1.9-1 1.9-2.1Zm4.1 2.5-.1-.1-1.9-4.6c-.1-.1 0-.3.1-.3.1-.1.3 0 .3.1l1.7 4 1.7-4c0-.1.2-.2.3-.1.1.1.2.2.1.3l-1.9 4.5s0 .1-.1.1c0 .1-.1.1-.2.1.1 0 .1 0 0 0Zm3.7-2.5c0-1.4 1.1-2.6 2.5-2.6 1.3 0 2.4 1 2.5 2.4 0 .1-.1.2-.3.2h-4.2c.1 1.1.9 2 2 2 .7 0 1.3-.4 1.6-.9.1-.1.2-.1.3-.1.1.1.2.2.1.4-.4.7-1.2 1.2-2.1 1.2-1.3-.1-2.4-1.2-2.4-2.6Zm.6-.4h3.9c-.2-1-1-1.7-1.9-1.7-1.1 0-1.9.7-2 1.7Zm8.9.3c0-1.4 1.2-2.5 2.6-2.5.6 0 1.2.2 1.6.6.1.1.1.2 0 .3-.1.1-.2.1-.3 0-.4-.3-.8-.5-1.3-.5-1.2 0-2.1.9-2.1 2.1 0 1.1.9 2.1 2.1 2.1.5 0 1-.2 1.3-.4.1-.1.3-.1.3 0 .1.1.1.3-.1.4-.4.3-1 .5-1.6.5-1.3 0-2.5-1.1-2.5-2.6Zm10.6-2.2v4.6c0 .1-.1.3-.3.3-.1 0-.3-.1-.3-.3v-.8c-.4.6-1.1 1-1.9 1-1.3 0-2.4-1.2-2.4-2.6 0-1.4 1.1-2.6 2.4-2.6.8 0 1.5.4 1.9 1v-.8c0-.1.1-.3.3-.3.2.2.3.3.3.5Zm-.5 2.3c0-1.1-.9-2.1-1.9-2.1-1 0-1.9.9-1.9 2.1 0 1.1.9 2.1 1.9 2.1 1.1-.1 1.9-1 1.9-2.1Zm2.7-2.3c0-.1.1-.3.3-.3.1 0 .2.1.2.3v1.1s0-.1.1-.1c.4-.6 1.1-1.3 2-1.3.1 0 .3.1.3.3 0 .1-.1.2-.3.2-.7 0-1.1.4-1.5.8-.3.5-.5 1-.6 1.2v2.3c0 .1-.1.3-.2.3s-.3-.1-.3-.3v-4.5Zm8.4 3.8c-.4.6-1.2 1-2 1-1.4 0-2.5-1.1-2.5-2.5s1.1-2.6 2.5-2.6c.8 0 1.5.4 2 1v-2.9c0-.1.1-.2.3-.2.1 0 .3.1.3.2v6.8c0 .1-.1.3-.3.3-.1 0-.3-.1-.3-.3v-.8Zm0-1.4v-.2c0-1.1-.9-2-2-2s-2 .9-2 2.1c0 1.1.9 2 2 2s2-.9 2-1.9Zm9.6-.6c0-.9-.7-1.6-1.6-1.6-.9 0-1.6.7-1.6 1.6v2.8s0 .1-.1.1c0 .1-.1.1-.2.1h-.1c-.1 0-.1-.1-.2-.1v-4.7c0-.1.1-.3.3-.3.1 0 .2.1.2.3v.5c.4-.4.9-.7 1.6-.7 1.1 0 2.1.9 2.1 2.1v2.8c0 .1-.1.3-.3.3-.1 0-.3-.1-.3-.3v-2.9h.2Zm2.7-1.9c0-.1.1-.2.3-.2.1 0 .3.1.3.2v2.8c0 .9.7 1.6 1.6 1.6.9 0 1.6-.7 1.6-1.6v-2.8c0-.1.1-.2.3-.2.1 0 .3.1.3.2v2.8c0 1.1-.9 2.1-2.1 2.1-1.1 0-2.1-.9-2.1-2.1v-2.8h-.2Zm13.8 1.9c0-.9-.7-1.6-1.6-1.6-.9 0-1.6.7-1.6 1.6v2.8c0 .1-.1.1-.1.1h-.2v-2.8c0-.9-.7-1.6-1.6-1.6-.9 0-1.6.7-1.6 1.6v2.8c0 .1 0 .2-.1.2h-.1c-.1 0-.2-.1-.2-.2v-4.8c0-.1.1-.2.2-.2s.3.1.3.2v.5c.4-.4.9-.7 1.6-.7.8 0 1.5.4 1.8 1.1.4-.6 1.1-1.1 1.8-1.1 1.1 0 2.1.9 2.1 2.1v2.8c0 .1-.1.2-.3.2-.1 0-.2-.1-.2-.2v-2.8h-.2Zm2.6.6v-4.6c0-.1.1-.2.2-.2s.3.1.3.2v2.9c.4-.6 1.2-1 2-1 1.4 0 2.5 1.1 2.5 2.6 0 1.4-1.1 2.5-2.5 2.5-.8 0-1.5-.4-2-1v.7c0 .1-.1.3-.3.3-.1 0-.2-.1-.2-.3v-2.1Zm.5-.1c0 1.1.9 2 2 2s2-.9 2-2-.9-2.1-2-2.1-1.9.9-2 2.1Zm6 0c0-1.4 1.1-2.6 2.5-2.6 1.3 0 2.4 1 2.5 2.4 0 .1-.1.2-.3.2h-4.2c.1 1.1.9 2 2 2 .7 0 1.3-.4 1.6-.9.1-.1.2-.1.3-.1.1.1.2.2.1.4-.4.7-1.2 1.2-2.1 1.2-1.3-.1-2.4-1.2-2.4-2.6Zm.6-.4h3.9c-.2-1-1-1.7-1.9-1.7-1 0-1.8.7-2 1.7Zm5.9-1.9c0-.1.1-.3.3-.3.1 0 .2.1.2.3v1.1s0-.1.1-.1c.4-.6 1.1-1.3 2-1.3.1 0 .2.1.2.3 0 .1-.1.2-.2.2-.7 0-1.1.4-1.5.8-.3.5-.5 1-.6 1.2v2.3c0 .1-.1.3-.2.3s-.3-.1-.3-.3v-4.5Z" fill="#263238"/><path opacity=".5" d="M290.4 273.5h-14c-2.8 0-5.2-2.3-5.2-5.2v-.5c0-2.8 2.3-5.2 5.2-5.2h14c2.8 0 5.2 2.3 5.2 5.2v.5c-.1 2.9-2.4 5.2-5.2 5.2Z" fill="var(--color-primary)"/><path d="M294.6 268.1c0 2.5-2 4.6-4.6 4.6-2.5 0-4.6-2-4.6-4.6 0-2.5 2-4.6 4.6-4.6 2.6 0 4.6 2.1 4.6 4.6Z" fill="var(--color-primary)"/><path d="M278.6 298.7H173.4a6 6 0 0 0-6 6v10.5a6 6 0 0 0 6 6h105.2a6 6 0 0 0 6-6v-10.5a6 6 0 0 0-6-6Z" fill="var(--color-secondary)"/><path d="M177.5 305.7c0-.1.1-.3.3-.3h2c1.1 0 2.1.9 2.1 2.1 0 1.2-.9 2.1-2.1 2.1H178v2.9c0 .1-.1.2-.3.2-.1 0-.3-.1-.3-.2v-6.8h.1Zm2.3 3.4c.9 0 1.6-.7 1.6-1.6 0-.9-.7-1.6-1.6-1.6H178v3.2h1.8Zm3.7-1.2c0-.1.1-.2.3-.2.1 0 .2.1.2.2v1.1s0-.1.1-.1c.4-.6 1.1-1.3 2-1.3.1 0 .3.1.3.2s-.1.3-.3.3c-.7 0-1.1.4-1.5.8-.3.5-.5 1-.6 1.2v2.3c0 .1-.1.2-.2.2s-.3-.1-.3-.2v-4.5Zm6.5-.3c1.3 0 2.4 1.2 2.4 2.6 0 1.4-1.1 2.6-2.4 2.6-1.3 0-2.4-1.2-2.4-2.6-.1-1.4 1-2.6 2.4-2.6Zm0 4.6c1 0 1.9-.9 1.9-2.1 0-1.1-.9-2.1-1.9-2.1-1 0-1.9.9-1.9 2.1 0 1.2.8 2.1 1.9 2.1Zm4-2c0-1.4 1.2-2.5 2.6-2.5.6 0 1.2.2 1.6.6.1.1.1.2 0 .3-.1.1-.2.1-.3 0-.4-.3-.8-.5-1.3-.5-1.2 0-2.1.9-2.1 2.1 0 1.1.9 2.1 2.1 2.1.5 0 1-.2 1.3-.4.1-.1.3-.1.3 0 .1.1.1.3-.1.4-.4.3-1 .5-1.6.5-1.4-.1-2.5-1.2-2.5-2.6Zm5.8 0c0-1.4 1.1-2.6 2.5-2.6 1.3 0 2.4 1 2.5 2.4 0 .1-.1.2-.3.2h-4.2c.1 1.1.9 2 2 2 .7 0 1.3-.4 1.6-.9.1-.1.2-.1.3-.1.1.1.2.2.1.4-.4.7-1.2 1.2-2.1 1.2-1.3-.1-2.4-1.2-2.4-2.6Zm.5-.4h3.9c-.2-1-1-1.7-1.9-1.7-1 0-1.8.7-2 1.7Zm5.8.4c0-1.4 1.1-2.6 2.5-2.6 1.3 0 2.4 1 2.5 2.4 0 .1-.1.2-.3.2h-4.2c.1 1.1.9 2 2 2 .7 0 1.3-.4 1.6-.9.1-.1.2-.1.3-.1.1.1.2.2.1.4-.4.7-1.2 1.2-2.1 1.2-1.3-.1-2.4-1.2-2.4-2.6Zm.6-.4h3.9c-.2-1-1-1.7-1.9-1.7-1.1 0-1.9.7-2 1.7Zm10.2 1.9c-.4.6-1.2 1-2 1-1.4 0-2.5-1.1-2.5-2.5s1.1-2.6 2.5-2.6c.8 0 1.5.4 2 1v-2.9c0-.1.1-.3.3-.3.1 0 .3.1.3.3v6.8c0 .1-.1.2-.3.2-.1 0-.3-.1-.3-.2v-.8Zm0-1.4v-.2c0-1.1-.9-2-2-2s-2 .9-2 2.1c0 1.1.9 2 2 2s2-.9 2-1.9Zm7.8-2.4c0 .1-.1.3-.3.3h-.7v3.7c0 .3.3.4.4.4.1 0 .3.1.3.3 0 .1-.1.2-.3.2-.5 0-.9-.4-.9-.9v-3.7h-.6c-.3 0-.3-.1-.3-.3 0-.1 0-.3.3-.3h.6v-1.9c0-.1.1-.3.3-.3.1 0 .3.1.3.3v1.9h.7s.2.1.2.3Zm4.4-.3c1.3 0 2.4 1.2 2.4 2.6 0 1.4-1.1 2.6-2.4 2.6-1.3 0-2.4-1.2-2.4-2.6 0-1.4 1-2.6 2.4-2.6Zm0 4.6c1 0 1.9-.9 1.9-2.1 0-1.1-.9-2.1-1.9-2.1-1 0-1.9.9-1.9 2.1 0 1.2.8 2.1 1.9 2.1Zm7.1-2c0-1.4 1.2-2.5 2.6-2.5.6 0 1.2.2 1.6.6.1.1.1.2 0 .3-.1.1-.2.1-.3 0-.4-.3-.8-.5-1.3-.5-1.2 0-2.1.9-2.1 2.1 0 1.1.9 2.1 2.1 2.1.5 0 1-.2 1.3-.4.1-.1.3-.1.3 0 .1.1.1.3-.1.4-.4.3-1 .5-1.6.5-1.3-.1-2.5-1.2-2.5-2.6Zm8.3-2.6c1.3 0 2.4 1.2 2.4 2.6 0 1.4-1.1 2.6-2.4 2.6-1.3 0-2.4-1.2-2.4-2.6 0-1.4 1.1-2.6 2.4-2.6Zm0 4.6c1 0 1.9-.9 1.9-2.1 0-1.1-.9-2.1-1.9-2.1-1 0-1.9.9-1.9 2.1 0 1.2.9 2.1 1.9 2.1Zm8-2.5c0-.9-.7-1.6-1.6-1.6-.9 0-1.6.7-1.6 1.6v2.8s0 .1-.1.1c0 .1-.1.1-.2.1h-.1c-.1 0-.1-.1-.2-.1v-4.7c0-.1.1-.2.2-.2s.2.1.2.2v.5c.4-.4.9-.7 1.6-.7 1.1 0 2.1.9 2.1 2.1v2.8c0 .1-.1.2-.3.2-.1 0-.2-.1-.2-.2v-2.9h.2Zm5-4c0 .1-.1.3-.2.3-.4 0-.5.1-.6.2-.1.1-.2.4-.2.8v.5h.7c.1 0 .3.1.3.2s-.1.3-.3.3h-.7v4.4c0 .1-.1.2-.3.2-.1 0-.3-.1-.3-.2V308h-.7c-.1 0-.3-.1-.3-.3 0-.1.1-.2.3-.2h.7v-.5c0-.5.1-.9.3-1.2.2-.3.6-.4 1-.4.2 0 .3.1.3.3Zm1.6.5c0-.1.1-.3.3-.3.1 0 .3.1.3.3v.2c0 .1-.1.3-.3.3-.1 0-.3-.1-.3-.3v-.2Zm0 1.7c0-.1.1-.3.3-.3.1 0 .3.1.3.3v4.6c0 .1-.1.2-.3.2-.1 0-.3-.1-.3-.2v-4.6Zm2.9 0c0-.1.1-.2.3-.2.1 0 .2.1.2.2v1.1s0-.1.1-.1c.4-.6 1.1-1.3 2-1.3.1 0 .2.1.2.2s-.1.3-.2.3c-.7 0-1.1.4-1.5.8-.3.5-.5 1-.6 1.2v2.3c0 .1-.1.2-.2.2s-.3-.1-.3-.2v-4.5Zm11.9 1.8c0-.9-.7-1.6-1.6-1.6-.9 0-1.6.7-1.6 1.6v2.8c0 .1-.1.1-.1.1h-.2v-2.8c0-.9-.7-1.6-1.6-1.6-.9 0-1.6.7-1.6 1.6v2.8c0 .1 0 .2-.1.2h-.1c-.1 0-.2-.1-.2-.2v-4.8c0-.1.1-.2.2-.2s.3.1.3.2v.5c.4-.4.9-.7 1.6-.7.8 0 1.5.4 1.8 1.1.4-.6 1.1-1.1 1.8-1.1 1.1 0 2.1.9 2.1 2.1v2.8c0 .1-.1.2-.3.2-.1 0-.2-.1-.2-.2v-2.8h-.2Z" fill="#fff"/><path d="M288.6 381.1c2.4.4 67.1-8.9 69.3-10.8.9-.7.1-10.2-1.3-21.7v-.4c-.3-2.4-8.5-41.5-8.5-41.5l-43.3 6.1 10 40.9.1.7s-23.2 14.6-25.4 17c-2.2 2.5-3.3 9.3-.9 9.7Z" fill="#F7A9A0"/><path d="M357.9 370.3c-2.2 1.9-66.9 11.3-69.3 10.8-2.4-.4-1.3-7.2.9-9.6 2.2-2.4 25.4-17 25.4-17l-.1-.7-1.1-4.7 41.9-6.3c.3 1.7 1 5.1 1 5.5v.4c1.4 11.4 2.2 20.9 1.3 21.6Z" fill="#FFC727"/><path d="M288.6 381.1c1.2.2 18.8-2.1 36-4.7 3.5-.5 6.9-1.1 10.2-1.6 12.2-1.9 22.3-3.8 23.2-4.5.9-.7.1-10-1.2-21.2 0-.2 0-.3-.1-.5v-.4l-41.8 5.5.1.7s-23.2 14.6-25.4 17c-2.3 2.5-3.4 9.3-1 9.7Z" fill="#A6A6A6"/><path d="M289 378.5c10.9-1.8 54.9-8.2 65.8-9.2.1 0 .1.1 0 .1-10.7 2.1-54.8 8.1-65.7 9.3-.3 0-.4-.1-.1-.2Zm21.2-23.9c4.2-1.4 9.5-1.5 13.2 1.1.1.1 0 .3-.1.3-4.4-.7-8.5-1-13-.8-.4 0-.4-.5-.1-.6Zm-2.9 2.3c4.2-1.4 9.5-1.5 13.2 1.1.1.1 0 .3-.1.3-4.4-.7-8.5-1-13-.8-.3 0-.4-.5-.1-.6Zm-2.8 2.4c4.2-1.4 9.5-1.5 13.2 1.1.1.1 0 .3-.1.3-4.4-.7-8.5-1-13-.8-.3-.1-.4-.5-.1-.6Z" fill="#263238"/><path d="m308.6 346.6 48.7-6.7s-12.1-83-11.7-84.9c.5-2.5 29-118.9 29-118.9h-39.9s-32.8 108-34.1 118.4c-2.2 16.8 8 92.1 8 92.1Z" fill="#37474F"/><path d="M310.8 336.7c8.3-1.7 38.6-5.3 41.9-5.2.1 0 .1.1 0 .1-3.2.9-29.2 4.5-41.9 5.3-.1 0-.1-.2 0-.2ZM365.4 145c-1 2.9-1.8 5.8-2.7 8.6-.9 2.9-1.7 5.8-2.5 8.7-1.7 5.7-3.3 11.5-4.9 17.2-3.3 11.6-6.4 23.2-9.5 34.9-1.5 5.8-3 11.5-4.5 17.3-1.5 5.8-3.1 11.6-4.4 17.4-.6 2.8-1 5.5-.9 8.4.2 2.9.7 5.7 1.2 8.6 1 5.9 1.9 11.9 2.9 17.8 1.9 12 4 24 6 36 .3 1.5.5 2.9.8 4.4 0 .1.2.1.2 0-1.6-11.9-3.6-23.8-5.5-35.7-.9-5.9-1.9-11.7-2.8-17.6-.5-3.1-1-6.1-1.5-9.2-.4-2.9-.7-5.9-.3-8.8.4-2.9 1.2-5.7 1.9-8.5.7-2.9 1.4-5.7 2.2-8.6 1.5-5.8 3-11.6 4.5-17.3 3-11.6 6.2-23.2 9.3-34.7l9.6-34.5c.4-1.4.8-2.8 1.2-4.3-.2-.1-.3-.2-.3-.1Z" fill="#263238"/><path d="M330.3 392c2.3.7 67.7-.5 70.1-2.1.9-.6 1.3-10.1 1.5-21.7v-.4c0-2.4-1.3-42.2-1.3-42.2l-42.7.7 1.9 41.9v.7s-24.8 11.7-27.3 13.7c-2.6 2.1-4.5 8.7-2.2 9.4Z" fill="#F7A9A0"/><path d="M402 363.3v5c-.1 11.5-.5 21.1-1.5 21.7-2.4 1.6-67.8 2.8-70.1 2.1-2.3-.7-.4-7.3 2.1-9.4 2.5-2.1 27.3-13.7 27.3-13.7v-.7l-.2-4.5c7.5-.2 29.1-.4 42.4-.5Z" fill="#FFC727"/><path d="M330.3 392c2.3.7 67.7-.5 70.1-2.1.9-.6 1.3-10.1 1.5-21.7v-.4l-42.2.3v.7s-24.8 11.7-27.3 13.7c-2.5 2.2-4.4 8.8-2.1 9.5Z" fill="#A6A6A6"/><path d="M331 389.4c11-.5 55.5-1.3 66.4-1 .1 0 .1.1 0 .1-10.9.7-55.4 1.2-66.4 1.1-.2 0-.2-.2 0-.2Zm24-21c4.3-.9 9.6-.3 13 2.7.1.1 0 .3-.2.3-4.3-1.3-8.3-2.1-12.8-2.4-.2-.1-.3-.6 0-.6Z" fill="#263238"/><path d="M352 370.3c4.3-.9 9.6-.3 13 2.7.1.1 0 .3-.2.3-4.3-1.3-8.3-2.1-12.8-2.4-.3-.1-.4-.5 0-.6Z" fill="#263238"/><path d="M348.9 372.2c4.3-.9 9.6-.3 13 2.7.1.1 0 .3-.2.3-4.3-1.3-8.3-2.1-12.8-2.4-.3 0-.4-.5 0-.6Z" fill="#263238"/><path d="M335.8 136.1s.9 19.1 5.3 34.2c.3 1.3.7 2.5 1.1 3.7 0 0 1.7 0 8.7 4.2l5.8 182.9 47.1-.5s-7.5-96.9-7.5-103.1c.1-10-5.4-77.6-4.8-79.3 5.8-17.5-3.8-42.1-3.8-42.1h-51.9Z" fill="#37474F"/><path d="M358.3 352.3c13.3-.8 39-1 42.2-.5.1 0 .1.1 0 .1-3.3.6-34.5 1.2-42.2.6-.1 0-.1-.1 0-.2Zm-2.9-76.4c-.6-21-1.3-41.9-2.1-62.9-.5-11.8-1-23.6-1.7-35.5 0-.4-.7-.4-.6 0 .5 21.1 1.3 42.1 2 63.2.7 21 1.4 41.9 2.1 62.9.4 11.8.8 23.6 1.3 35.5 0 .2.3.2.3 0-.2-21.1-.7-42.1-1.3-63.2Zm36.8 29.3c-1-13.7-2-27.5-3.1-41.2-1-13.7-2-27.5-3.1-41.2-.5-6.9-1-13.7-1.5-20.6-.3-3.4-.5-6.9-.8-10.3-.3-3.4-.7-6.8-.6-10.2.1-3.7 1.7-7 2.6-10.6.8-3.4 1.1-6.9 1.1-10.3-.1-7.2-1.7-14.2-3.2-21.2-.1-.4-.7-.2-.6.2 1.5 6.4 2.9 12.9 3.2 19.5.1 3.3 0 6.6-.7 9.8-.6 3.1-1.9 6-2.6 9.1-.8 3.2-.3 6.4-.1 9.7.3 3.4.5 6.9.7 10.3.5 6.7 1 13.5 1.5 20.2 2 27.4 4 54.7 6.2 82.1 1.2 15.4 2.2 30.8 3.7 46.2 0 .1.2.1.2 0-.8-14-1.9-27.8-2.9-41.5Zm-9.6-148.4c-.8-.3-1.7-.4-2.5-.6-.9-.2-1.7-.5-2.5-.9-1.5-.7-3.1-1.6-4.4-2.6-1.4-1.1-2.2-2.5-2.8-4.1-.4-.8-.7-1.7-1-2.6-.2-.4-.3-.8-.5-1.3-.1-.2-.5-1.1-.6-1.3h.1v-.1c-.1-.1-.1-.1-.2-.1 0 0-.1 0-.1.1-.2.3 0 .6.1.9.1.6.3 1.1.4 1.7.3 1 .5 2 .8 2.9.6 1.8 1.4 3.5 2.8 4.7 1.4 1.2 3.1 2.2 4.9 2.8.9.3 1.8.6 2.8.8.9.1 1.8.3 2.7.2.1-.2.1-.4 0-.5Zm-37.9 10.6c-.1-1.6-.2-3.3-.4-4.9-.3-3.7-.7-7.5-1.4-11.2-.1-.3-.5-.2-.4.1l.9 8.7c.3 2.9.6 5.8.7 8.7 0 .9 0 2.4-1.1 2.6-1.4.3-2.1-1.6-2.5-2.6-.9-2.6-1.4-5.3-1.8-7.9-.5-3.1-.7-6.2-1-9.2 0-.1-.2-.1-.2 0 0 6.1.1 12.5 2.3 18.3.4 1.1 1.2 2.3 2.5 2.4h.1v.1c0 .2.1.3.1.5 0 .1.1.3.1.4.1.3.1.6.2.9.1.3.4.2.4-.1.1 0 .1-.1.1-.2 0-.6-.2-1.2-.4-1.7.7-.1 1.3-.6 1.6-1.3.5-1.2.3-2.5.2-3.6Z" fill="#263238"/><path d="M340.3 172.8c4.7 1.9 9.2 4.4 13.5 7 .2.1 0 .4-.1.3-4.5-2.2-9.2-4.3-13.6-6.8-.4-.2-.2-.6.2-.5Zm-.5-61.5c2.8 2.2 5.5 3.8 8.2 5.1-4.4-7.5-3.8-24.4-3.2-22 2.6 11.5 9.8 24.1 12.6 24.8 7.4 1 14.1-1 19.7-4.2-5.7-8.5-5.5-25.6-5.1-24.6 4.2 11.2 12.9 17.7 14.4 17.7 5.6-5.3 8.5-10.6 7.7-11.2-5.8-3.9-10.7-14-15.1-24.7-4.4-10.5-6.6-20.6-12.8-30-5.6-8.6-16.9-10.2-23.3-5.8-16.7 11.6-6.7 72.2-3.1 74.9Z" fill="#263238"/><path d="M357.2 37c4.6 1.1 8.5 5.3 10.9 9.3 3.2 5.2 5.4 11.1 8 16.7 5.3 10.9 11.9 20.9 20.2 29.7.2.2-.1.5-.3.3-9-6.8-15.2-16.5-20.2-26.5-2.6-5.1-4.6-10.5-7.1-15.6-1.3-2.8-2.9-5.6-4.9-8-2-2.3-4.3-3.7-6.9-5-.4-.4-.2-1.1.3-.9Z" fill="#263238"/><path d="m416.8 254.7-65.7 11.7-2.4-68.6 46.6-8.4 21.5 65.3Z" fill="#EBEBEB"/><path d="m395.3 189.4 4.6 68.3 16.9-3-21.5-65.3Z" fill="var(--color-primary)"/><path d="M361.7 200.5h-2.4v-13.4c.1-7.3 6.2-11.9 12-12.2 4.4-.2 9.8 2.1 10.7 9.3.9 7.8 1.1 11.5 1.1 11.6l-2.4.1s-.2-3.8-1.1-11.5c-.6-5.6-4.6-7.4-8.1-7.2-4.8.3-9.7 4-9.8 9.8v13.5Z" fill="#263238"/><path d="M400.7 257c1.2-1.2 2.4-2.3 3.7-3.5 1.2-1.1 2.5-2.2 3.8-3.3l.2-.1.2.1c1.3.6 2.5 1.3 3.8 2 1.2.7 2.5 1.4 3.7 2.1-1.3-.5-2.6-1.1-3.9-1.6-1.3-.6-2.6-1.2-3.8-1.8h.4c-1.3 1.1-2.6 2.2-3.9 3.2-1.5.9-2.8 1.9-4.2 2.9Z" fill="#fff"/><path d="M408.4 250.5c-1.1-4.2-2-8.4-3-12.7-1-4.2-1.9-8.5-2.8-12.7-.9-4.3-1.8-8.5-2.6-12.8l-1.3-6.4c-.4-2.1-.8-4.3-1.2-6.4l1.5 6.3 1.5 6.3c1 4.2 1.9 8.5 2.8 12.7.9 4.3 1.8 8.5 2.6 12.8.9 4.4 1.8 8.6 2.5 12.9Z" fill="#fff"/><path d="M363.7 199.8c.4 1.7-.7 3.4-2.5 3.8-1.7.4-3.4-.7-3.8-2.5-.4-1.7.7-3.4 2.5-3.8 1.7-.4 3.4.7 3.8 2.5Zm21.1-4.6c.4 1.7-.7 3.4-2.5 3.8-1.7.4-3.4-.7-3.8-2.5-.4-1.7.7-3.4 2.5-3.8 1.7-.3 3.5.8 3.8 2.5Z" fill="#263238"/><path d="M409.2 274.3h-77.1l11.2-78.5h54.6l11.3 78.5Z" fill="#FFC727"/><path opacity=".1" d="m397.9 195.8-8.5 78.5h19.8l-11.3-78.5Z"/><path d="m358.7 201.2-2.4-.5c0-.1 1.4-6.7 2.9-13.3 1.6-7.2 8.7-10.5 14.6-9.6 4.4.7 9.3 4.2 8.6 11.6-.8 7.9-1.4 11.6-1.4 11.8l-2.4-.4s.6-3.8 1.4-11.6c.6-5.7-3-8.3-6.5-8.9-4.8-.8-10.5 1.9-11.8 7.7-1.6 6.6-3 13.1-3 13.2Z" fill="#263238"/><path d="M390.4 273.7c1.6-1.1 3.2-2.2 4.9-3.2 1.6-1 3.3-2 5-3l.2-.1.2.2 3.9 3c1.3 1 2.5 2 3.8 3.1-1.4-.8-2.8-1.7-4.1-2.7-1.4-.9-2.7-1.9-4-2.8h.4c-1.7 1-3.4 1.9-5.1 2.8-1.7 1-3.4 1.9-5.2 2.7Z" fill="#fff"/><path d="M400.5 267.9c-.3-5-.6-10-.8-15l-.6-15c-.1-5-.3-10-.4-15l-.1-7.5c0-2.5-.1-5-.1-7.5.2 2.5.3 5 .5 7.5l.4 7.5.6 15c.1 5 .3 10 .4 15 0 5 .1 10 .1 15Z" fill="#fff"/><path d="M357.5 204.3a3.3 3.3 0 1 0 0-6.6 3.3 3.3 0 0 0 0 6.6Zm22 0a3.3 3.3 0 1 0 0-6.6 3.3 3.3 0 0 0 0 6.6Z" fill="#263238"/><path d="m297.6 53.1 9.3 28.9c.4.8 0 1.6-.9 1.6l-15.1 1c-.8.1-1.8-.6-2.2-1.4l-9.3-28.9c-.4-.8 0-1.6.9-1.6l15.1-1c.8 0 1.8.6 2.2 1.4Z" fill="#A6A6A6"/><path d="m295.8 53.2 9.3 28.9c.4.8 0 1.6-.9 1.6l-15.1 1c-.8.1-1.8-.6-2.2-1.4l-9.3-28.9c-.4-.8 0-1.6.9-1.6l15.1-1c.8-.1 1.8.6 2.2 1.4Z" fill="#DBDBDB"/><path d="M291.7 54.8c.1.7.7 1.2 1.4 1.2.7-.1 1.2-.7 1.2-1.4-.1-.7-.7-1.2-1.4-1.2-.7.1-1.2.7-1.2 1.4Z" fill="#455A64"/><path d="M349.3 94.5c-7.2 18.9-24.8 44-32.7 44.6-3.8.3-10.5 1.7-15.8-2.3-11.5-8.7-21.9-26.2-24.5-36.5-.9-3.6 16.5-13 19.4-10.2 6.7 6.6 15 19.9 16.1 19.7 4.1-.6 19-15 29.5-25.2 12.5-12.1 10.8 2.3 8 9.9Zm-74.9-13.2c1.4-7.6 2.9-9.4.6-16.5-1.5-4.6.8-7.6 4.4-4 5.9 5.8 6.2 16 5.3 19.6l-10.3.9Z" fill="#F7A9A0"/><path d="M277.4 103.5s-4.1-10.2-3.5-18.5c.4-5.7 2.8-18.1 18.2-25.7 3.7-1.8 10.1-1.8 5.2 3.3-3.5 3.6-6.8 4.9-8.4 7.3 0 0 8.2 1 9.9 4.8.7 1.7 2.6 6.3 3.6 10.1 0 0-.8.4-1.8.8 0 0 1.2 3.6-1.1 9l-22.1 8.9Z" fill="#F7A9A0"/><path d="M275.2 79.6c2.2-2.1 6.8-6.5 11.8-8.8 5.6-2.5 17.1-5.9 18.9-1.7 1.3 3-2.9 4.7-2.9 4.7s5-.4 5.6 2.6c.6 2.7-2.8 3.8-2.8 3.8s3.1.3 3.1 3c0 3.3-6.5 2.2-9.3 5.5-.6.9-24.4-9.1-24.4-9.1Z" fill="#F7A9A0"/><path d="M288.7 77.2c2.3-1.7 8.6-4 14.2-3.5.1 0 .2.1.1.1-6.3.7-11.9 2.5-14.3 3.4 0 .1 0 0 0 0Zm2.7 5.6c2.2-1.2 8.8-3.4 14.4-2.6.1 0 .2.1.1.1-6.6.4-12 1.8-14.5 2.5Z" fill="#263238"/><path d="m301.7 96.5-20.9 24.2s17.9 17.5 23.7 18.9c5.8 1.4 10.2.5 14.3-.6 4.1-1.2 24.1-24.4 30.7-43.3 6.6-19-.5-19.9-11.7-8.4-11.2 11.5-25.1 22.8-25.8 22-.7-.9-10.3-12.8-10.3-12.8Z" fill="#FFC727"/><path opacity=".1" d="m301.7 96.5-20.9 24.2s17.9 17.5 23.7 18.9c5.8 1.4 10.2.5 14.3-.6 4.1-1.2 24.1-24.4 30.7-43.3 6.6-19-.5-19.9-11.7-8.4-11.2 11.5-25.1 22.8-25.8 22-.7-.9-10.3-12.8-10.3-12.8Z"/><path d="M305.5 103.2c-.9.8-7.8 8.6-9.4 10.4-1.5 1.7-7.5 9-9 10.8-.1.1 0 .2.1.1.8-.9 1.7-1.7 2.5-2.6.8-.9 5.5-6.2 7-7.9 1.5-1.8 8.3-9.8 8.9-10.7.1-.1 0-.2-.1-.1Z" fill="#263238"/><path d="m330.2 127.7-3.9 33.6s54.5-.8 68-2.2c0 0-12.9-62.2-27.9-77.6-7.5-7.7-16-6.8-21.3-1.2-1.3 1.4-17.1 23.7-18.6 32-1.3 7.5 3.7 15.4 3.7 15.4Z" fill="#FFC727"/><path d="M328 122.3c-.6-1.9-1-3.9-1-5.9 0-4.1 1.2-8.1 3-11.7 1-2.1 2.2-4.1 3.2-6.2 0-.1-.1-.1-.1 0-1 1.4-1.8 2.9-2.6 4.3 0-.1 0-.1.1-.2.2-.8.5-1.6.8-2.4 0-.1-.1-.1-.1-.1-.3.8-.6 1.5-.9 2.3-.2.5-.3 1-.4 1.5-1 1.8-1.8 3.7-2.5 5.7-1.3 3.9-1.5 8.1-.3 12.1.3 1 .8 2 1.2 3 .5 1.1 1.2 2.1 1.8 3.1 0 .1.2 0 .1-.1-1-1.6-1.7-3.5-2.3-5.4Z" fill="#263238"/><path d="M357.5 80.6c-.4 1-6.8 6.9-11.5 5.8-1.6-.4.1-8.9.1-8.9v-.7l-.3-9.2 11.7-4.7 1.7-.6s-.1 2.5-.2 5.7v.9c0 .5 0 1-.1 1.4 0 .4 0 .7-.1 1.1 0 .4-.1.8-.1 1.1-.3 3.9-1 7.7-1.2 8.1Z" fill="#F7A9A0"/><path d="M358.9 67.9c-3.9 6.6-10.1 8.4-12.8 8.9l-.3-9.2 11.7-4.7 1.7-.6c-.1-.1-.1 2.5-.3 5.6Z" fill="#263238"/><path d="M334.9 53.3c-2.2 16.1 7.2 19.2 10.6 19.7 3.1.4 13.9 1.5 17.8-14.3 3.9-15.8-2.9-21.9-10.1-23.3-7.1-1.3-16.1 1.8-18.3 17.9Z" fill="#F7A9A0"/><path d="M339.2 50c.4 0 .7 0 1.1-.1.4 0 .8 0 1.1-.3.2-.1.2-.5.1-.7-.3-.5-.8-.5-1.4-.5-.6 0-1 .2-1.4.6-.3.3 0 1 .5 1Zm10.6 1.6c-.4-.1-.7-.2-1.1-.4-.4-.2-.7-.2-1-.6-.1-.2-.1-.5.1-.7.4-.4 1-.3 1.4-.1.5.2.9.4 1.2.9.4.4-.1 1-.6.9Zm-2.7 3.7.1.1c-.2 1.1-.3 2.4.7 2.9v.1c-1.3-.4-1.2-2.1-.8-3.1Z" fill="#263238"/><path d="M348.3 54.4c1.8.2 1.3 3.7-.3 3.6-1.7-.2-1.2-3.8.3-3.6Z" fill="#263238"/><path d="M348.9 54.6c.3.2.5.6.9.7.4.1.8-.2 1.1-.6h.1c-.1.7-.4 1.3-1.2 1.4-.7 0-1.1-.6-1.2-1.4.1 0 .2-.2.3-.1Zm-8.1-.3s-.1 0 0 0c-.2 1.2-.5 2.4-1.5 2.7v.1c1.2-.1 1.6-1.7 1.5-2.8Z" fill="#263238"/><path d="M339.9 53c-1.8-.3-2.3 3.2-.7 3.5 1.7.3 2.2-3.2.7-3.5Z" fill="#263238"/><path d="M339.2 53.2c-.3.1-.6.4-1 .4s-.6-.5-.8-.9h-.1c-.1.7 0 1.4.6 1.6.6.2 1.1-.3 1.4-.9.1-.1 0-.3-.1-.2Zm6.5 10.9c-.3.2-.6.6-1 .6s-.8-.2-1.2-.4c0 0-.1 0-.1.1.3.4.8.8 1.4.7.5 0 .8-.5.9-.9.1-.1 0-.2 0-.1Zm-4.1-4.6-.6 2.4c0 .1.2.1.4.2 1.3.4 2.8.1 3.7-.9.1-.1 0-.2-.1-.1-1.1.6-2.3.7-3.5.5 0-.2.9-2.7.7-2.8-.4-.1-1.3.1-1.8.2.8-3.4 2.2-6.6 3-10 0-.1-.1-.2-.2-.1-1.7 3.3-2.7 7.1-3.7 10.6.1.5 1.8.1 2.1 0Z" fill="#263238"/><path d="M361.9 58.8c-4-.3-4.7-12.6-4.7-14.1 0 1-.1 6-.5 6.2-.1 0-.5-.1-1.2-.3 0-.6 0-1.2-.1-1.8 0-.3-.1.6-.3 1.7-.2-.1-.5-.2-.7-.2.1-1.1.1-2.4-.2-3.8-.1-.5-.3 1.7-.8 3.5-2.7-.8-6.6-2-10.3-2.2-1-.1-1.8-.1-2.6-.1.1-1.5.3-3.1.2-2.7-.4 1-.6 1.9-.7 2.7h-1.1c0-2.1 1.1-5.4.7-4.9-1.4 1.9-2 4-2.2 5.1-1.4.2-1.8.5-1.9.1 0-.7 1-6.5 5.7-10.6 5.1-4.5 15.1-5.3 20.4 2.1 0 0 4.5 3.2 5 8 .4 4.9-2.4 11.5-4.7 11.3Z" fill="#263238"/><path d="M360.6 59.6s3.8-4.9 6-3.5c2.2 1.4-.8 8.6-3.5 9.4-2.7.9-3.6-1.7-3.6-1.7l1.1-4.2Z" fill="#F7A9A0"/><path d="M365.7 58.2c-1.9.7-3 2.4-3.8 4.2.6-.7 1.4-1 2.3-.3 0 0 0 .1-.1.1-.8-.2-1.3-.1-1.9.5-.4.4-.7 1-1 1.5-.1.2-.4.1-.3-.1.1-2.5 2.2-5.8 4.8-5.9Z" fill="#263238"/><path d="M369.3 81.5c18.7 15.3 33.8 38.7 34.6 44.6.9 6.5-1.4 30.2-7.6 42.2-1.6 3.2-25.8-11.3-24.2-14.7 3.1-6.7 7.6-24.9 7-28.5-.6-3.4-10.1-23.6-16.7-34.2-5.9-9.8-1.8-16.5 6.9-9.4Z" fill="#F7A9A0"/><path d="M353.6 182.4c1.6 2.5 4.6 1.7 4.6 1.7s0 2.4 1.5 4c1.8 1.9 5.5-.1 5.5-.1s.5 2.4 2.3 4c1.9 1.6 5.9.2 5.9.2s1.7 2 4.2 2.2c4.4.4 8.4-5 11-8.3 2.6-3.4 6.8-15.4 7.8-17.6l-21.5-16.8s-15.9 11.8-18.4 16.2c-2 3.6-4.7 11.7-2.9 14.5Z" fill="#F7A9A0"/><path d="M357.9 183.6c1.3-4.5 3.8-8.3 6.1-12.3.1-.1.2 0 .1.1-2.3 3.9-3.9 8.3-6 12.3-.1.1-.2 0-.2-.1Zm7.1 4c.3-1 1-1.9 1.5-2.8.6-.9 1.2-1.9 1.9-2.8 1.3-1.8 2.6-3.7 4-5.4.1-.1.2 0 .1.1-1.3 1.8-2.5 3.7-3.7 5.6-.6.9-1.2 1.9-1.8 2.9-.5.9-1 1.9-1.8 2.6-.1.1-.3 0-.2-.2Zm8.5 4.4c.2-.9 1-1.7 1.5-2.4.6-.8 1.2-1.7 1.8-2.5 1.2-1.7 2.4-3.3 3.5-5.1.1-.1.2 0 .1.1-1.1 1.7-2.2 3.5-3.4 5.2-.6.9-1.1 1.7-1.7 2.5-.5.8-1 1.7-1.8 2.2Z" fill="#263238"/><path d="M360.3 88.9c3.6 10.2 18.2 34.4 18.1 36.7-.1 2.3-7.2 26.6-7.2 26.6l28.9 17.5s6.4-33.1 4-44.6c-1.8-8.8-22.2-34.5-32.1-42.4-9.9-7.8-16.3-6.8-11.7 6.2Z" fill="#FFC727"/><path opacity=".1" d="M360.3 88.9c3.6 10.2 18.2 34.4 18.1 36.7-.1 2.3-7.2 26.6-7.2 26.6l28.9 17.5s6.4-33.1 4-44.6c-1.8-8.8-22.2-34.5-32.1-42.4-9.9-7.8-16.3-6.8-11.7 6.2Z"/><path d="M378.5 124.2c-.3-1.7-1.3-3.3-2.1-4.8-1.8-3.4-3.6-6.8-5.6-10.1-1.1-1.8-5.4-8.9-6.6-11.2-.1-.2-.4 0-.3.2.7 1.4 2.7 5 4.2 7.6-.2-.3-.4-.5-.7-.8-.4-.5-.9-1-1.3-1.4-.5-.5-1.1-.9-1.5-1.5-.1-.1-.2 0-.1.1.8 1.1 1.7 2 2.6 3 .4.5.9 1 1.3 1.5.3.3.6.7.9 1 .1.1.1.2.2.3 1.9 3.3 3.6 6.6 5.4 9.9.9 1.6 1.9 3.2 2.5 4.9.3.8.5 1.6.5 2.5-.1 1-.4 2-.6 2.9-1 3.6-1.9 7.2-2.9 10.9-.5 2.1-1.1 4.2-1.6 6.3-.5 2.1-1.1 4.2-1.4 6.3 0 .1.2.3.3.1.7-1.8 1.2-3.7 1.7-5.5.5-1.9 1.1-3.8 1.6-5.6 1-3.8 2-7.6 3-11.5.2-1.6.8-3.3.5-5.1Zm21.3 38c-7.8-5.5-16-10.6-24.4-15.3-.1 0-.2.1-.1.1 7.8 5.5 15.9 10.7 24.3 15.3.2.2.3 0 .2-.1Z" fill="#263238"/><path d="M97.7 309.2h44.1c5.8 0 10.5-4.7 10.5-10.5v-82.6c0-3 2.1-10.6 11.2-10.6h-55.4c-5.8 0-10.5 4.7-10.5 10.5v93.2h.1Z" fill="#FFC727"/><path opacity=".1" d="M97.7 309.2h44.1c5.8 0 10.5-4.7 10.5-10.5v-82.6c0-3 2.1-10.6 11.2-10.6h-55.4c-5.8 0-10.5 4.7-10.5 10.5v93.2h.1Z"/><path opacity=".1" d="M145.3 216.1h-39.6v1.8h39.6v-1.8Zm0 5.1h-39.6v1.8h39.6v-1.8Zm0 5.1h-39.6v1.8h39.6v-1.8Zm0 5.1h-39.6v1.8h39.6v-1.8Zm0 5.1h-39.6v1.8h39.6v-1.8Zm0 5.1h-39.6v1.8h39.6v-1.8Zm0 5.1h-39.6v1.8h39.6v-1.8Zm0 5.1h-39.6v1.8h39.6v-1.8Zm0 5.2h-39.6v1.8h39.6V257Zm0 5.1h-39.6v1.8h39.6v-1.8Zm0 5.1h-39.6v1.8h39.6v-1.8Zm0 5.1h-39.6v1.8h39.6v-1.8Zm0 5.1h-39.6v1.8h39.6v-1.8Zm0 5.1h-39.6v1.8h39.6v-1.8Zm0 5.1h-39.6v1.8h39.6v-1.8Zm0 5.1h-39.6v1.8h39.6v-1.8Z"/><path d="M55.1 274.3V374h33.4v.1c0 5.8 4.6 10.5 10.4 10.6h.4c.4 0 .7 0 1.1-.1l2-.4c.5-.2 1-.4 1.4-.6.2-.1.5-.2.7-.4.1-.1.2-.1.3-.2l.9-.6.1-.1c.2-.2.4-.3.6-.5l.3-.3c1.2-1.2 2.1-2.7 2.6-4.3v-.1c.1-.3.1-.5.2-.8.1-.3.1-.7.2-1V274.2c0-3 2.1-10.6 11.2-10.6H65.6c-5.8.2-10.5 4.9-10.5 10.7Z" fill="#FFC727"/><path opacity=".1" d="M102 270.4H62.4v1.8H102v-1.8Zm3.7-4.7H66.1v1.8h39.6v-1.8Zm-3.7 9.8H62.4v1.8H102v-1.8Zm0 5.1H62.4v1.8H102v-1.8Zm0 5.2H62.4v1.8H102v-1.8Zm0 5.1H62.4v1.8H102v-1.8Zm0 5.1H62.4v1.8H102V296Zm0 5.1H62.4v1.8H102v-1.8Zm0 5.1H62.4v1.8H102v-1.8Zm0 5.1H62.4v1.8H102v-1.8Zm0 5.1H62.4v1.8H102v-1.8Zm0 5.1H62.4v1.8H102v-1.8Zm0 5.2H62.4v1.8H102v-1.8Zm0 5.1H62.4v1.8H102v-1.8Zm0 5.1H62.4v1.8H102v-1.8Zm0 5.1H62.4v1.8H102V342Zm0 5.1H62.4v1.8H102v-1.8Zm0 5.1H62.4v1.8H102v-1.8Zm0 5.1H62.4v1.8H102v-1.8Zm0 7.4H82.2v4.2H102v-4.2Z"/><path d="M141.5 309.2h.3c.4 0 .8 0 1.2-.1-.4 0-.7.1-1.1.1h-.4ZM163 205.5c-5.9 0-10.6 4.8-10.6 10.6v20h21.2v-20c0-5.8-4.8-10.6-10.6-10.6Z" fill="#FFC727"/><path opacity=".2" d="M163 205.5c-5.9 0-10.6 4.8-10.6 10.6v20h21.2v-20c0-5.8-4.8-10.6-10.6-10.6Z"/><path d="M109.7 274.4v34.9h31.6c-5.7-.1-10.4-4.8-10.4-10.6v-24.3c0-5.9-4.8-10.6-10.6-10.6-2.9 0-5.6 1.2-7.5 3.1-1.9 1.9-3.1 4.5-3.1 7.5Z" fill="#FFC727"/><path opacity=".2" d="M109.7 274.4v34.9h31.6c-5.7-.1-10.4-4.8-10.4-10.6v-24.3c0-5.9-4.8-10.6-10.6-10.6-2.9 0-5.6 1.2-7.5 3.1-1.9 1.9-3.1 4.5-3.1 7.5Z"/><path d="M39.6 374v.1c0 5.8 4.6 10.5 10.4 10.6h48.9c-5.7-.1-10.4-4.8-10.4-10.6v-.1H39.6Z" fill="#FFC727"/><path opacity=".2" d="M39.6 374v.1c0 5.8 4.6 10.5 10.4 10.6h48.9c-5.7-.1-10.4-4.8-10.4-10.6v-.1H39.6Z"/></symbol><symbol id="bin" viewBox="0 0 32 32"><path fill="currentColor" d="M4 10v20c0 1.1 0.9 2 2 2h18c1.1 0 2-0.9 2-2v-20h-22zM10 28h-2v-14h2v14zM14 28h-2v-14h2v14zM18 28h-2v-14h2v14zM22 28h-2v-14h2v14z"></path><path fill="currentColor" d="M26.5 4h-6.5v-2.5c0-0.825-0.675-1.5-1.5-1.5h-7c-0.825 0-1.5 0.675-1.5 1.5v2.5h-6.5c-0.25 0-1.5 0.675-1.5 1.5v2.5h26v-2.5c0-0.825-0.675-1.5-1.5-1.5zM18 4h-6v-1.975h6v1.975z"></path></symbol></defs></svg>